<svg width="398" height="286" viewBox="0 0 398 286" fill="none" xmlns="http://www.w3.org/2000/svg">
<path d="M74.625 64.0002V245" stroke="#DAD9DA"/>
<path d="M166.875 64.0002V245" stroke="#DAD9DA" stroke-dasharray="6 6"/>
<path d="M259.125 64.0002V245" stroke="#DAD9DA" stroke-dasharray="6 6"/>
<path d="M351.375 64.0002V245" stroke="#DAD9DA" stroke-dasharray="6 6"/>
<path d="M74 65.0002H363C367.418 65.0002 371 68.582 371 73.0002V77.0002C371 81.4185 367.418 85.0002 363 85.0002H74V65.0002Z" fill="#F9C362"/>
<path d="M279.843 69.8184V80.0002H278.61V71.111H278.55L276.064 72.7616V71.5088L278.61 69.8184H279.843ZM286.032 80.1394C285.349 80.1394 284.746 80.0185 284.222 79.7765C283.702 79.5313 283.296 79.1948 283.004 78.7673C282.713 78.3364 282.569 77.8459 282.572 77.2957C282.569 76.8648 282.653 76.4671 282.825 76.1025C282.998 75.7346 283.233 75.428 283.531 75.1828C283.833 74.9342 284.169 74.7768 284.541 74.7105V74.6508C284.053 74.5249 283.666 74.2514 283.377 73.8305C283.089 73.4063 282.946 72.924 282.95 72.3838C282.946 71.8667 283.077 71.4044 283.343 70.9967C283.608 70.589 283.972 70.2675 284.436 70.0322C284.904 69.7969 285.436 69.6792 286.032 69.6792C286.622 69.6792 287.149 69.7969 287.613 70.0322C288.077 70.2675 288.442 70.589 288.707 70.9967C288.975 71.4044 289.111 71.8667 289.115 72.3838C289.111 72.924 288.964 73.4063 288.672 73.8305C288.384 74.2514 288.001 74.5249 287.524 74.6508V74.7105C287.892 74.7768 288.223 74.9342 288.518 75.1828C288.813 75.428 289.048 75.7346 289.224 76.1025C289.4 76.4671 289.489 76.8648 289.492 77.2957C289.489 77.8459 289.34 78.3364 289.045 78.7673C288.753 79.1948 288.347 79.5313 287.827 79.7765C287.31 80.0185 286.712 80.1394 286.032 80.1394ZM286.032 79.0457C286.493 79.0457 286.891 78.9711 287.225 78.822C287.56 78.6728 287.819 78.4624 288.001 78.1906C288.183 77.9188 288.276 77.6006 288.279 77.236C288.276 76.8516 288.177 76.5118 287.981 76.2169C287.785 75.9219 287.519 75.6899 287.181 75.5208C286.846 75.3518 286.463 75.2673 286.032 75.2673C285.598 75.2673 285.21 75.3518 284.869 75.5208C284.531 75.6899 284.264 75.9219 284.068 76.2169C283.876 76.5118 283.782 76.8516 283.785 77.236C283.782 77.6006 283.869 77.9188 284.048 78.1906C284.231 78.4624 284.491 78.6728 284.829 78.822C285.167 78.9711 285.568 79.0457 286.032 79.0457ZM286.032 74.2133C286.397 74.2133 286.72 74.1404 287.002 73.9946C287.287 73.8487 287.51 73.6449 287.673 73.3831C287.835 73.1212 287.918 72.8146 287.921 72.4633C287.918 72.1186 287.837 71.8187 287.678 71.5635C287.519 71.3049 287.298 71.1061 287.017 70.9669C286.735 70.8243 286.407 70.7531 286.032 70.7531C285.651 70.7531 285.318 70.8243 285.033 70.9669C284.748 71.1061 284.527 71.3049 284.372 71.5635C284.216 71.8187 284.14 72.1186 284.143 72.4633C284.14 72.8146 284.218 73.1212 284.377 73.3831C284.539 73.6449 284.763 73.8487 285.048 73.9946C285.333 74.1404 285.661 74.2133 286.032 74.2133ZM291.958 80.0798C291.713 80.0798 291.503 79.992 291.327 79.8163C291.151 79.6406 291.063 79.4302 291.063 79.1849C291.063 78.9396 291.151 78.7292 291.327 78.5535C291.503 78.3778 291.713 78.29 291.958 78.29C292.204 78.29 292.414 78.3778 292.59 78.5535C292.765 78.7292 292.853 78.9396 292.853 79.1849C292.853 79.3473 292.812 79.4965 292.729 79.6323C292.649 79.7682 292.542 79.8776 292.406 79.9605C292.273 80.04 292.124 80.0798 291.958 80.0798ZM297.996 80.1394C297.34 80.1394 296.755 80.0268 296.241 79.8014C295.731 79.576 295.325 79.2628 295.023 78.8617C294.725 78.4574 294.563 77.9884 294.536 77.4548H295.789C295.815 77.7829 295.928 78.0663 296.127 78.3049C296.326 78.5403 296.586 78.7225 296.907 78.8518C297.229 78.9811 297.585 79.0457 297.976 79.0457C298.414 79.0457 298.802 78.9695 299.14 78.817C299.478 78.6645 299.743 78.4524 299.935 78.1806C300.127 77.9089 300.224 77.594 300.224 77.236C300.224 76.8615 300.131 76.5317 299.945 76.2467C299.76 75.9583 299.488 75.733 299.13 75.5706C298.772 75.4082 298.334 75.3269 297.817 75.3269H297.002V74.2332H297.817C298.222 74.2332 298.576 74.1603 298.881 74.0144C299.189 73.8686 299.43 73.6631 299.602 73.398C299.778 73.1328 299.866 72.8213 299.866 72.4633C299.866 72.1186 299.789 71.8187 299.637 71.5635C299.484 71.3082 299.269 71.1094 298.991 70.9669C298.715 70.8243 298.391 70.7531 298.016 70.7531C297.665 70.7531 297.333 70.8177 297.022 70.947C296.714 71.0729 296.462 71.2569 296.266 71.4988C296.071 71.7375 295.965 72.0258 295.948 72.3639H294.755C294.775 71.8303 294.935 71.3629 295.237 70.9619C295.539 70.5575 295.933 70.2427 296.42 70.0173C296.911 69.7919 297.449 69.6792 298.036 69.6792C298.666 69.6792 299.206 69.8068 299.657 70.062C300.108 70.3139 300.454 70.647 300.696 71.0613C300.938 71.4756 301.059 71.9231 301.059 72.4037C301.059 72.977 300.908 73.4659 300.606 73.8703C300.308 74.2746 299.902 74.5547 299.388 74.7105V74.79C300.031 74.8961 300.533 75.1695 300.895 75.6103C301.256 76.0478 301.437 76.5897 301.437 77.236C301.437 77.7895 301.286 78.2867 300.984 78.7275C300.686 79.165 300.278 79.5097 299.761 79.7616C299.244 80.0135 298.656 80.1394 297.996 80.1394ZM308.66 78.0912V77.5542C308.66 77.183 308.737 76.8433 308.889 76.535C309.045 76.2235 309.27 75.9749 309.565 75.7893C309.863 75.6004 310.225 75.5059 310.649 75.5059C311.08 75.5059 311.441 75.6004 311.733 75.7893C312.024 75.9749 312.245 76.2235 312.394 76.535C312.543 76.8433 312.618 77.183 312.618 77.5542V78.0912C312.618 78.4624 312.541 78.8037 312.389 79.1153C312.24 79.4235 312.018 79.6721 311.723 79.861C311.431 80.0466 311.073 80.1394 310.649 80.1394C310.218 80.1394 309.855 80.0466 309.56 79.861C309.265 79.6721 309.041 79.4235 308.889 79.1153C308.737 78.8037 308.66 78.4624 308.66 78.0912ZM309.675 77.5542V78.0912C309.675 78.3994 309.747 78.6761 309.893 78.9214C310.039 79.1634 310.291 79.2843 310.649 79.2843C310.997 79.2843 311.242 79.1634 311.385 78.9214C311.531 78.6761 311.604 78.3994 311.604 78.0912V77.5542C311.604 77.246 311.534 76.9709 311.395 76.7289C311.256 76.4837 311.007 76.361 310.649 76.361C310.301 76.361 310.051 76.4837 309.898 76.7289C309.749 76.9709 309.675 77.246 309.675 77.5542ZM303.589 72.2644V71.7275C303.589 71.3563 303.666 71.0166 303.818 70.7083C303.974 70.3968 304.199 70.1482 304.494 69.9626C304.792 69.7737 305.154 69.6792 305.578 69.6792C306.009 69.6792 306.37 69.7737 306.662 69.9626C306.953 70.1482 307.174 70.3968 307.323 70.7083C307.472 71.0166 307.547 71.3563 307.547 71.7275V72.2644C307.547 72.6357 307.47 72.977 307.318 73.2886C307.169 73.5968 306.947 73.8454 306.652 74.0343C306.36 74.2199 306.002 74.3127 305.578 74.3127C305.147 74.3127 304.784 74.2199 304.489 74.0343C304.194 73.8454 303.97 73.5968 303.818 73.2886C303.666 72.977 303.589 72.6357 303.589 72.2644ZM304.604 71.7275V72.2644C304.604 72.5727 304.676 72.8494 304.822 73.0947C304.968 73.3367 305.22 73.4576 305.578 73.4576C305.926 73.4576 306.171 73.3367 306.314 73.0947C306.46 72.8494 306.532 72.5727 306.532 72.2644V71.7275C306.532 71.4193 306.463 71.1442 306.324 70.9022C306.184 70.657 305.936 70.5343 305.578 70.5343C305.23 70.5343 304.98 70.657 304.827 70.9022C304.678 71.1442 304.604 71.4193 304.604 71.7275ZM303.967 80.0002L310.967 69.8184H312.101L305.101 80.0002H303.967Z" fill="white"/>
<path d="M74 106H300C304.418 106 308 109.582 308 114V118C308 122.419 304.418 126 300 126H74V106Z" fill="#ED5556"/>
<path d="M227.737 110.818V121H226.504V112.111H226.444L223.959 113.762V112.509L226.504 110.818H227.737ZM234.106 121.139C233.449 121.139 232.864 121.027 232.351 120.801C231.84 120.576 231.434 120.263 231.133 119.862C230.834 119.457 230.672 118.988 230.645 118.455H231.898C231.925 118.783 232.037 119.066 232.236 119.305C232.435 119.54 232.695 119.723 233.017 119.852C233.338 119.981 233.695 120.046 234.086 120.046C234.523 120.046 234.911 119.969 235.249 119.817C235.587 119.665 235.852 119.452 236.045 119.181C236.237 118.909 236.333 118.594 236.333 118.236C236.333 117.862 236.24 117.532 236.055 117.247C235.869 116.958 235.597 116.733 235.239 116.571C234.881 116.408 234.444 116.327 233.927 116.327H233.111V115.233H233.927C234.331 115.233 234.686 115.16 234.991 115.014C235.299 114.869 235.539 114.663 235.711 114.398C235.887 114.133 235.975 113.821 235.975 113.463C235.975 113.119 235.899 112.819 235.746 112.563C235.594 112.308 235.378 112.109 235.1 111.967C234.825 111.824 234.5 111.753 234.126 111.753C233.774 111.753 233.443 111.818 233.131 111.947C232.823 112.073 232.571 112.257 232.376 112.499C232.18 112.737 232.074 113.026 232.057 113.364H230.864C230.884 112.83 231.045 112.363 231.346 111.962C231.648 111.558 232.042 111.243 232.53 111.017C233.02 110.792 233.559 110.679 234.145 110.679C234.775 110.679 235.315 110.807 235.766 111.062C236.217 111.314 236.563 111.647 236.805 112.061C237.047 112.476 237.168 112.923 237.168 113.404C237.168 113.977 237.017 114.466 236.716 114.87C236.417 115.275 236.011 115.555 235.498 115.71V115.79C236.141 115.896 236.643 116.17 237.004 116.61C237.365 117.048 237.546 117.59 237.546 118.236C237.546 118.79 237.395 119.287 237.094 119.728C236.795 120.165 236.388 120.51 235.871 120.762C235.354 121.014 234.765 121.139 234.106 121.139ZM240.14 121.08C239.895 121.08 239.684 120.992 239.509 120.816C239.333 120.641 239.245 120.43 239.245 120.185C239.245 119.94 239.333 119.729 239.509 119.554C239.684 119.378 239.895 119.29 240.14 119.29C240.385 119.29 240.596 119.378 240.771 119.554C240.947 119.729 241.035 119.94 241.035 120.185C241.035 120.347 240.993 120.496 240.911 120.632C240.831 120.768 240.723 120.878 240.587 120.96C240.455 121.04 240.306 121.08 240.14 121.08ZM246.067 121.139C245.385 121.139 244.781 121.018 244.258 120.777C243.737 120.531 243.331 120.195 243.04 119.767C242.748 119.336 242.604 118.846 242.607 118.296C242.604 117.865 242.688 117.467 242.861 117.103C243.033 116.735 243.268 116.428 243.567 116.183C243.868 115.934 244.205 115.777 244.576 115.71V115.651C244.089 115.525 243.701 115.251 243.412 114.83C243.124 114.406 242.982 113.924 242.985 113.384C242.982 112.867 243.113 112.404 243.378 111.997C243.643 111.589 244.007 111.268 244.471 111.032C244.939 110.797 245.471 110.679 246.067 110.679C246.657 110.679 247.184 110.797 247.648 111.032C248.112 111.268 248.477 111.589 248.742 111.997C249.01 112.404 249.146 112.867 249.15 113.384C249.146 113.924 248.999 114.406 248.707 114.83C248.419 115.251 248.036 115.525 247.559 115.651V115.71C247.927 115.777 248.258 115.934 248.553 116.183C248.848 116.428 249.083 116.735 249.259 117.103C249.435 117.467 249.524 117.865 249.528 118.296C249.524 118.846 249.375 119.336 249.08 119.767C248.788 120.195 248.382 120.531 247.862 120.777C247.345 121.018 246.747 121.139 246.067 121.139ZM246.067 120.046C246.528 120.046 246.926 119.971 247.26 119.822C247.595 119.673 247.854 119.462 248.036 119.191C248.218 118.919 248.311 118.601 248.314 118.236C248.311 117.852 248.212 117.512 248.016 117.217C247.821 116.922 247.554 116.69 247.216 116.521C246.881 116.352 246.498 116.267 246.067 116.267C245.633 116.267 245.245 116.352 244.904 116.521C244.566 116.69 244.299 116.922 244.104 117.217C243.911 117.512 243.817 117.852 243.82 118.236C243.817 118.601 243.905 118.919 244.084 119.191C244.266 119.462 244.526 119.673 244.864 119.822C245.202 119.971 245.603 120.046 246.067 120.046ZM246.067 115.213C246.432 115.213 246.755 115.14 247.037 114.995C247.322 114.849 247.546 114.645 247.708 114.383C247.87 114.121 247.953 113.815 247.956 113.463C247.953 113.119 247.872 112.819 247.713 112.563C247.554 112.305 247.333 112.106 247.052 111.967C246.77 111.824 246.442 111.753 246.067 111.753C245.686 111.753 245.353 111.824 245.068 111.967C244.783 112.106 244.563 112.305 244.407 112.563C244.251 112.819 244.175 113.119 244.178 113.463C244.175 113.815 244.253 114.121 244.412 114.383C244.574 114.645 244.798 114.849 245.083 114.995C245.368 115.14 245.696 115.213 246.067 115.213ZM254.615 121.139C254.031 121.139 253.506 121.023 253.039 120.791C252.571 120.559 252.197 120.241 251.915 119.837C251.633 119.433 251.479 118.972 251.453 118.455H252.646C252.692 118.915 252.901 119.297 253.272 119.598C253.647 119.897 254.094 120.046 254.615 120.046C255.032 120.046 255.404 119.948 255.728 119.752C256.056 119.557 256.313 119.288 256.499 118.947C256.688 118.602 256.782 118.213 256.782 117.779C256.782 117.335 256.685 116.938 256.489 116.59C256.297 116.239 256.032 115.962 255.694 115.76C255.355 115.558 254.969 115.455 254.535 115.452C254.224 115.449 253.904 115.497 253.576 115.596C253.248 115.692 252.977 115.817 252.765 115.969L251.612 115.83L252.228 110.818H257.518V111.912H253.262L252.904 114.915H252.964C253.173 114.749 253.435 114.612 253.75 114.502C254.065 114.393 254.393 114.338 254.734 114.338C255.357 114.338 255.912 114.487 256.4 114.786C256.89 115.081 257.275 115.485 257.553 115.999C257.835 116.513 257.975 117.099 257.975 117.759C257.975 118.408 257.83 118.988 257.538 119.499C257.25 120.006 256.852 120.407 256.345 120.702C255.838 120.994 255.261 121.139 254.615 121.139Z" fill="white"/>
<path d="M74 147H272C276.418 147 280 150.582 280 155V159C280 163.419 276.418 167 272 167H74V147Z" fill="#65D6BF"/>
<path d="M184.666 151.818V162H183.433V153.111H183.373L180.887 154.762V153.509L183.433 151.818H184.666ZM191.174 151.818V162H189.941V153.111H189.881L187.395 154.762V153.509L189.941 151.818H191.174ZM194.375 162.08C194.13 162.08 193.92 161.992 193.744 161.816C193.568 161.641 193.48 161.43 193.48 161.185C193.48 160.94 193.568 160.729 193.744 160.554C193.92 160.378 194.13 160.29 194.375 160.29C194.621 160.29 194.831 160.378 195.007 160.554C195.182 160.729 195.27 160.94 195.27 161.185C195.27 161.347 195.229 161.496 195.146 161.632C195.066 161.768 194.959 161.878 194.823 161.96C194.69 162.04 194.541 162.08 194.375 162.08ZM199.718 151.818V162H198.486V153.111H198.426L195.94 154.762V153.509L198.486 151.818H199.718ZM207.837 160.091V159.554C207.837 159.183 207.913 158.843 208.066 158.535C208.222 158.223 208.447 157.975 208.742 157.789C209.04 157.6 209.401 157.506 209.826 157.506C210.257 157.506 210.618 157.6 210.91 157.789C211.201 157.975 211.422 158.223 211.571 158.535C211.72 158.843 211.794 159.183 211.794 159.554V160.091C211.794 160.462 211.718 160.804 211.566 161.115C211.417 161.424 211.195 161.672 210.9 161.861C210.608 162.047 210.25 162.139 209.826 162.139C209.395 162.139 209.032 162.047 208.737 161.861C208.442 161.672 208.218 161.424 208.066 161.115C207.913 160.804 207.837 160.462 207.837 160.091ZM208.851 159.554V160.091C208.851 160.399 208.924 160.676 209.07 160.921C209.216 161.163 209.468 161.284 209.826 161.284C210.174 161.284 210.419 161.163 210.562 160.921C210.707 160.676 210.78 160.399 210.78 160.091V159.554C210.78 159.246 210.711 158.971 210.571 158.729C210.432 158.484 210.184 158.361 209.826 158.361C209.478 158.361 209.227 158.484 209.075 158.729C208.926 158.971 208.851 159.246 208.851 159.554ZM202.766 154.264V153.728C202.766 153.356 202.842 153.017 202.995 152.708C203.151 152.397 203.376 152.148 203.671 151.963C203.969 151.774 204.33 151.679 204.755 151.679C205.186 151.679 205.547 151.774 205.839 151.963C206.13 152.148 206.351 152.397 206.5 152.708C206.649 153.017 206.723 153.356 206.723 153.728V154.264C206.723 154.636 206.647 154.977 206.495 155.289C206.346 155.597 206.124 155.845 205.829 156.034C205.537 156.22 205.179 156.313 204.755 156.313C204.324 156.313 203.961 156.22 203.666 156.034C203.371 155.845 203.147 155.597 202.995 155.289C202.842 154.977 202.766 154.636 202.766 154.264ZM203.78 153.728V154.264C203.78 154.573 203.853 154.849 203.999 155.095C204.145 155.337 204.397 155.458 204.755 155.458C205.103 155.458 205.348 155.337 205.491 155.095C205.636 154.849 205.709 154.573 205.709 154.264V153.728C205.709 153.419 205.64 153.144 205.5 152.902C205.361 152.657 205.113 152.534 204.755 152.534C204.407 152.534 204.156 152.657 204.004 152.902C203.855 153.144 203.78 153.419 203.78 153.728ZM203.144 162L210.144 151.818H211.277L204.277 162H203.144Z" fill="white"/>
<path d="M74 188H241C245.418 188 249 191.582 249 196V200C249 204.419 245.418 208 241 208H74V188Z" fill="#7738DD"/>
<path d="M138.408 203.139C137.824 203.139 137.299 203.023 136.832 202.791C136.364 202.559 135.99 202.241 135.708 201.837C135.426 201.433 135.272 200.972 135.246 200.455H136.439C136.485 200.915 136.694 201.297 137.065 201.598C137.44 201.897 137.887 202.046 138.408 202.046C138.825 202.046 139.196 201.948 139.521 201.752C139.849 201.557 140.106 201.288 140.292 200.947C140.481 200.602 140.575 200.213 140.575 199.779C140.575 199.335 140.478 198.938 140.282 198.59C140.09 198.239 139.825 197.962 139.487 197.76C139.148 197.558 138.762 197.455 138.328 197.452C138.017 197.449 137.697 197.497 137.369 197.596C137.04 197.692 136.77 197.817 136.558 197.969L135.405 197.83L136.021 192.818H141.311V193.912H137.055L136.697 196.915H136.757C136.966 196.749 137.228 196.612 137.543 196.502C137.857 196.393 138.186 196.338 138.527 196.338C139.15 196.338 139.705 196.487 140.192 196.786C140.683 197.081 141.067 197.485 141.346 197.999C141.628 198.513 141.768 199.099 141.768 199.759C141.768 200.408 141.623 200.988 141.331 201.499C141.043 202.006 140.645 202.407 140.138 202.702C139.631 202.994 139.054 203.139 138.408 203.139ZM144.236 203.08C143.99 203.08 143.78 202.992 143.604 202.816C143.429 202.641 143.341 202.43 143.341 202.185C143.341 201.94 143.429 201.729 143.604 201.554C143.78 201.378 143.99 201.29 144.236 201.29C144.481 201.29 144.691 201.378 144.867 201.554C145.043 201.729 145.131 201.94 145.131 202.185C145.131 202.347 145.089 202.496 145.006 202.632C144.927 202.768 144.819 202.878 144.683 202.96C144.55 203.04 144.401 203.08 144.236 203.08ZM149.579 192.818V203H148.346V194.111H148.286L145.8 195.762V194.509L148.346 192.818H149.579ZM157.697 201.091V200.554C157.697 200.183 157.774 199.843 157.926 199.535C158.082 199.223 158.307 198.975 158.602 198.789C158.901 198.6 159.262 198.506 159.686 198.506C160.117 198.506 160.478 198.6 160.77 198.789C161.062 198.975 161.282 199.223 161.431 199.535C161.58 199.843 161.655 200.183 161.655 200.554V201.091C161.655 201.462 161.579 201.804 161.426 202.115C161.277 202.424 161.055 202.672 160.76 202.861C160.468 203.047 160.11 203.139 159.686 203.139C159.255 203.139 158.892 203.047 158.597 202.861C158.302 202.672 158.079 202.424 157.926 202.115C157.774 201.804 157.697 201.462 157.697 201.091ZM158.712 200.554V201.091C158.712 201.399 158.785 201.676 158.93 201.921C159.076 202.163 159.328 202.284 159.686 202.284C160.034 202.284 160.279 202.163 160.422 201.921C160.568 201.676 160.641 201.399 160.641 201.091V200.554C160.641 200.246 160.571 199.971 160.432 199.729C160.293 199.484 160.044 199.361 159.686 199.361C159.338 199.361 159.088 199.484 158.935 199.729C158.786 199.971 158.712 200.246 158.712 200.554ZM152.626 195.264V194.728C152.626 194.356 152.703 194.017 152.855 193.708C153.011 193.397 153.236 193.148 153.531 192.963C153.83 192.774 154.191 192.679 154.615 192.679C155.046 192.679 155.407 192.774 155.699 192.963C155.991 193.148 156.211 193.397 156.36 193.708C156.509 194.017 156.584 194.356 156.584 194.728V195.264C156.584 195.636 156.508 195.977 156.355 196.289C156.206 196.597 155.984 196.845 155.689 197.034C155.397 197.22 155.039 197.313 154.615 197.313C154.184 197.313 153.821 197.22 153.526 197.034C153.231 196.845 153.008 196.597 152.855 196.289C152.703 195.977 152.626 195.636 152.626 195.264ZM153.641 194.728V195.264C153.641 195.573 153.714 195.849 153.859 196.095C154.005 196.337 154.257 196.458 154.615 196.458C154.963 196.458 155.208 196.337 155.351 196.095C155.497 195.849 155.57 195.573 155.57 195.264V194.728C155.57 194.419 155.5 194.144 155.361 193.902C155.222 193.657 154.973 193.534 154.615 193.534C154.267 193.534 154.017 193.657 153.864 193.902C153.715 194.144 153.641 194.419 153.641 194.728ZM153.004 203L160.004 192.818H161.138L154.138 203H153.004Z" fill="white"/>
<path d="M40.3517 75.273H41.6131L44.579 82.5173H44.6813L47.6472 75.273H48.9086V84.0002H47.9199V77.3696H47.8347L45.1074 84.0002H44.1529L41.4256 77.3696H41.3404V84.0002H40.3517V75.273ZM50.5502 76.2105V75.273H57.0957V76.2105H54.3514V84.0002H53.2946V76.2105H50.5502ZM65.6472 75.273V84.0002H64.6245L59.8688 77.148H59.7836V84.0002H58.7267V75.273H59.7495L64.5222 82.1423H64.6074V75.273H65.6472Z" fill="#49474D"/>
<path d="M37.9031 123H36.7951L39.9996 114.273H41.0906L44.2951 123H43.1871L40.5792 115.654H40.511L37.9031 123ZM38.3121 119.591H42.7781V120.529H38.3121V119.591ZM45.5884 123V116.455H46.5941V123H45.5884ZM46.0998 115.364C45.9038 115.364 45.7347 115.297 45.5927 115.164C45.4535 115.03 45.3839 114.87 45.3839 114.682C45.3839 114.495 45.4535 114.334 45.5927 114.201C45.7347 114.067 45.9038 114 46.0998 114C46.2958 114 46.4634 114.067 46.6026 114.201C46.7447 114.334 46.8157 114.495 46.8157 114.682C46.8157 114.87 46.7447 115.03 46.6026 115.164C46.4634 115.297 46.2958 115.364 46.0998 115.364ZM48.4361 123V116.455H49.4077V117.443H49.4759C49.5952 117.12 49.8111 116.857 50.1236 116.655C50.4361 116.453 50.7884 116.353 51.1804 116.353C51.2543 116.353 51.3466 116.354 51.4574 116.357C51.5682 116.36 51.652 116.364 51.7088 116.37V117.392C51.6747 117.384 51.5966 117.371 51.4744 117.354C51.3551 117.334 51.2287 117.324 51.0952 117.324C50.777 117.324 50.4929 117.391 50.2429 117.524C49.9957 117.655 49.7997 117.837 49.6548 118.07C49.5128 118.3 49.4418 118.563 49.4418 118.858V123H48.4361ZM56.1577 116.455V117.307H52.7656V116.455H56.1577ZM53.7543 114.887H54.7599V121.125C54.7599 121.409 54.8011 121.622 54.8835 121.764C54.9688 121.904 55.0767 121.997 55.2074 122.046C55.3409 122.091 55.4815 122.114 55.6293 122.114C55.7401 122.114 55.831 122.108 55.902 122.097C55.973 122.083 56.0298 122.071 56.0724 122.063L56.277 122.966C56.2088 122.992 56.1136 123.017 55.9915 123.043C55.8693 123.071 55.7145 123.085 55.527 123.085C55.2429 123.085 54.9645 123.024 54.6918 122.902C54.4219 122.78 54.1974 122.594 54.0185 122.344C53.8423 122.094 53.7543 121.779 53.7543 121.398V114.887ZM60.3445 123.137C59.7138 123.137 59.1697 122.997 58.7124 122.719C58.2578 122.438 57.907 122.046 57.6598 121.543C57.4155 121.037 57.2933 120.449 57.2933 119.779C57.2933 119.108 57.4155 118.517 57.6598 118.006C57.907 117.492 58.2507 117.091 58.6911 116.804C59.1342 116.514 59.6513 116.37 60.2422 116.37C60.5831 116.37 60.9197 116.426 61.2521 116.54C61.5845 116.654 61.8871 116.838 62.1598 117.094C62.4325 117.347 62.6499 117.682 62.8118 118.1C62.9737 118.517 63.0547 119.031 63.0547 119.642V120.068H58.0092V119.199H62.032C62.032 118.83 61.9581 118.5 61.8104 118.21C61.6655 117.921 61.4581 117.692 61.1882 117.524C60.9212 117.357 60.6058 117.273 60.2422 117.273C59.8416 117.273 59.495 117.372 59.2024 117.571C58.9126 117.767 58.6896 118.023 58.5334 118.338C58.3771 118.654 58.299 118.992 58.299 119.353V119.932C58.299 120.426 58.3842 120.845 58.5547 121.189C58.728 121.53 58.968 121.79 59.2749 121.969C59.5817 122.145 59.9382 122.233 60.3445 122.233C60.6087 122.233 60.8473 122.196 61.0604 122.122C61.2763 122.046 61.4624 121.932 61.6186 121.781C61.7749 121.628 61.8956 121.438 61.9808 121.21L62.9524 121.483C62.8501 121.813 62.6783 122.103 62.4368 122.353C62.1953 122.6 61.897 122.793 61.5419 122.932C61.1868 123.068 60.7876 123.137 60.3445 123.137ZM65.5902 114.273V123H64.5845V114.273H65.5902Z" fill="#49474D"/>
<path d="M55.0598 156C54.9661 155.713 54.8425 155.456 54.6891 155.229C54.5385 154.999 54.3581 154.803 54.1479 154.641C53.9405 154.479 53.7047 154.355 53.4405 154.27C53.1763 154.185 52.8865 154.142 52.5712 154.142C52.0542 154.142 51.584 154.276 51.1607 154.543C50.7374 154.81 50.4007 155.203 50.1507 155.723C49.9007 156.243 49.7757 156.881 49.7757 157.637C49.7757 158.392 49.9022 159.03 50.155 159.55C50.4078 160.07 50.7502 160.463 51.182 160.73C51.6138 160.997 52.0996 161.131 52.6394 161.131C53.1394 161.131 53.5797 161.024 53.9604 160.811C54.3439 160.595 54.6422 160.291 54.8553 159.899C55.0712 159.505 55.1792 159.04 55.1792 158.506L55.503 158.574H52.878V157.637H56.2019V158.574C56.2019 159.293 56.0485 159.918 55.7417 160.449C55.4377 160.98 55.0172 161.392 54.4803 161.685C53.9462 161.975 53.3326 162.12 52.6394 162.12C51.8667 162.12 51.1877 161.938 50.6025 161.574C50.0201 161.21 49.5655 160.693 49.2388 160.023C48.915 159.353 48.753 158.557 48.753 157.637C48.753 156.946 48.8453 156.326 49.03 155.774C49.2175 155.22 49.4817 154.749 49.8226 154.36C50.1635 153.97 50.5669 153.672 51.0328 153.465C51.4988 153.257 52.0115 153.154 52.5712 153.154C53.0314 153.154 53.4604 153.223 53.8581 153.362C54.2587 153.499 54.6152 153.693 54.9277 153.946C55.2431 154.196 55.5059 154.496 55.7161 154.845C55.9263 155.192 56.0712 155.577 56.1507 156H55.0598ZM58.8812 153.273V162H57.8755V153.273H58.8812ZM63.3823 162.137C62.7914 162.137 62.2729 161.996 61.8269 161.715C61.3837 161.433 61.0371 161.04 60.7871 160.534C60.54 160.029 60.4164 159.438 60.4164 158.762C60.4164 158.08 60.54 157.485 60.7871 156.976C61.0371 156.468 61.3837 156.073 61.8269 155.791C62.2729 155.51 62.7914 155.37 63.3823 155.37C63.9732 155.37 64.4902 155.51 64.9334 155.791C65.3794 156.073 65.726 156.468 65.9732 156.976C66.2232 157.485 66.3482 158.08 66.3482 158.762C66.3482 159.438 66.2232 160.029 65.9732 160.534C65.726 161.04 65.3794 161.433 64.9334 161.715C64.4902 161.996 63.9732 162.137 63.3823 162.137ZM63.3823 161.233C63.8311 161.233 64.2005 161.118 64.4902 160.888C64.78 160.658 64.9945 160.355 65.1337 159.98C65.2729 159.605 65.3425 159.199 65.3425 158.762C65.3425 158.324 65.2729 157.916 65.1337 157.539C64.9945 157.161 64.78 156.855 64.4902 156.622C64.2005 156.389 63.8311 156.273 63.3823 156.273C62.9334 156.273 62.5641 156.389 62.2743 156.622C61.9846 156.855 61.7701 157.161 61.6309 157.539C61.4917 157.916 61.4221 158.324 61.4221 158.762C61.4221 159.199 61.4917 159.605 61.6309 159.98C61.7701 160.355 61.9846 160.658 62.2743 160.888C62.5641 161.118 62.9334 161.233 63.3823 161.233Z" fill="#49474D"/>
<path d="M24.9533 192.154C25.3113 192.156 25.6692 192.225 26.0272 192.358C26.3851 192.492 26.7118 192.713 27.0073 193.023C27.3027 193.33 27.54 193.749 27.7189 194.28C27.8979 194.811 27.9874 195.478 27.9874 196.279C27.9874 197.054 27.9135 197.743 27.7658 198.345C27.6209 198.945 27.4107 199.451 27.1351 199.862C26.8624 200.274 26.53 200.587 26.138 200.8C25.7488 201.013 25.3084 201.12 24.8169 201.12C24.3283 201.12 23.8922 201.023 23.5087 200.83C23.128 200.634 22.8155 200.362 22.5712 200.016C22.3297 199.666 22.1749 199.262 22.1067 198.801H23.1465C23.2402 199.202 23.4263 199.533 23.7047 199.794C23.986 200.053 24.3567 200.182 24.8169 200.182C25.4902 200.182 26.0215 199.888 26.4107 199.3C26.8027 198.712 26.9988 197.881 26.9988 196.807H26.9306C26.7715 197.046 26.5826 197.252 26.3638 197.425C26.1451 197.598 25.9022 197.732 25.6351 197.826C25.3681 197.919 25.084 197.966 24.7828 197.966C24.2828 197.966 23.824 197.843 23.4064 197.595C22.9917 197.345 22.6593 197.003 22.4093 196.568C22.1621 196.131 22.0385 195.631 22.0385 195.068C22.0385 194.534 22.1578 194.046 22.3965 193.603C22.638 193.156 22.976 192.801 23.4107 192.537C23.8482 192.273 24.3624 192.145 24.9533 192.154ZM24.9533 193.091C24.5953 193.091 24.2729 193.181 23.986 193.36C23.7019 193.536 23.476 193.774 23.3084 194.076C23.1436 194.374 23.0613 194.705 23.0613 195.068C23.0613 195.432 23.1408 195.763 23.2999 196.061C23.4618 196.357 23.682 196.593 23.9604 196.769C24.2417 196.942 24.5613 197.029 24.9192 197.029C25.1891 197.029 25.4405 196.976 25.6735 196.871C25.9064 196.763 26.1096 196.617 26.2828 196.432C26.459 196.245 26.5968 196.033 26.6962 195.797C26.7956 195.558 26.8453 195.31 26.8453 195.051C26.8453 194.71 26.763 194.391 26.5982 194.093C26.4363 193.794 26.2118 193.553 25.9249 193.368C25.6408 193.183 25.3169 193.091 24.9533 193.091ZM29.8166 192.273H31.0779L34.0439 199.517H34.1461L37.112 192.273H38.3734V201H37.3848V194.37H37.2995L34.5723 201H33.6177L30.8904 194.37H30.8052V201H29.8166V192.273ZM43.0151 201.137C42.4242 201.137 41.9057 200.996 41.4597 200.715C41.0165 200.433 40.6699 200.04 40.4199 199.534C40.1728 199.029 40.0492 198.438 40.0492 197.762C40.0492 197.08 40.1728 196.485 40.4199 195.976C40.6699 195.468 41.0165 195.073 41.4597 194.791C41.9057 194.51 42.4242 194.37 43.0151 194.37C43.606 194.37 44.123 194.51 44.5662 194.791C45.0123 195.073 45.3588 195.468 45.606 195.976C45.856 196.485 45.981 197.08 45.981 197.762C45.981 198.438 45.856 199.029 45.606 199.534C45.3588 200.04 45.0123 200.433 44.5662 200.715C44.123 200.996 43.606 201.137 43.0151 201.137ZM43.0151 200.233C43.464 200.233 43.8333 200.118 44.123 199.888C44.4128 199.658 44.6273 199.355 44.7665 198.98C44.9057 198.605 44.9753 198.199 44.9753 197.762C44.9753 197.324 44.9057 196.916 44.7665 196.539C44.6273 196.161 44.4128 195.855 44.123 195.622C43.8333 195.389 43.464 195.273 43.0151 195.273C42.5662 195.273 42.1969 195.389 41.9071 195.622C41.6174 195.855 41.4029 196.161 41.2637 196.539C41.1245 196.916 41.0549 197.324 41.0549 197.762C41.0549 198.199 41.1245 198.605 41.2637 198.98C41.4029 199.355 41.6174 199.658 41.9071 199.888C42.1969 200.118 42.5662 200.233 43.0151 200.233ZM47.6525 201V192.273H48.6582V195.495H48.7434C48.8173 195.381 48.9196 195.236 49.0502 195.06C49.1838 194.881 49.3741 194.722 49.6213 194.583C49.8713 194.441 50.2093 194.37 50.6355 194.37C51.1866 194.37 51.6724 194.507 52.0929 194.783C52.5133 195.058 52.8414 195.449 53.0772 195.955C53.313 196.46 53.4309 197.057 53.4309 197.745C53.4309 198.438 53.313 199.039 53.0772 199.547C52.8414 200.053 52.5147 200.445 52.0971 200.723C51.6795 200.999 51.198 201.137 50.6525 201.137C50.2321 201.137 49.8954 201.067 49.6426 200.928C49.3897 200.786 49.1951 200.625 49.0588 200.446C48.9224 200.264 48.8173 200.114 48.7434 199.995H48.6241V201H47.6525ZM48.6412 197.728C48.6412 198.222 48.7136 198.658 48.8585 199.036C49.0034 199.411 49.215 199.705 49.4934 199.918C49.7718 200.128 50.1127 200.233 50.5162 200.233C50.9366 200.233 51.2875 200.122 51.5687 199.901C51.8528 199.676 52.0659 199.375 52.2079 198.997C52.3528 198.617 52.4252 198.193 52.4252 197.728C52.4252 197.267 52.3542 196.853 52.2122 196.483C52.073 196.111 51.8613 195.817 51.5772 195.601C51.296 195.382 50.9423 195.273 50.5162 195.273C50.1071 195.273 49.7633 195.377 49.4849 195.584C49.2065 195.789 48.9963 196.076 48.8542 196.445C48.7122 196.811 48.6412 197.239 48.6412 197.728ZM54.9693 201V194.455H55.975V201H54.9693ZM55.4806 193.364C55.2846 193.364 55.1156 193.297 54.9735 193.164C54.8343 193.03 54.7647 192.87 54.7647 192.682C54.7647 192.495 54.8343 192.334 54.9735 192.201C55.1156 192.067 55.2846 192 55.4806 192C55.6767 192 55.8443 192.067 55.9835 192.201C56.1255 192.334 56.1966 192.495 56.1966 192.682C56.1966 192.87 56.1255 193.03 55.9835 193.164C55.8443 193.297 55.6767 193.364 55.4806 193.364ZM58.8226 192.273V201H57.8169V192.273H58.8226ZM63.4089 201.137C62.7782 201.137 62.2342 200.997 61.7768 200.719C61.3223 200.438 60.9714 200.046 60.7243 199.543C60.4799 199.037 60.3578 198.449 60.3578 197.779C60.3578 197.108 60.4799 196.517 60.7243 196.006C60.9714 195.492 61.3152 195.091 61.7555 194.804C62.1987 194.514 62.7157 194.37 63.3066 194.37C63.6475 194.37 63.9842 194.426 64.3166 194.54C64.649 194.654 64.9515 194.838 65.2243 195.094C65.497 195.347 65.7143 195.682 65.8762 196.1C66.0382 196.517 66.1191 197.031 66.1191 197.642V198.068H61.0737V197.199H65.0964C65.0964 196.83 65.0225 196.5 64.8748 196.21C64.7299 195.921 64.5225 195.692 64.2527 195.524C63.9856 195.357 63.6703 195.273 63.3066 195.273C62.9061 195.273 62.5595 195.372 62.2669 195.571C61.9771 195.767 61.7541 196.023 61.5978 196.338C61.4416 196.654 61.3635 196.992 61.3635 197.353V197.932C61.3635 198.426 61.4487 198.845 61.6191 199.189C61.7924 199.53 62.0325 199.79 62.3393 199.969C62.6461 200.145 63.0027 200.233 63.4089 200.233C63.6731 200.233 63.9118 200.196 64.1248 200.122C64.3407 200.046 64.5268 199.932 64.6831 199.781C64.8393 199.628 64.96 199.438 65.0453 199.21L66.0169 199.483C65.9146 199.813 65.7427 200.103 65.5012 200.353C65.2598 200.6 64.9615 200.793 64.6064 200.932C64.2512 201.068 63.8521 201.137 63.4089 201.137Z" fill="#49474D"/>
<path d="M70.8125 261.559C70.0634 261.559 69.4254 261.356 68.8984 260.948C68.3714 260.537 67.9688 259.942 67.6903 259.163C67.4119 258.381 67.2727 257.436 67.2727 256.329C67.2727 255.229 67.4119 254.289 67.6903 253.51C67.9721 252.728 68.3764 252.132 68.9034 251.721C69.4337 251.306 70.0701 251.099 70.8125 251.099C71.5549 251.099 72.1896 251.306 72.7166 251.721C73.2469 252.132 73.6513 252.728 73.9297 253.51C74.2114 254.289 74.3523 255.229 74.3523 256.329C74.3523 257.436 74.2131 258.381 73.9347 259.163C73.6562 259.942 73.2536 260.537 72.7266 260.948C72.1996 261.356 71.5616 261.559 70.8125 261.559ZM70.8125 260.466C71.5549 260.466 72.1316 260.108 72.5426 259.392C72.9536 258.676 73.1591 257.655 73.1591 256.329C73.1591 255.448 73.0646 254.697 72.8757 254.077C72.6901 253.457 72.4216 252.985 72.0703 252.66C71.7223 252.335 71.303 252.173 70.8125 252.173C70.0767 252.173 69.5017 252.536 69.0874 253.262C68.6731 253.984 68.4659 255.007 68.4659 256.329C68.4659 257.211 68.5587 257.96 68.7443 258.576C68.9299 259.193 69.1967 259.662 69.5447 259.983C69.8961 260.305 70.3187 260.466 70.8125 260.466ZM81.4318 259.511V258.974C81.4318 258.603 81.508 258.263 81.6605 257.955C81.8163 257.643 82.0417 257.395 82.3366 257.209C82.6349 257.02 82.9962 256.926 83.4205 256.926C83.8513 256.926 84.2126 257.02 84.5043 257.209C84.7959 257.395 85.0163 257.643 85.1655 257.955C85.3146 258.263 85.3892 258.603 85.3892 258.974V259.511C85.3892 259.882 85.313 260.224 85.1605 260.535C85.0114 260.843 84.7893 261.092 84.4943 261.281C84.2027 261.467 83.8447 261.559 83.4205 261.559C82.9896 261.559 82.6267 261.467 82.3317 261.281C82.0367 261.092 81.813 260.843 81.6605 260.535C81.508 260.224 81.4318 259.882 81.4318 259.511ZM82.446 258.974V259.511C82.446 259.819 82.5189 260.096 82.6648 260.341C82.8106 260.583 83.0625 260.704 83.4205 260.704C83.7685 260.704 84.0137 260.583 84.1562 260.341C84.3021 260.096 84.375 259.819 84.375 259.511V258.974C84.375 258.666 84.3054 258.391 84.1662 258.149C84.027 257.904 83.7784 257.781 83.4205 257.781C83.0724 257.781 82.8222 257.904 82.6697 258.149C82.5206 258.391 82.446 258.666 82.446 258.974ZM76.3608 253.684V253.147C76.3608 252.776 76.437 252.437 76.5895 252.128C76.7453 251.817 76.9706 251.568 77.2656 251.383C77.5639 251.194 77.9252 251.099 78.3494 251.099C78.7803 251.099 79.1416 251.194 79.4332 251.383C79.7249 251.568 79.9453 251.817 80.0945 252.128C80.2436 252.437 80.3182 252.776 80.3182 253.147V253.684C80.3182 254.056 80.242 254.397 80.0895 254.709C79.9403 255.017 79.7183 255.265 79.4233 255.454C79.1316 255.64 78.7737 255.733 78.3494 255.733C77.9186 255.733 77.5556 255.64 77.2607 255.454C76.9657 255.265 76.742 255.017 76.5895 254.709C76.437 254.397 76.3608 254.056 76.3608 253.684ZM77.375 253.147V253.684C77.375 253.993 77.4479 254.269 77.5938 254.515C77.7396 254.757 77.9915 254.878 78.3494 254.878C78.6974 254.878 78.9427 254.757 79.0852 254.515C79.2311 254.269 79.304 253.993 79.304 253.684V253.147C79.304 252.839 79.2344 252.564 79.0952 252.322C78.956 252.077 78.7074 251.954 78.3494 251.954C78.0014 251.954 77.7512 252.077 77.5987 252.322C77.4496 252.564 77.375 252.839 77.375 253.147ZM76.7386 261.42L83.7386 251.238H84.8722L77.8722 261.42H76.7386Z" fill="#C1C0C2"/>
<path d="M162.29 261.559C161.706 261.559 161.181 261.443 160.714 261.211C160.246 260.979 159.872 260.661 159.59 260.257C159.308 259.852 159.154 259.392 159.128 258.875H160.321C160.367 259.335 160.576 259.717 160.947 260.018C161.322 260.316 161.769 260.466 162.29 260.466C162.707 260.466 163.078 260.368 163.403 260.172C163.731 259.977 163.988 259.708 164.174 259.367C164.363 259.022 164.457 258.633 164.457 258.199C164.457 257.754 164.359 257.358 164.164 257.01C163.972 256.659 163.706 256.382 163.368 256.18C163.03 255.978 162.644 255.875 162.21 255.872C161.898 255.869 161.579 255.917 161.25 256.016C160.922 256.112 160.652 256.236 160.44 256.389L159.287 256.25L159.903 251.238H165.193V252.332H160.937L160.579 255.335H160.639C160.848 255.169 161.11 255.032 161.424 254.922C161.739 254.813 162.067 254.758 162.409 254.758C163.032 254.758 163.587 254.907 164.074 255.206C164.565 255.501 164.949 255.905 165.228 256.419C165.509 256.932 165.65 257.519 165.65 258.179C165.65 258.828 165.504 259.408 165.213 259.919C164.924 260.426 164.527 260.827 164.02 261.122C163.513 261.414 162.936 261.559 162.29 261.559ZM172.816 259.511V258.974C172.816 258.603 172.892 258.263 173.044 257.955C173.2 257.643 173.425 257.395 173.72 257.209C174.019 257.02 174.38 256.926 174.804 256.926C175.235 256.926 175.596 257.02 175.888 257.209C176.18 257.395 176.4 257.643 176.549 257.955C176.698 258.263 176.773 258.603 176.773 258.974V259.511C176.773 259.882 176.697 260.224 176.544 260.535C176.395 260.843 176.173 261.092 175.878 261.281C175.586 261.467 175.228 261.559 174.804 261.559C174.373 261.559 174.01 261.467 173.715 261.281C173.42 261.092 173.197 260.843 173.044 260.535C172.892 260.224 172.816 259.882 172.816 259.511ZM173.83 258.974V259.511C173.83 259.819 173.903 260.096 174.049 260.341C174.194 260.583 174.446 260.704 174.804 260.704C175.152 260.704 175.398 260.583 175.54 260.341C175.686 260.096 175.759 259.819 175.759 259.511V258.974C175.759 258.666 175.689 258.391 175.55 258.149C175.411 257.904 175.162 257.781 174.804 257.781C174.456 257.781 174.206 257.904 174.054 258.149C173.904 258.391 173.83 258.666 173.83 258.974ZM167.745 253.684V253.147C167.745 252.776 167.821 252.437 167.973 252.128C168.129 251.817 168.354 251.568 168.649 251.383C168.948 251.194 169.309 251.099 169.733 251.099C170.164 251.099 170.525 251.194 170.817 251.383C171.109 251.568 171.329 251.817 171.478 252.128C171.627 252.437 171.702 252.776 171.702 253.147V253.684C171.702 254.056 171.626 254.397 171.473 254.709C171.324 255.017 171.102 255.265 170.807 255.454C170.515 255.64 170.157 255.733 169.733 255.733C169.302 255.733 168.939 255.64 168.644 255.454C168.349 255.265 168.126 255.017 167.973 254.709C167.821 254.397 167.745 254.056 167.745 253.684ZM168.759 253.147V253.684C168.759 253.993 168.832 254.269 168.978 254.515C169.123 254.757 169.375 254.878 169.733 254.878C170.081 254.878 170.326 254.757 170.469 254.515C170.615 254.269 170.688 253.993 170.688 253.684V253.147C170.688 252.839 170.618 252.564 170.479 252.322C170.34 252.077 170.091 251.954 169.733 251.954C169.385 251.954 169.135 252.077 168.983 252.322C168.833 252.564 168.759 252.839 168.759 253.147ZM168.122 261.42L175.122 251.238H176.256L169.256 261.42H168.122Z" fill="#C1C0C2"/>
<path d="M250.817 251.238V261.42H249.584V252.531H249.525L247.039 254.182V252.929L249.584 251.238H250.817ZM257.066 261.559C256.317 261.559 255.679 261.356 255.152 260.948C254.625 260.537 254.223 259.942 253.944 259.163C253.666 258.381 253.527 257.436 253.527 256.329C253.527 255.229 253.666 254.289 253.944 253.51C254.226 252.728 254.63 252.132 255.157 251.721C255.688 251.306 256.324 251.099 257.066 251.099C257.809 251.099 258.444 251.306 258.971 251.721C259.501 252.132 259.905 252.728 260.184 253.51C260.465 254.289 260.606 255.229 260.606 256.329C260.606 257.436 260.467 258.381 260.189 259.163C259.91 259.942 259.507 260.537 258.98 260.948C258.453 261.356 257.815 261.559 257.066 261.559ZM257.066 260.466C257.809 260.466 258.386 260.108 258.797 259.392C259.208 258.676 259.413 257.655 259.413 256.329C259.413 255.448 259.319 254.697 259.13 254.077C258.944 253.457 258.676 252.985 258.324 252.66C257.976 252.335 257.557 252.173 257.066 252.173C256.331 252.173 255.756 252.536 255.341 253.262C254.927 253.984 254.72 255.007 254.72 256.329C254.72 257.211 254.813 257.96 254.998 258.576C255.184 259.193 255.451 259.662 255.799 259.983C256.15 260.305 256.573 260.466 257.066 260.466ZM267.686 259.511V258.974C267.686 258.603 267.762 258.263 267.914 257.955C268.07 257.643 268.296 257.395 268.591 257.209C268.889 257.02 269.25 256.926 269.674 256.926C270.105 256.926 270.467 257.02 270.758 257.209C271.05 257.395 271.27 257.643 271.419 257.955C271.569 258.263 271.643 258.603 271.643 258.974V259.511C271.643 259.882 271.567 260.224 271.414 260.535C271.265 260.843 271.043 261.092 270.748 261.281C270.457 261.467 270.099 261.559 269.674 261.559C269.243 261.559 268.881 261.467 268.586 261.281C268.291 261.092 268.067 260.843 267.914 260.535C267.762 260.224 267.686 259.882 267.686 259.511ZM268.7 258.974V259.511C268.7 259.819 268.773 260.096 268.919 260.341C269.065 260.583 269.316 260.704 269.674 260.704C270.022 260.704 270.268 260.583 270.41 260.341C270.556 260.096 270.629 259.819 270.629 259.511V258.974C270.629 258.666 270.559 258.391 270.42 258.149C270.281 257.904 270.032 257.781 269.674 257.781C269.326 257.781 269.076 257.904 268.924 258.149C268.775 258.391 268.7 258.666 268.7 258.974ZM262.615 253.684V253.147C262.615 252.776 262.691 252.437 262.843 252.128C262.999 251.817 263.225 251.568 263.52 251.383C263.818 251.194 264.179 251.099 264.603 251.099C265.034 251.099 265.395 251.194 265.687 251.383C265.979 251.568 266.199 251.817 266.348 252.128C266.498 252.437 266.572 252.776 266.572 253.147V253.684C266.572 254.056 266.496 254.397 266.343 254.709C266.194 255.017 265.972 255.265 265.677 255.454C265.386 255.64 265.028 255.733 264.603 255.733C264.172 255.733 263.81 255.64 263.515 255.454C263.22 255.265 262.996 255.017 262.843 254.709C262.691 254.397 262.615 254.056 262.615 253.684ZM263.629 253.147V253.684C263.629 253.993 263.702 254.269 263.848 254.515C263.993 254.757 264.245 254.878 264.603 254.878C264.951 254.878 265.197 254.757 265.339 254.515C265.485 254.269 265.558 253.993 265.558 253.684V253.147C265.558 252.839 265.488 252.564 265.349 252.322C265.21 252.077 264.961 251.954 264.603 251.954C264.255 251.954 264.005 252.077 263.853 252.322C263.703 252.564 263.629 252.839 263.629 253.147ZM262.993 261.42L269.993 251.238H271.126L264.126 261.42H262.993Z" fill="#C1C0C2"/>
<path d="M344.933 251.238V261.42H343.7V252.531H343.641L341.155 254.182V252.929L343.7 251.238H344.933ZM351.043 261.559C350.46 261.559 349.935 261.443 349.467 261.211C349 260.979 348.626 260.661 348.344 260.257C348.062 259.852 347.908 259.392 347.881 258.875H349.075C349.121 259.335 349.33 259.717 349.701 260.018C350.076 260.316 350.523 260.466 351.043 260.466C351.461 260.466 351.832 260.368 352.157 260.172C352.485 259.977 352.742 259.708 352.928 259.367C353.117 259.022 353.211 258.633 353.211 258.199C353.211 257.754 353.113 257.358 352.918 257.01C352.725 256.659 352.46 256.382 352.122 256.18C351.784 255.978 351.398 255.875 350.964 255.872C350.652 255.869 350.332 255.917 350.004 256.016C349.676 256.112 349.406 256.236 349.194 256.389L348.041 256.25L348.657 251.238H353.947V252.332H349.691L349.333 255.335H349.393C349.602 255.169 349.863 255.032 350.178 254.922C350.493 254.813 350.821 254.758 351.163 254.758C351.786 254.758 352.341 254.907 352.828 255.206C353.319 255.501 353.703 255.905 353.982 256.419C354.263 256.932 354.404 257.519 354.404 258.179C354.404 258.828 354.258 259.408 353.967 259.919C353.678 260.426 353.281 260.827 352.774 261.122C352.266 261.414 351.69 261.559 351.043 261.559ZM361.57 259.511V258.974C361.57 258.603 361.646 258.263 361.798 257.955C361.954 257.643 362.179 257.395 362.474 257.209C362.773 257.02 363.134 256.926 363.558 256.926C363.989 256.926 364.35 257.02 364.642 257.209C364.934 257.395 365.154 257.643 365.303 257.955C365.452 258.263 365.527 258.603 365.527 258.974V259.511C365.527 259.882 365.451 260.224 365.298 260.535C365.149 260.843 364.927 261.092 364.632 261.281C364.34 261.467 363.982 261.559 363.558 261.559C363.127 261.559 362.764 261.467 362.469 261.281C362.174 261.092 361.951 260.843 361.798 260.535C361.646 260.224 361.57 259.882 361.57 259.511ZM362.584 258.974V259.511C362.584 259.819 362.657 260.096 362.802 260.341C362.948 260.583 363.2 260.704 363.558 260.704C363.906 260.704 364.151 260.583 364.294 260.341C364.44 260.096 364.513 259.819 364.513 259.511V258.974C364.513 258.666 364.443 258.391 364.304 258.149C364.165 257.904 363.916 257.781 363.558 257.781C363.21 257.781 362.96 257.904 362.807 258.149C362.658 258.391 362.584 258.666 362.584 258.974ZM356.498 253.684V253.147C356.498 252.776 356.575 252.437 356.727 252.128C356.883 251.817 357.108 251.568 357.403 251.383C357.702 251.194 358.063 251.099 358.487 251.099C358.918 251.099 359.279 251.194 359.571 251.383C359.863 251.568 360.083 251.817 360.232 252.128C360.381 252.437 360.456 252.776 360.456 253.147V253.684C360.456 254.056 360.38 254.397 360.227 254.709C360.078 255.017 359.856 255.265 359.561 255.454C359.269 255.64 358.911 255.733 358.487 255.733C358.056 255.733 357.693 255.64 357.398 255.454C357.103 255.265 356.88 255.017 356.727 254.709C356.575 254.397 356.498 254.056 356.498 253.684ZM357.513 253.147V253.684C357.513 253.993 357.586 254.269 357.731 254.515C357.877 254.757 358.129 254.878 358.487 254.878C358.835 254.878 359.08 254.757 359.223 254.515C359.369 254.269 359.442 253.993 359.442 253.684V253.147C359.442 252.839 359.372 252.564 359.233 252.322C359.094 252.077 358.845 251.954 358.487 251.954C358.139 251.954 357.889 252.077 357.736 252.322C357.587 252.564 357.513 252.839 357.513 253.147ZM356.876 261.42L363.876 251.238H365.01L358.01 261.42H356.876Z" fill="#C1C0C2"/>
<rect x="1" y="1.00024" width="396" height="284" rx="10" stroke="#DAD9DA"/>
<path d="M33.0611 32.6842C32.5391 29.8942 30.3071 28.4722 27.6791 28.4722C23.9891 28.4722 21.7391 30.9382 21.7391 34.8982C21.7391 38.8582 23.9891 41.2882 27.6431 41.2882C30.2531 41.2882 32.4311 39.8662 33.0611 37.1662H30.0011C29.6591 38.3182 28.7591 38.9302 27.6071 38.9302C25.7351 38.9302 24.6911 37.4362 24.6911 34.8982C24.6911 32.3782 25.7531 30.8302 27.6071 30.8302C28.8311 30.8302 29.6951 31.4782 30.0371 32.6842H33.0611ZM34.5239 41.0002H37.2779V35.4382C37.2779 34.1962 37.9799 33.2422 39.0779 33.2422C40.0859 33.2422 40.5719 33.8722 40.5719 35.0962V41.0002H43.3259V34.5382C43.3259 32.1442 41.9399 31.0102 40.0859 31.0102C38.8979 31.0102 37.9079 31.5142 37.2779 32.5942V28.0402H34.5239V41.0002ZM47.8938 34.5202C48.0198 33.7642 48.5238 33.2422 49.4598 33.2422C50.5218 33.2422 51.0438 33.8002 51.0438 34.8622V35.0782C49.5498 35.0962 48.3438 35.2222 47.0838 35.6362C45.5538 36.1762 44.7978 37.1842 44.7978 38.4982C44.7978 40.3522 46.1658 41.2882 48.0018 41.2882C49.1538 41.2882 50.3058 40.8382 51.0618 39.7942C51.0798 40.2622 51.1338 40.6762 51.2238 41.0002H54.0678C53.9058 40.4962 53.7978 39.8482 53.7978 38.5882V34.8802C53.7978 32.6302 52.3578 31.0102 49.5858 31.0102C47.1018 31.0102 45.4278 32.3422 45.1398 34.5202H47.8938ZM47.5518 38.3182C47.5518 37.4182 48.2538 36.7342 51.0438 36.6802V37.0582C51.0438 38.3902 50.0718 39.3802 48.8478 39.3802C48.0378 39.3802 47.5518 38.9662 47.5518 38.3182ZM55.7583 41.0002H58.5123V35.4382C58.5123 34.1962 59.2143 33.2422 60.3123 33.2422C61.3203 33.2422 61.8063 33.8722 61.8063 35.0962V41.0002H64.5603V34.5382C64.5603 32.1442 63.1743 31.0102 61.3203 31.0102C60.1323 31.0102 59.1423 31.5142 58.5123 32.5942V31.3162H55.7583V41.0002ZM66.4282 41.0002H69.1822V35.4382C69.1822 34.1962 69.8842 33.2422 70.9822 33.2422C71.9902 33.2422 72.4762 33.8722 72.4762 35.0962V41.0002H75.2302V34.5382C75.2302 32.1442 73.8442 31.0102 71.9902 31.0102C70.8022 31.0102 69.8122 31.5142 69.1822 32.5942V31.3162H66.4282V41.0002ZM86.2241 37.8142H83.3441C83.0561 38.6962 82.4441 39.0922 81.5441 39.0922C80.3561 39.0922 79.6361 38.2642 79.4921 36.7162H86.1521V36.1042C86.1521 32.9362 84.3341 31.0102 81.4361 31.0102C78.5561 31.0102 76.6841 32.8642 76.6841 36.1582C76.6841 39.3442 78.5381 41.2882 81.5441 41.2882C83.9201 41.2882 85.7201 40.0462 86.2241 37.8142ZM81.4361 33.2062C82.4441 33.2062 83.0921 33.8722 83.3081 35.1322H79.5461C79.7621 33.8722 80.4101 33.2062 81.4361 33.2062ZM87.6626 41.0002H90.4166V28.0402H87.6626V41.0002ZM98.3606 31.9102C98.3606 31.1902 98.9906 30.7222 99.9986 30.7222C101.187 30.7222 101.889 31.2982 102.141 32.5042H105.219C104.841 29.6782 102.645 28.4722 100.107 28.4722C97.1006 28.4722 95.3906 30.1282 95.3906 32.1802C95.3906 37.0222 102.609 34.9342 102.609 37.6702C102.609 38.5162 101.925 39.0382 100.629 39.0382C99.3326 39.0382 98.4866 38.3722 98.2526 37.1662H95.2106C95.6426 39.9562 97.7126 41.2882 100.611 41.2882C103.473 41.2882 105.561 39.8302 105.561 37.3102C105.561 32.3062 98.3606 34.5202 98.3606 31.9102ZM111.319 41.2882C114.199 41.2882 116.089 39.4342 116.089 36.1582C116.089 32.9902 114.253 31.0102 111.319 31.0102C108.439 31.0102 106.567 32.8642 106.567 36.1582C106.567 39.3442 108.385 41.2882 111.319 41.2882ZM111.319 39.0562C110.077 39.0562 109.393 38.0302 109.393 36.1582C109.393 34.2682 110.059 33.2422 111.319 33.2422C112.579 33.2422 113.263 34.2862 113.263 36.1582C113.263 38.0482 112.597 39.0562 111.319 39.0562ZM123.485 36.8782C123.485 38.1202 122.801 39.0562 121.739 39.0562C120.767 39.0562 120.299 38.4442 120.299 37.2022V31.3162H117.545V37.7602C117.545 40.1722 118.895 41.2882 120.731 41.2882C121.901 41.2882 122.855 40.7842 123.485 39.7042V41.0002H126.239V31.3162H123.485V36.8782ZM128.11 41.0002H130.864V35.9962C130.864 34.4662 131.602 33.5302 133.258 33.5302C133.69 33.5302 134.032 33.5662 134.356 33.6382V31.3162C134.158 31.1182 133.798 31.0102 133.402 31.0102C132.412 31.0102 131.476 31.5142 130.864 32.6662V31.3162H128.11V41.0002ZM143.922 34.8082C143.58 32.2702 141.798 31.0102 139.548 31.0102C136.704 31.0102 134.868 32.8642 134.868 36.1582C134.868 39.3262 136.668 41.2882 139.566 41.2882C141.816 41.2882 143.562 40.1182 143.976 37.6882H141.222C141.024 38.5882 140.448 39.0562 139.62 39.0562C138.36 39.0562 137.694 38.0302 137.694 36.1582C137.694 34.2682 138.324 33.2422 139.548 33.2422C140.34 33.2422 140.988 33.6742 141.168 34.8082H143.922ZM154.498 37.8142H151.618C151.33 38.6962 150.718 39.0922 149.818 39.0922C148.63 39.0922 147.91 38.2642 147.766 36.7162H154.426V36.1042C154.426 32.9362 152.608 31.0102 149.71 31.0102C146.83 31.0102 144.958 32.8642 144.958 36.1582C144.958 39.3442 146.812 41.2882 149.818 41.2882C152.194 41.2882 153.994 40.0462 154.498 37.8142ZM149.71 33.2062C150.718 33.2062 151.366 33.8722 151.582 35.1322H147.82C148.036 33.8722 148.684 33.2062 149.71 33.2062Z" fill="#2B2930"/>
</svg>
