<svg width="30" height="31" viewBox="0 0 30 31" fill="none" xmlns="http://www.w3.org/2000/svg">
<path d="M15.6248 23.2083H20.8332L19.3697 21.7449C18.9728 21.348 18.7498 20.8097 18.7498 20.2484V16.9583C18.7498 14.237 17.0107 11.922 14.5832 11.064V10.7083C14.5832 9.55774 13.6504 8.625 12.4998 8.625C11.3492 8.625 10.4165 9.55774 10.4165 10.7083V11.064C7.98902 11.922 6.24984 14.237 6.24984 16.9583V20.2484C6.24984 20.8097 6.02687 21.348 5.62998 21.7449L4.1665 23.2083H9.37484M15.6248 23.2083V24.25C15.6248 25.9759 14.2257 27.375 12.4998 27.375C10.7739 27.375 9.37484 25.9759 9.37484 24.25V23.2083M15.6248 23.2083H9.37484" stroke="#49474D" stroke-width="1.2" stroke-linecap="round" stroke-linejoin="round"/>
<circle cx="21.5" cy="9.5" r="8" fill="#ED5556" stroke="white"/>
<path d="M21.5594 13V11.196H17.7974V9.942L21.4714 4.805H23.0334V9.942H24.2324V11.196H23.0334V13H21.5594ZM18.8974 10.481L18.6334 9.942H21.5594V5.982L21.9444 6.103L18.8974 10.481Z" fill="white"/>
</svg>
