<svg width="16" height="16" viewBox="0 0 16 16" fill="none" xmlns="http://www.w3.org/2000/svg">
<path opacity="0.4" d="M9.5 13.2667V2.73337C9.5 2.28995 9.5966 2.10894 9.68844 2.02255C9.78794 1.92894 10.0002 1.83337 10.4867 1.83337H13.18C13.6665 1.83337 13.8787 1.92894 13.9782 2.02255C14.0701 2.10894 14.1667 2.28995 14.1667 2.73337V13.2667C14.1667 13.7101 14.0701 13.8911 13.9782 13.9775C13.8787 14.0711 13.6665 14.1667 13.18 14.1667H10.4867C10.0002 14.1667 9.78794 14.0711 9.68844 13.9775C9.5966 13.8911 9.5 13.7101 9.5 13.2667Z" fill="#7738DD" stroke="#7738DD"/>
<path d="M1.83337 13.2667V2.73337C1.83337 2.28995 1.92997 2.10894 2.02181 2.02255C2.12132 1.92894 2.33358 1.83337 2.82004 1.83337H5.51337C5.99983 1.83337 6.2121 1.92894 6.3116 2.02255C6.40344 2.10894 6.50004 2.28995 6.50004 2.73337V13.2667C6.50004 13.7101 6.40344 13.8911 6.3116 13.9775C6.2121 14.0711 5.99983 14.1667 5.51337 14.1667H2.82004C2.33358 14.1667 2.12132 14.0711 2.02181 13.9775C1.92997 13.8911 1.83337 13.7101 1.83337 13.2667Z" fill="#7738DD" stroke="#7738DD"/>
</svg>
