<svg width="396" height="359" viewBox="0 0 396 359" fill="none" xmlns="http://www.w3.org/2000/svg">
<rect x="0.5" y="0.500244" width="395" height="542" rx="7.5" stroke="#DAD9DA"/>
<path d="M24.605 34.811H27.503V24.929H31.301V22.571H20.807V24.929H24.605V34.811ZM35.5982 35.099C38.4782 35.099 40.3682 33.245 40.3682 29.969C40.3682 26.801 38.5322 24.821 35.5982 24.821C32.7182 24.821 30.8462 26.675 30.8462 29.969C30.8462 33.155 32.6642 35.099 35.5982 35.099ZM35.5982 32.867C34.3562 32.867 33.6722 31.841 33.6722 29.969C33.6722 28.079 34.3382 27.053 35.5982 27.053C36.8582 27.053 37.5422 28.097 37.5422 29.969C37.5422 31.859 36.8762 32.867 35.5982 32.867ZM44.5787 38.789V33.839C45.1547 34.667 45.9827 35.099 47.0087 35.099C49.4747 35.099 51.0767 33.245 51.0767 29.951C51.0767 26.783 49.5107 24.821 47.0087 24.821C46.0007 24.821 45.1727 25.289 44.5787 26.135V25.127H41.8247V38.789H44.5787ZM46.4327 27.053C47.6027 27.053 48.2507 28.079 48.2507 29.951C48.2507 31.841 47.6207 32.867 46.4327 32.867C45.2267 32.867 44.5787 31.823 44.5787 29.951C44.5787 28.079 45.2087 27.053 46.4327 27.053ZM58.8648 34.811H61.7628V24.929H65.5608V22.571H55.0668V24.929H58.8648V34.811ZM66.2407 34.811H68.9947V29.807C68.9947 28.277 69.7327 27.341 71.3887 27.341C71.8207 27.341 72.1627 27.377 72.4867 27.449V25.127C72.2887 24.929 71.9287 24.821 71.5327 24.821C70.5427 24.821 69.6067 25.325 68.9947 26.477V25.127H66.2407V34.811ZM76.218 28.331C76.344 27.575 76.848 27.053 77.784 27.053C78.846 27.053 79.368 27.611 79.368 28.673V28.889C77.874 28.907 76.668 29.033 75.408 29.447C73.878 29.987 73.122 30.995 73.122 32.309C73.122 34.163 74.49 35.099 76.326 35.099C77.478 35.099 78.63 34.649 79.386 33.605C79.404 34.073 79.458 34.487 79.548 34.811H82.392C82.23 34.307 82.122 33.659 82.122 32.399V28.691C82.122 26.441 80.682 24.821 77.91 24.821C75.426 24.821 73.752 26.153 73.464 28.331H76.218ZM75.876 32.129C75.876 31.229 76.578 30.545 79.368 30.491V30.869C79.368 32.201 78.396 33.191 77.172 33.191C76.362 33.191 75.876 32.777 75.876 32.129ZM84.0825 34.811H86.8365V29.249C86.8365 28.007 87.5385 27.053 88.6365 27.053C89.6445 27.053 90.1305 27.683 90.1305 28.907V34.811H92.8845V28.349C92.8845 25.955 91.4985 24.821 89.6445 24.821C88.4565 24.821 87.4665 25.325 86.8365 26.405V25.127H84.0825V34.811ZM97.1464 27.809C97.1464 27.287 97.6144 26.927 98.3344 26.927C99.3064 26.927 99.8824 27.341 100.044 28.331H102.78C102.51 25.883 100.746 24.821 98.4244 24.821C95.8324 24.821 94.5184 26.333 94.5184 27.953C94.5184 31.841 100.386 30.167 100.386 32.039C100.386 32.633 99.9004 33.011 98.9284 33.011C97.9024 33.011 97.1644 32.525 97.0384 31.625H94.2844C94.6444 34.019 96.4084 35.099 98.8564 35.099C101.376 35.099 103.14 33.785 103.14 31.877C103.14 28.043 97.1464 29.717 97.1464 27.809ZM107.226 28.331C107.352 27.575 107.856 27.053 108.792 27.053C109.854 27.053 110.376 27.611 110.376 28.673V28.889C108.882 28.907 107.676 29.033 106.416 29.447C104.886 29.987 104.13 30.995 104.13 32.309C104.13 34.163 105.498 35.099 107.334 35.099C108.486 35.099 109.638 34.649 110.394 33.605C110.412 34.073 110.466 34.487 110.556 34.811H113.4C113.238 34.307 113.13 33.659 113.13 32.399V28.691C113.13 26.441 111.69 24.821 108.918 24.821C106.434 24.821 104.76 26.153 104.472 28.331H107.226ZM106.884 32.129C106.884 31.229 107.586 30.545 110.376 30.491V30.869C110.376 32.201 109.404 33.191 108.18 33.191C107.37 33.191 106.884 32.777 106.884 32.129ZM123.73 28.619C123.388 26.081 121.606 24.821 119.356 24.821C116.512 24.821 114.676 26.675 114.676 29.969C114.676 33.137 116.476 35.099 119.374 35.099C121.624 35.099 123.37 33.929 123.784 31.499H121.03C120.832 32.399 120.256 32.867 119.428 32.867C118.168 32.867 117.502 31.841 117.502 29.969C117.502 28.079 118.132 27.053 119.356 27.053C120.148 27.053 120.796 27.485 120.976 28.619H123.73ZM125.54 31.661C125.54 33.911 126.53 35.099 128.6 35.099C129.338 35.099 129.95 34.991 130.256 34.847V32.777H129.734C128.546 32.777 128.294 32.255 128.294 31.319V27.215H130.274V25.127H128.294V22.877H125.54V25.127H124.352V27.215H125.54V31.661ZM131.508 24.155H134.262V21.851H131.508V24.155ZM131.508 34.811H134.262V25.127H131.508V34.811ZM140.452 35.099C143.332 35.099 145.222 33.245 145.222 29.969C145.222 26.801 143.386 24.821 140.452 24.821C137.572 24.821 135.7 26.675 135.7 29.969C135.7 33.155 137.518 35.099 140.452 35.099ZM140.452 32.867C139.21 32.867 138.526 31.841 138.526 29.969C138.526 28.079 139.192 27.053 140.452 27.053C141.712 27.053 142.396 28.097 142.396 29.969C142.396 31.859 141.73 32.867 140.452 32.867ZM146.678 34.811H149.432V29.249C149.432 28.007 150.134 27.053 151.232 27.053C152.24 27.053 152.726 27.683 152.726 28.907V34.811H155.48V28.349C155.48 25.955 154.094 24.821 152.24 24.821C151.052 24.821 150.062 25.325 149.432 26.405V25.127H146.678V34.811ZM160.903 34.811H169.165V32.471H163.783V22.571H160.903V34.811ZM174.887 35.099C177.767 35.099 179.657 33.245 179.657 29.969C179.657 26.801 177.821 24.821 174.887 24.821C172.007 24.821 170.135 26.675 170.135 29.969C170.135 33.155 171.953 35.099 174.887 35.099ZM174.887 32.867C173.645 32.867 172.961 31.841 172.961 29.969C172.961 28.079 173.627 27.053 174.887 27.053C176.147 27.053 176.831 28.097 176.831 29.969C176.831 31.859 176.165 32.867 174.887 32.867ZM189.754 28.619C189.412 26.081 187.63 24.821 185.38 24.821C182.536 24.821 180.7 26.675 180.7 29.969C180.7 33.137 182.5 35.099 185.398 35.099C187.648 35.099 189.394 33.929 189.808 31.499H187.054C186.856 32.399 186.28 32.867 185.452 32.867C184.192 32.867 183.526 31.841 183.526 29.969C183.526 28.079 184.156 27.053 185.38 27.053C186.172 27.053 186.82 27.485 187 28.619H189.754ZM193.904 28.331C194.03 27.575 194.534 27.053 195.47 27.053C196.532 27.053 197.054 27.611 197.054 28.673V28.889C195.56 28.907 194.354 29.033 193.094 29.447C191.564 29.987 190.808 30.995 190.808 32.309C190.808 34.163 192.176 35.099 194.012 35.099C195.164 35.099 196.316 34.649 197.072 33.605C197.09 34.073 197.144 34.487 197.234 34.811H200.078C199.916 34.307 199.808 33.659 199.808 32.399V28.691C199.808 26.441 198.368 24.821 195.596 24.821C193.112 24.821 191.438 26.153 191.15 28.331H193.904ZM193.562 32.129C193.562 31.229 194.264 30.545 197.054 30.491V30.869C197.054 32.201 196.082 33.191 194.858 33.191C194.048 33.191 193.562 32.777 193.562 32.129ZM202.128 31.661C202.128 33.911 203.118 35.099 205.188 35.099C205.926 35.099 206.538 34.991 206.844 34.847V32.777H206.322C205.134 32.777 204.882 32.255 204.882 31.319V27.215H206.862V25.127H204.882V22.877H202.128V25.127H200.94V27.215H202.128V31.661ZM208.096 24.155H210.85V21.851H208.096V24.155ZM208.096 34.811H210.85V25.127H208.096V34.811ZM217.04 35.099C219.92 35.099 221.81 33.245 221.81 29.969C221.81 26.801 219.974 24.821 217.04 24.821C214.16 24.821 212.288 26.675 212.288 29.969C212.288 33.155 214.106 35.099 217.04 35.099ZM217.04 32.867C215.798 32.867 215.114 31.841 215.114 29.969C215.114 28.079 215.78 27.053 217.04 27.053C218.3 27.053 218.984 28.097 218.984 29.969C218.984 31.859 218.318 32.867 217.04 32.867ZM223.266 34.811H226.02V29.249C226.02 28.007 226.722 27.053 227.82 27.053C228.828 27.053 229.314 27.683 229.314 28.907V34.811H232.068V28.349C232.068 25.955 230.682 24.821 228.828 24.821C227.64 24.821 226.65 25.325 226.02 26.405V25.127H223.266V34.811Z" fill="#2B2930"/>
<path d="M53 103L376 103" stroke="#F0F0F0" stroke-dasharray="4 4"/>
<path d="M53 142L376 142" stroke="#F0F0F0" stroke-dasharray="4 4"/>
<path d="M53 181L376 181" stroke="#F0F0F0" stroke-dasharray="4 4"/>
<path d="M53 220L376 220" stroke="#F0F0F0" stroke-dasharray="4 4"/>
<path d="M53 259L376 259" stroke="#F0F0F0" stroke-dasharray="4 4"/>
<path d="M53 298L376 298" stroke="#F0F0F0" stroke-dasharray="4 4"/>
<path d="M108 190C108 185.582 111.582 182 116 182H121C125.418 182 129 185.582 129 190V299H108V190Z" fill="#F5F5F5"/>
<path d="M157 151C157 146.582 160.582 143 165 143H170C174.418 143 178 146.582 178 151V299H157V151Z" fill="#F5F5F5"/>
<path d="M207 127C207 122.582 210.582 119 215 119H220C224.418 119 228 122.582 228 127V299H207V127Z" fill="#7738DD"/>
<path d="M255 229C255 224.582 258.582 221 263 221H268C272.418 221 276 224.582 276 229V299H255V229Z" fill="#F5F5F5"/>
<path d="M304 211C304 206.582 307.582 203 312 203H317C321.418 203 325 206.582 325 211V299H304V211Z" fill="#F5F5F5"/>
<path d="M22.6208 103H26.6768V102.16H25.2008V95.2842H24.2768V95.4282C24.2768 95.7762 24.1208 95.9202 23.4968 95.9202H22.6208V96.7602H24.0968V102.16H22.6208V103ZM31.3349 103.144C33.2069 103.144 34.3349 101.728 34.3349 99.1482C34.3349 96.6282 33.2309 95.1402 31.3349 95.1402C29.4509 95.1402 28.3229 96.5682 28.3229 99.1482C28.3229 101.656 29.4269 103.144 31.3349 103.144ZM31.3349 102.232C30.0989 102.232 29.4029 101.092 29.4029 99.1482C29.4029 97.1442 30.0869 96.0522 31.3349 96.0522C32.5589 96.0522 33.2549 97.1802 33.2549 99.1482C33.2549 101.128 32.5709 102.232 31.3349 102.232ZM38.249 103.144C40.121 103.144 41.249 101.728 41.249 99.1482C41.249 96.6282 40.145 95.1402 38.249 95.1402C36.365 95.1402 35.237 96.5682 35.237 99.1482C35.237 101.656 36.341 103.144 38.249 103.144ZM38.249 102.232C37.013 102.232 36.317 101.092 36.317 99.1482C36.317 97.1442 37.001 96.0522 38.249 96.0522C39.473 96.0522 40.169 97.1802 40.169 99.1482C40.169 101.128 39.485 102.232 38.249 102.232ZM42.547 103H43.603V99.7482L46.471 103H47.815L44.743 99.4722L47.647 96.6282H46.351L43.603 99.3642V94.3602H42.547V103Z" fill="#8F8E91"/>
<path d="M31.3949 142.144C33.1109 142.144 34.2629 141.304 34.2629 139.876C34.2629 139.024 33.7709 138.34 32.9429 137.98C33.6029 137.632 33.9989 137.032 33.9989 136.264C33.9989 134.932 32.9429 134.14 31.3949 134.14C29.8589 134.14 28.8029 134.98 28.8029 136.264C28.8029 137.044 29.1869 137.632 29.8349 137.968C29.0189 138.328 28.5269 138.976 28.5269 139.888C28.5269 141.28 29.6669 142.144 31.3949 142.144ZM31.3949 135.028C32.3429 135.028 32.9669 135.484 32.9669 136.312C32.9669 137.116 32.3189 137.596 31.3949 137.596C30.4589 137.596 29.8349 137.14 29.8349 136.3C29.8349 135.508 30.4709 135.028 31.3949 135.028ZM31.3949 141.256C30.3149 141.256 29.5829 140.716 29.5829 139.84C29.5829 138.904 30.3149 138.388 31.3949 138.388C32.4629 138.388 33.2069 138.916 33.2069 139.828C33.2069 140.74 32.4869 141.256 31.3949 141.256ZM38.249 142.144C40.121 142.144 41.249 140.728 41.249 138.148C41.249 135.628 40.145 134.14 38.249 134.14C36.365 134.14 35.237 135.568 35.237 138.148C35.237 140.656 36.341 142.144 38.249 142.144ZM38.249 141.232C37.013 141.232 36.317 140.092 36.317 138.148C36.317 136.144 37.001 135.052 38.249 135.052C39.473 135.052 40.169 136.18 40.169 138.148C40.169 140.128 39.485 141.232 38.249 141.232ZM42.547 142H43.603V138.748L46.471 142H47.815L44.743 138.472L47.647 135.628H46.351L43.603 138.364V133.36H42.547V142Z" fill="#8F8E91"/>
<path d="M34.3829 178.516C34.3829 176.896 33.2669 175.936 31.6229 175.936C30.6749 175.936 29.8709 176.356 29.4269 177.112C29.4269 175.144 30.1589 174.052 31.5029 174.052C32.3669 174.052 33.0029 174.532 33.2789 175.456H34.3589C33.9869 173.968 32.9789 173.14 31.5389 173.14C29.5949 173.14 28.4429 174.568 28.4429 177.148C28.4429 179.908 29.6909 181.132 31.5149 181.144H31.5269C31.5389 181.144 31.5389 181.144 31.5509 181.144C33.1829 181.144 34.3829 180.16 34.3829 178.516ZM31.5269 180.232C30.4589 180.232 29.7389 179.608 29.7389 178.564C29.7389 177.472 30.4469 176.848 31.5269 176.848C32.5709 176.848 33.3029 177.484 33.3029 178.552C33.3029 179.632 32.5949 180.232 31.5269 180.232ZM38.249 181.144C40.121 181.144 41.249 179.728 41.249 177.148C41.249 174.628 40.145 173.14 38.249 173.14C36.365 173.14 35.237 174.568 35.237 177.148C35.237 179.656 36.341 181.144 38.249 181.144ZM38.249 180.232C37.013 180.232 36.317 179.092 36.317 177.148C36.317 175.144 37.001 174.052 38.249 174.052C39.473 174.052 40.169 175.18 40.169 177.148C40.169 179.128 39.485 180.232 38.249 180.232ZM42.547 181H43.603V177.748L46.471 181H47.815L44.743 177.472L47.647 174.628H46.351L43.603 177.364V172.36H42.547V181Z" fill="#8F8E91"/>
<path d="M33.2429 220V218.188H34.3709V217.348H33.2429V212.284H32.2709L28.4069 217.228V218.188H32.1629V220H33.2429ZM29.4029 217.348L32.1629 213.712V217.348H29.4029ZM38.249 220.144C40.121 220.144 41.249 218.728 41.249 216.148C41.249 213.628 40.145 212.14 38.249 212.14C36.365 212.14 35.237 213.568 35.237 216.148C35.237 218.656 36.341 220.144 38.249 220.144ZM38.249 219.232C37.013 219.232 36.317 218.092 36.317 216.148C36.317 214.144 37.001 213.052 38.249 213.052C39.473 213.052 40.169 214.18 40.169 216.148C40.169 218.128 39.485 219.232 38.249 219.232ZM42.547 220H43.603V216.748L46.471 220H47.815L44.743 216.472L47.647 213.628H46.351L43.603 216.364V211.36H42.547V220Z" fill="#8F8E91"/>
<path d="M28.6229 259H34.0589V258.16H29.7149C30.1589 255.916 33.9749 255.94 33.9749 253.444C33.9749 252.136 33.1109 251.14 31.4309 251.14C29.7869 251.14 28.8149 252.028 28.6109 253.48H29.7029C29.8469 252.592 30.3629 252.052 31.4189 252.052C32.3789 252.052 32.8949 252.58 32.8949 253.456C32.8949 255.532 28.6229 255.244 28.6229 258.712V259ZM38.249 259.144C40.121 259.144 41.249 257.728 41.249 255.148C41.249 252.628 40.145 251.14 38.249 251.14C36.365 251.14 35.237 252.568 35.237 255.148C35.237 257.656 36.341 259.144 38.249 259.144ZM38.249 258.232C37.013 258.232 36.317 257.092 36.317 255.148C36.317 253.144 37.001 252.052 38.249 252.052C39.473 252.052 40.169 253.18 40.169 255.148C40.169 257.128 39.485 258.232 38.249 258.232ZM42.547 259H43.603V255.748L46.471 259H47.815L44.743 255.472L47.647 252.628H46.351L43.603 255.364V250.36H42.547V259Z" fill="#8F8E91"/>
<path d="M38.249 298.144C40.121 298.144 41.249 296.728 41.249 294.148C41.249 291.628 40.145 290.14 38.249 290.14C36.365 290.14 35.237 291.568 35.237 294.148C35.237 296.656 36.341 298.144 38.249 298.144ZM38.249 297.232C37.013 297.232 36.317 296.092 36.317 294.148C36.317 292.144 37.001 291.052 38.249 291.052C39.473 291.052 40.169 292.18 40.169 294.148C40.169 296.128 39.485 297.232 38.249 297.232ZM42.547 298H43.603V294.748L46.471 298H47.815L44.743 294.472L47.647 291.628H46.351L43.603 294.364V289.36H42.547V298Z" fill="#8F8E91"/>
<g filter="url(#filter0_dd_1035_41754)">
<rect x="177" y="68.0002" width="82" height="62" rx="8" fill="white"/>
<path d="M207.089 92.0002H208.009V88.7402L211.119 92.0002H212.359L209.079 88.5402L212.279 85.2002H211.119L208.009 88.4802V85.2002H207.089V92.0002ZM213.844 88.4202C213.954 87.7402 214.364 87.3202 215.124 87.3202C216.034 87.3202 216.434 87.7902 216.434 88.6502V88.7702C215.414 88.7802 214.684 88.8402 213.964 89.0802C213.184 89.3402 212.784 89.8702 212.784 90.6002C212.784 91.6102 213.524 92.1202 214.624 92.1202C215.264 92.1202 215.984 91.8302 216.434 91.1602C216.444 91.4802 216.474 91.7902 216.574 92.0002H217.504C217.364 91.7102 217.314 91.3302 217.314 90.7202V88.6302C217.314 87.3902 216.624 86.5602 215.204 86.5602C213.904 86.5602 213.134 87.2502 212.964 88.4202H213.844ZM213.684 90.5802C213.684 89.9302 214.174 89.4502 216.434 89.4302V89.6802C216.434 90.5902 215.694 91.3602 214.714 91.3602C214.094 91.3602 213.684 91.0702 213.684 90.5802ZM220.747 92.1202C221.377 92.1202 221.887 91.8302 222.237 91.3302V92.0002H223.117V84.8002H222.237V87.3102C221.887 86.8202 221.377 86.5602 220.747 86.5602C219.357 86.5602 218.487 87.5502 218.487 89.3502C218.487 91.0802 219.337 92.1202 220.747 92.1202ZM220.807 91.3602C219.907 91.3602 219.387 90.6302 219.387 89.3502C219.387 88.0402 219.887 87.3202 220.807 87.3202C221.717 87.3202 222.237 88.0602 222.237 89.3502C222.237 90.6502 221.737 91.3602 220.807 91.3602ZM227.898 89.8302C227.898 90.5902 227.388 91.3702 226.528 91.3702C225.748 91.3702 225.398 90.8602 225.398 90.0602V86.6902H224.518V90.2402C224.518 91.4702 225.178 92.1202 226.288 92.1202C226.978 92.1202 227.538 91.8402 227.898 91.2802V92.0002H228.778V86.6902H227.898V89.8302ZM230.182 92.0002H231.062V88.8602C231.062 88.1002 231.582 87.3102 232.462 87.3102C233.262 87.3102 233.622 87.8302 233.622 88.6302V92.0002H234.502V88.4502C234.502 87.2202 233.832 86.5602 232.702 86.5602C232.002 86.5602 231.422 86.8502 231.062 87.4102V86.6902H230.182V92.0002ZM236.715 88.4202C236.825 87.7402 237.235 87.3202 237.995 87.3202C238.905 87.3202 239.305 87.7902 239.305 88.6502V88.7702C238.285 88.7802 237.555 88.8402 236.835 89.0802C236.055 89.3402 235.655 89.8702 235.655 90.6002C235.655 91.6102 236.395 92.1202 237.495 92.1202C238.135 92.1202 238.855 91.8302 239.305 91.1602C239.315 91.4802 239.345 91.7902 239.445 92.0002H240.375C240.235 91.7102 240.185 91.3302 240.185 90.7202V88.6302C240.185 87.3902 239.495 86.5602 238.075 86.5602C236.775 86.5602 236.005 87.2502 235.835 88.4202H236.715ZM236.555 90.5802C236.555 89.9302 237.045 89.4502 239.305 89.4302V89.6802C239.305 90.5902 238.565 91.3602 237.585 91.3602C236.965 91.3602 236.555 91.0702 236.555 90.5802ZM244.31 92.0002H247.69V91.3002H246.46V85.5702H245.69V85.6902C245.69 85.9802 245.56 86.1002 245.04 86.1002H244.31V86.8002H245.54V91.3002H244.31V92.0002Z" fill="#49474D"/>
<path d="M208.161 112H212.893V111.02H211.171V102.998H210.093V103.166C210.093 103.572 209.911 103.74 209.183 103.74H208.161V104.72H209.883V111.02H208.161V112ZM218.328 112.168C220.512 112.168 221.828 110.516 221.828 107.506C221.828 104.566 220.54 102.83 218.328 102.83C216.13 102.83 214.814 104.496 214.814 107.506C214.814 110.432 216.102 112.168 218.328 112.168ZM218.328 111.104C216.886 111.104 216.074 109.774 216.074 107.506C216.074 105.168 216.872 103.894 218.328 103.894C219.756 103.894 220.568 105.21 220.568 107.506C220.568 109.816 219.77 111.104 218.328 111.104ZM226.394 112.168C228.578 112.168 229.894 110.516 229.894 107.506C229.894 104.566 228.606 102.83 226.394 102.83C224.196 102.83 222.88 104.496 222.88 107.506C222.88 110.432 224.168 112.168 226.394 112.168ZM226.394 111.104C224.952 111.104 224.14 109.774 224.14 107.506C224.14 105.168 224.938 103.894 226.394 103.894C227.822 103.894 228.634 105.21 228.634 107.506C228.634 109.816 227.836 111.104 226.394 111.104ZM231.409 112H232.641V108.206L235.987 112H237.555L233.971 107.884L237.359 104.566H235.847L232.641 107.758V101.92H231.409V112Z" fill="#C1C0C2"/>
<circle cx="194.5" cy="88.5002" r="3.5" fill="#ED5556"/>
<circle opacity="0.1" cx="194.5" cy="88.5002" r="7.5" fill="#ED5556"/>
</g>
<mask id="path-25-inside-1_1035_41754" fill="white">
<path d="M1 327H395V354H1V327Z"/>
</mask>
<path d="M1 327H395V354H1V327Z" fill="#FDFCFD"/>
<path d="M395 353H1V355H395V353Z" fill="#F5F5F5" mask="url(#path-25-inside-1_1035_41754)"/>
<path d="M20.9575 345H26.1655V344.1H22.0615V336.84H20.9575V345ZM29.9808 345.144C31.7688 345.144 32.8968 343.968 32.8968 341.82C32.8968 339.744 31.8048 338.472 29.9808 338.472C28.1928 338.472 27.0648 339.66 27.0648 341.82C27.0648 343.896 28.1568 345.144 29.9808 345.144ZM29.9808 344.232C28.8048 344.232 28.1448 343.356 28.1448 341.82C28.1448 340.248 28.7928 339.384 29.9808 339.384C31.1568 339.384 31.8168 340.272 31.8168 341.82C31.8168 343.38 31.1688 344.232 29.9808 344.232ZM39.524 340.824C39.32 339.264 38.216 338.472 36.812 338.472C35.036 338.472 33.932 339.66 33.932 341.82C33.932 343.884 35.012 345.144 36.824 345.144C38.216 345.144 39.284 344.46 39.572 342.876H38.516C38.312 343.788 37.7 344.244 36.848 344.244C35.672 344.244 35.012 343.368 35.012 341.82C35.012 340.248 35.636 339.384 36.812 339.384C37.652 339.384 38.3 339.852 38.468 340.824H39.524ZM41.8491 340.704C41.9811 339.888 42.4731 339.384 43.3851 339.384C44.4771 339.384 44.9571 339.948 44.9571 340.98V341.124C43.7331 341.136 42.8571 341.208 41.9931 341.496C41.0571 341.808 40.5771 342.444 40.5771 343.32C40.5771 344.532 41.4651 345.144 42.7851 345.144C43.5531 345.144 44.4171 344.796 44.9571 343.992C44.9691 344.376 45.0051 344.748 45.1251 345H46.2411C46.0731 344.652 46.0131 344.196 46.0131 343.464V340.956C46.0131 339.468 45.1851 338.472 43.4811 338.472C41.9211 338.472 40.9971 339.3 40.7931 340.704H41.8491ZM41.6571 343.296C41.6571 342.516 42.2451 341.94 44.9571 341.916V342.216C44.9571 343.308 44.0691 344.232 42.8931 344.232C42.1491 344.232 41.6571 343.884 41.6571 343.296ZM47.8883 343.164C47.8883 344.508 48.4523 345.144 49.6403 345.144C49.9403 345.144 50.2043 345.108 50.3243 345.048V344.292H50.1083C49.1723 344.292 48.9443 343.932 48.9443 343.164V339.468H50.3483V338.628H48.9443V337.164H47.8883V338.628H47.0003V339.468H47.8883V343.164ZM51.3537 337.776H52.4097V336.36H51.3537V337.776ZM51.3537 345H52.4097V338.628H51.3537V345ZM56.6761 345.144C58.4641 345.144 59.5921 343.968 59.5921 341.82C59.5921 339.744 58.5001 338.472 56.6761 338.472C54.8881 338.472 53.7601 339.66 53.7601 341.82C53.7601 343.896 54.8521 345.144 56.6761 345.144ZM56.6761 344.232C55.5001 344.232 54.8401 343.356 54.8401 341.82C54.8401 340.248 55.4881 339.384 56.6761 339.384C57.8521 339.384 58.5121 340.272 58.5121 341.82C58.5121 343.38 57.8641 344.232 56.6761 344.232ZM60.9513 345H62.0073V341.232C62.0073 340.32 62.6313 339.372 63.6873 339.372C64.6473 339.372 65.0793 339.996 65.0793 340.956V345H66.1353V340.74C66.1353 339.264 65.3313 338.472 63.9753 338.472C63.1353 338.472 62.4393 338.82 62.0073 339.492V338.628H60.9513V345Z" fill="#C1C0C2"/>
<path d="M170.917 345H172.069L168.853 336.84H167.581L164.377 345H165.469L166.237 343.044H170.149L170.917 345ZM167.953 338.628L168.193 337.908L168.433 338.628L169.813 342.156H166.573L167.953 338.628ZM173.145 345H174.201V341.232C174.201 340.32 174.777 339.372 175.737 339.372C176.601 339.372 176.985 339.996 176.985 340.956V345H178.041V341.232C178.041 340.32 178.617 339.372 179.577 339.372C180.441 339.372 180.825 339.996 180.825 340.956V345H181.881V340.74C181.881 339.264 181.101 338.472 179.805 338.472C178.953 338.472 178.257 338.856 177.837 339.6C177.537 338.856 176.901 338.472 176.025 338.472C175.245 338.472 174.609 338.796 174.201 339.444V338.628H173.145V345ZM186.155 345.144C187.943 345.144 189.071 343.968 189.071 341.82C189.071 339.744 187.979 338.472 186.155 338.472C184.367 338.472 183.239 339.66 183.239 341.82C183.239 343.896 184.331 345.144 186.155 345.144ZM186.155 344.232C184.979 344.232 184.319 343.356 184.319 341.82C184.319 340.248 184.967 339.384 186.155 339.384C187.331 339.384 187.991 340.272 187.991 341.82C187.991 343.38 187.343 344.232 186.155 344.232ZM194.486 342.396C194.486 343.308 193.874 344.244 192.842 344.244C191.906 344.244 191.486 343.632 191.486 342.672V338.628H190.43V342.888C190.43 344.364 191.222 345.144 192.554 345.144C193.382 345.144 194.054 344.808 194.486 344.136V345H195.542V338.628H194.486V342.396ZM197.227 345H198.283V341.232C198.283 340.32 198.907 339.372 199.963 339.372C200.923 339.372 201.355 339.996 201.355 340.956V345H202.411V340.74C202.411 339.264 201.607 338.472 200.251 338.472C199.411 338.472 198.715 338.82 198.283 339.492V338.628H197.227V345ZM204.238 343.164C204.238 344.508 204.802 345.144 205.99 345.144C206.29 345.144 206.554 345.108 206.674 345.048V344.292H206.458C205.522 344.292 205.294 343.932 205.294 343.164V339.468H206.698V338.628H205.294V337.164H204.238V338.628H203.35V339.468H204.238V343.164Z" fill="#C1C0C2"/>
<path d="M305.401 345H306.505V342.024H308.209C310.033 342.024 311.209 341.064 311.209 339.42C311.209 337.824 310.045 336.84 308.197 336.84H305.401V345ZM308.185 337.74C309.349 337.74 310.069 338.4 310.069 339.432C310.069 340.476 309.361 341.124 308.149 341.124H306.505V337.74H308.185ZM318.032 342.924H316.928C316.7 343.8 316.064 344.232 315.164 344.232C314.012 344.232 313.34 343.428 313.28 342H317.984V341.736C317.984 339.708 316.904 338.472 315.104 338.472C313.316 338.472 312.2 339.66 312.2 341.82C312.2 343.896 313.316 345.144 315.164 345.144C316.616 345.144 317.684 344.412 318.032 342.924ZM315.104 339.384C316.1 339.384 316.736 340.032 316.88 341.208H313.316C313.472 340.02 314.084 339.384 315.104 339.384ZM319.391 345H320.447V341.436C320.447 340.284 320.999 339.492 322.271 339.492C322.523 339.492 322.751 339.516 322.931 339.576V338.628C322.811 338.532 322.583 338.472 322.331 338.472C321.563 338.472 320.879 338.832 320.447 339.612V338.628H319.391V345ZM329.018 340.824C328.814 339.264 327.71 338.472 326.306 338.472C324.53 338.472 323.426 339.66 323.426 341.82C323.426 343.884 324.506 345.144 326.318 345.144C327.71 345.144 328.778 344.46 329.066 342.876H328.01C327.806 343.788 327.194 344.244 326.342 344.244C325.166 344.244 324.506 343.368 324.506 341.82C324.506 340.248 325.13 339.384 326.306 339.384C327.146 339.384 327.794 339.852 327.962 340.824H329.018ZM335.879 342.924H334.775C334.547 343.8 333.911 344.232 333.011 344.232C331.859 344.232 331.187 343.428 331.127 342H335.831V341.736C335.831 339.708 334.751 338.472 332.951 338.472C331.163 338.472 330.047 339.66 330.047 341.82C330.047 343.896 331.163 345.144 333.011 345.144C334.463 345.144 335.531 344.412 335.879 342.924ZM332.951 339.384C333.947 339.384 334.583 340.032 334.727 341.208H331.163C331.319 340.02 331.931 339.384 332.951 339.384ZM337.238 345H338.294V341.232C338.294 340.32 338.918 339.372 339.974 339.372C340.934 339.372 341.366 339.996 341.366 340.956V345H342.422V340.74C342.422 339.264 341.618 338.472 340.262 338.472C339.422 338.472 338.726 338.82 338.294 339.492V338.628H337.238V345ZM344.25 343.164C344.25 344.508 344.814 345.144 346.002 345.144C346.302 345.144 346.566 345.108 346.686 345.048V344.292H346.47C345.534 344.292 345.306 343.932 345.306 343.164V339.468H346.71V338.628H345.306V337.164H344.25V338.628H343.362V339.468H344.25V343.164ZM348.687 340.704C348.819 339.888 349.311 339.384 350.223 339.384C351.315 339.384 351.795 339.948 351.795 340.98V341.124C350.571 341.136 349.695 341.208 348.831 341.496C347.895 341.808 347.415 342.444 347.415 343.32C347.415 344.532 348.303 345.144 349.623 345.144C350.391 345.144 351.255 344.796 351.795 343.992C351.807 344.376 351.843 344.748 351.963 345H353.079C352.911 344.652 352.851 344.196 352.851 343.464V340.956C352.851 339.468 352.023 338.472 350.319 338.472C348.759 338.472 347.835 339.3 347.631 340.704H348.687ZM348.495 343.296C348.495 342.516 349.083 341.94 351.795 341.916V342.216C351.795 343.308 350.907 344.232 349.731 344.232C348.987 344.232 348.495 343.884 348.495 343.296ZM356.85 345.048C357.666 345.048 358.314 344.736 358.758 344.136V345.228C358.758 346.416 358.134 346.92 357.198 346.92C356.274 346.92 355.614 346.464 355.482 345.624H354.426C354.654 347.076 355.71 347.796 357.21 347.796C358.674 347.796 359.814 346.968 359.814 345.192V338.628H358.758V339.324C358.338 338.772 357.702 338.472 356.85 338.472C355.254 338.472 354.258 339.636 354.258 341.772C354.258 343.812 355.23 345.048 356.85 345.048ZM357.042 344.136C355.95 344.136 355.338 343.272 355.338 341.772C355.338 340.224 355.938 339.384 357.042 339.384C358.134 339.384 358.758 340.26 358.758 341.76C358.758 343.296 358.158 344.136 357.042 344.136ZM367.016 342.924H365.912C365.684 343.8 365.048 344.232 364.148 344.232C362.996 344.232 362.324 343.428 362.264 342H366.968V341.736C366.968 339.708 365.888 338.472 364.088 338.472C362.3 338.472 361.184 339.66 361.184 341.82C361.184 343.896 362.3 345.144 364.148 345.144C365.6 345.144 366.668 344.412 367.016 342.924ZM364.088 339.384C365.084 339.384 365.72 340.032 365.864 341.208H362.3C362.456 340.02 363.068 339.384 364.088 339.384Z" fill="#C1C0C2"/>
<defs>
<filter id="filter0_dd_1035_41754" x="176" y="67.0002" width="84" height="69" filterUnits="userSpaceOnUse" color-interpolation-filters="sRGB">
<feFlood flood-opacity="0" result="BackgroundImageFix"/>
<feColorMatrix in="SourceAlpha" type="matrix" values="0 0 0 0 0 0 0 0 0 0 0 0 0 0 0 0 0 0 127 0" result="hardAlpha"/>
<feOffset/>
<feGaussianBlur stdDeviation="0.5"/>
<feColorMatrix type="matrix" values="0 0 0 0 0.756863 0 0 0 0 0.760784 0 0 0 0 0.776471 0 0 0 0.4 0"/>
<feBlend mode="normal" in2="BackgroundImageFix" result="effect1_dropShadow_1035_41754"/>
<feColorMatrix in="SourceAlpha" type="matrix" values="0 0 0 0 0 0 0 0 0 0 0 0 0 0 0 0 0 0 127 0" result="hardAlpha"/>
<feMorphology radius="6" operator="erode" in="SourceAlpha" result="effect2_dropShadow_1035_41754"/>
<feOffset dy="6"/>
<feGaussianBlur stdDeviation="3"/>
<feColorMatrix type="matrix" values="0 0 0 0 0.756863 0 0 0 0 0.760784 0 0 0 0 0.776471 0 0 0 0.16 0"/>
<feBlend mode="normal" in2="effect1_dropShadow_1035_41754" result="effect2_dropShadow_1035_41754"/>
<feBlend mode="normal" in="SourceGraphic" in2="effect2_dropShadow_1035_41754" result="shape"/>
</filter>
</defs>
</svg>
