<svg width="396" height="300" viewBox="0 0 396 300" fill="none" xmlns="http://www.w3.org/2000/svg">
<circle cx="26.5" cy="66" r="3.5" fill="#0DBF66"/>
<circle opacity="0.1" cx="26.5" cy="66" r="7.5" fill="#0DBF66"/>
<path d="M41.0873 70H42.0073V63.98H44.3373V63.2H38.7573V63.98H41.0873V70ZM44.8504 70H45.7304V67.03C45.7304 66.07 46.1904 65.41 47.2504 65.41C47.4604 65.41 47.6504 65.43 47.8004 65.48V64.69C47.7004 64.61 47.5104 64.56 47.3004 64.56C46.6604 64.56 46.0904 64.86 45.7304 65.51V64.69H44.8504V70ZM49.2932 66.42C49.4032 65.74 49.8132 65.32 50.5732 65.32C51.4832 65.32 51.8832 65.79 51.8832 66.65V66.77C50.8632 66.78 50.1332 66.84 49.4132 67.08C48.6332 67.34 48.2332 67.87 48.2332 68.6C48.2332 69.61 48.9732 70.12 50.0732 70.12C50.7132 70.12 51.4332 69.83 51.8832 69.16C51.8932 69.48 51.9232 69.79 52.0232 70H52.9532C52.8132 69.71 52.7632 69.33 52.7632 68.72V66.63C52.7632 65.39 52.0732 64.56 50.6532 64.56C49.3532 64.56 48.5832 65.25 48.4132 66.42H49.2932ZM49.1332 68.58C49.1332 67.93 49.6232 67.45 51.8832 67.43V67.68C51.8832 68.59 51.1432 69.36 50.1632 69.36C49.5432 69.36 49.1332 69.07 49.1332 68.58ZM54.2059 70H55.0859V66.86C55.0859 66.1 55.6059 65.31 56.4859 65.31C57.2859 65.31 57.6459 65.83 57.6459 66.63V70H58.5259V66.45C58.5259 65.22 57.8559 64.56 56.7259 64.56C56.0259 64.56 55.4459 64.85 55.0859 65.41V64.69H54.2059V70ZM60.5785 66.05C60.5785 65.61 60.9585 65.28 61.6185 65.28C62.3685 65.28 62.8285 65.59 62.9585 66.42H63.8385C63.6685 65.1 62.8185 64.56 61.6685 64.56C60.3685 64.56 59.7385 65.3 59.7385 66.11C59.7385 68.31 63.1485 67.11 63.1485 68.56C63.1485 69.06 62.7285 69.42 61.9285 69.42C61.1085 69.42 60.5585 69.01 60.4385 68.27H59.5585C59.7585 69.52 60.6385 70.12 61.8985 70.12C63.1485 70.12 64.0285 69.49 64.0285 68.5C64.0285 66.31 60.5785 67.53 60.5785 66.05ZM64.425 65.39H65.165V70H66.045V65.39H67.095V64.69H66.045V64.33C66.045 63.69 66.235 63.39 67.005 63.39H67.095V62.76C67.005 62.72 66.825 62.68 66.605 62.68C65.625 62.68 65.165 63.21 65.165 64.33V64.69H64.425V65.39ZM72.3896 68.27H71.4696C71.2796 69 70.7496 69.36 69.9996 69.36C69.0396 69.36 68.4796 68.69 68.4296 67.5H72.3496V67.28C72.3496 65.59 71.4496 64.56 69.9496 64.56C68.4596 64.56 67.5296 65.55 67.5296 67.35C67.5296 69.08 68.4596 70.12 69.9996 70.12C71.2096 70.12 72.0996 69.51 72.3896 68.27ZM69.9496 65.32C70.7796 65.32 71.3096 65.86 71.4296 66.84H68.4596C68.5896 65.85 69.0996 65.32 69.9496 65.32ZM73.5223 70H74.4023V67.03C74.4023 66.07 74.8623 65.41 75.9223 65.41C76.1323 65.41 76.3223 65.43 76.4723 65.48V64.69C76.3723 64.61 76.1823 64.56 75.9723 64.56C75.3323 64.56 74.7623 64.86 74.4023 65.51V64.69H73.5223V70Z" fill="#49474D"/>
<path d="M92.8484 68.494C92.8484 67.528 92.4424 66.716 91.2804 66.282C92.2184 65.89 92.5824 65.232 92.5824 64.392C92.5824 62.922 91.5324 61.83 89.5024 61.83C87.5704 61.83 86.4084 62.866 86.1704 64.56H87.4164C87.5844 63.524 88.2284 62.894 89.4884 62.894C90.6924 62.894 91.3224 63.454 91.3224 64.406C91.3224 65.036 91.0004 65.862 88.9984 65.862H88.7044V66.842H89.0684C91.1824 66.842 91.5884 67.668 91.5884 68.438C91.5884 69.488 90.8604 70.104 89.4604 70.104C88.1024 70.104 87.4024 69.446 87.2344 68.41H85.9744C86.2264 70.132 87.4724 71.168 89.4744 71.168C91.7004 71.168 92.8484 70.02 92.8484 68.494ZM97.4988 71.168C99.6828 71.168 100.999 69.516 100.999 66.506C100.999 63.566 99.7108 61.83 97.4988 61.83C95.3008 61.83 93.9848 63.496 93.9848 66.506C93.9848 69.432 95.2728 71.168 97.4988 71.168ZM97.4988 70.104C96.0568 70.104 95.2448 68.774 95.2448 66.506C95.2448 64.168 96.0428 62.894 97.4988 62.894C98.9268 62.894 99.7388 64.21 99.7388 66.506C99.7388 68.816 98.9408 70.104 97.4988 70.104ZM105.565 71.168C107.749 71.168 109.065 69.516 109.065 66.506C109.065 63.566 107.777 61.83 105.565 61.83C103.367 61.83 102.051 63.496 102.051 66.506C102.051 69.432 103.339 71.168 105.565 71.168ZM105.565 70.104C104.123 70.104 103.311 68.774 103.311 66.506C103.311 64.168 104.109 62.894 105.565 62.894C106.993 62.894 107.805 64.21 107.805 66.506C107.805 68.816 107.007 70.104 105.565 70.104Z" fill="#C1C0C2"/>
<circle cx="129.5" cy="66" r="3.5" fill="#E1891C"/>
<circle opacity="0.1" cx="129.5" cy="66" r="7.5" fill="#E1891C"/>
<path d="M141.97 70H144.19C146.3 70 147.62 68.74 147.62 66.61C147.62 64.48 146.3 63.2 144.19 63.2H141.97V70ZM144.19 69.25H142.89V63.95H144.19C145.75 63.95 146.68 64.93 146.68 66.61C146.68 68.27 145.75 69.25 144.19 69.25ZM153.453 68.27H152.533C152.343 69 151.813 69.36 151.063 69.36C150.103 69.36 149.543 68.69 149.493 67.5H153.413V67.28C153.413 65.59 152.513 64.56 151.013 64.56C149.523 64.56 148.593 65.55 148.593 67.35C148.593 69.08 149.523 70.12 151.063 70.12C152.273 70.12 153.163 69.51 153.453 68.27ZM151.013 65.32C151.843 65.32 152.373 65.86 152.493 66.84H149.523C149.653 65.85 150.163 65.32 151.013 65.32ZM155.476 72.2V69.37C155.826 69.86 156.336 70.12 156.966 70.12C158.356 70.12 159.226 69.13 159.226 67.33C159.226 65.6 158.376 64.56 156.966 64.56C156.336 64.56 155.826 64.85 155.476 65.35V64.69H154.596V72.2H155.476ZM156.906 65.32C157.806 65.32 158.326 66.05 158.326 67.33C158.326 68.64 157.826 69.36 156.906 69.36C155.996 69.36 155.476 68.62 155.476 67.33C155.476 66.03 155.976 65.32 156.906 65.32ZM162.517 70.12C164.007 70.12 164.947 69.14 164.947 67.35C164.947 65.62 164.037 64.56 162.517 64.56C161.027 64.56 160.087 65.55 160.087 67.35C160.087 69.08 160.997 70.12 162.517 70.12ZM162.517 69.36C161.537 69.36 160.987 68.63 160.987 67.35C160.987 66.04 161.527 65.32 162.517 65.32C163.497 65.32 164.047 66.06 164.047 67.35C164.047 68.65 163.507 69.36 162.517 69.36ZM166.73 66.05C166.73 65.61 167.11 65.28 167.77 65.28C168.52 65.28 168.98 65.59 169.11 66.42H169.99C169.82 65.1 168.97 64.56 167.82 64.56C166.52 64.56 165.89 65.3 165.89 66.11C165.89 68.31 169.3 67.11 169.3 68.56C169.3 69.06 168.88 69.42 168.08 69.42C167.26 69.42 166.71 69.01 166.59 68.27H165.71C165.91 69.52 166.79 70.12 168.05 70.12C169.3 70.12 170.18 69.49 170.18 68.5C170.18 66.31 166.73 67.53 166.73 66.05ZM171.226 63.98H172.106V62.8H171.226V63.98ZM171.226 70H172.106V64.69H171.226V70ZM173.622 68.47C173.622 69.59 174.092 70.12 175.082 70.12C175.332 70.12 175.552 70.09 175.652 70.04V69.41H175.472C174.692 69.41 174.502 69.11 174.502 68.47V65.39H175.672V64.69H174.502V63.47H173.622V64.69H172.882V65.39H173.622V68.47Z" fill="#49474D"/>
<path d="M185.268 71H191.61V70.02H186.542C187.06 67.402 191.512 67.43 191.512 64.518C191.512 62.992 190.504 61.83 188.544 61.83C186.626 61.83 185.492 62.866 185.254 64.56H186.528C186.696 63.524 187.298 62.894 188.53 62.894C189.65 62.894 190.252 63.51 190.252 64.532C190.252 66.954 185.268 66.618 185.268 70.664V71ZM196.499 71.168C198.683 71.168 199.999 69.516 199.999 66.506C199.999 63.566 198.711 61.83 196.499 61.83C194.301 61.83 192.985 63.496 192.985 66.506C192.985 69.432 194.273 71.168 196.499 71.168ZM196.499 70.104C195.057 70.104 194.245 68.774 194.245 66.506C194.245 64.168 195.043 62.894 196.499 62.894C197.927 62.894 198.739 64.21 198.739 66.506C198.739 68.816 197.941 70.104 196.499 70.104ZM204.565 71.168C206.749 71.168 208.065 69.516 208.065 66.506C208.065 63.566 206.777 61.83 204.565 61.83C202.367 61.83 201.051 63.496 201.051 66.506C201.051 69.432 202.339 71.168 204.565 71.168ZM204.565 70.104C203.123 70.104 202.311 68.774 202.311 66.506C202.311 64.168 203.109 62.894 204.565 62.894C205.993 62.894 206.805 64.21 206.805 66.506C206.805 68.816 206.007 70.104 204.565 70.104Z" fill="#C1C0C2"/>
<circle cx="228.5" cy="66" r="3.5" fill="#ED5556"/>
<circle opacity="0.1" cx="228.5" cy="66" r="7.5" fill="#ED5556"/>
<path d="M247.096 70H248.176L250.336 63.2H249.396L247.796 68.52L247.666 69.03L247.536 68.52L245.996 63.2H245.006L243.456 68.52L243.326 69.03L243.186 68.52L241.576 63.2H240.596L242.756 70H243.846L245.316 64.98L245.476 64.43L245.626 64.98L247.096 70ZM251.414 63.98H252.294V62.8H251.414V63.98ZM251.414 70H252.294V64.69H251.414V70ZM253.809 68.47C253.809 69.59 254.279 70.12 255.269 70.12C255.519 70.12 255.739 70.09 255.839 70.04V69.41H255.659C254.879 69.41 254.689 69.11 254.689 68.47V65.39H255.859V64.69H254.689V63.47H253.809V64.69H253.069V65.39H253.809V68.47ZM256.697 70H257.577V66.86C257.577 66.1 258.097 65.31 258.977 65.31C259.777 65.31 260.137 65.83 260.137 66.63V70H261.017V66.45C261.017 65.22 260.347 64.56 259.217 64.56C258.517 64.56 257.937 64.85 257.577 65.41V62.8H256.697V70ZM264.41 70.12C265.04 70.12 265.55 69.83 265.9 69.33V70H266.78V62.8H265.9V65.31C265.55 64.82 265.04 64.56 264.41 64.56C263.02 64.56 262.15 65.55 262.15 67.35C262.15 69.08 263 70.12 264.41 70.12ZM264.47 69.36C263.57 69.36 263.05 68.63 263.05 67.35C263.05 66.04 263.55 65.32 264.47 65.32C265.38 65.32 265.9 66.06 265.9 67.35C265.9 68.65 265.4 69.36 264.47 69.36ZM268.181 70H269.061V67.03C269.061 66.07 269.521 65.41 270.581 65.41C270.791 65.41 270.981 65.43 271.131 65.48V64.69C271.031 64.61 270.841 64.56 270.631 64.56C269.991 64.56 269.421 64.86 269.061 65.51V64.69H268.181V70ZM272.624 66.42C272.734 65.74 273.144 65.32 273.904 65.32C274.814 65.32 275.214 65.79 275.214 66.65V66.77C274.194 66.78 273.464 66.84 272.744 67.08C271.964 67.34 271.564 67.87 271.564 68.6C271.564 69.61 272.304 70.12 273.404 70.12C274.044 70.12 274.764 69.83 275.214 69.16C275.224 69.48 275.254 69.79 275.354 70H276.284C276.144 69.71 276.094 69.33 276.094 68.72V66.63C276.094 65.39 275.404 64.56 273.984 64.56C272.684 64.56 271.914 65.25 271.744 66.42H272.624ZM272.464 68.58C272.464 67.93 272.954 67.45 275.214 67.43V67.68C275.214 68.59 274.474 69.36 273.494 69.36C272.874 69.36 272.464 69.07 272.464 68.58ZM281.99 70H283.1L284.69 64.69H283.78L282.69 68.81L282.58 69.33L282.46 68.81L281.25 64.69H280.3L279.09 68.81L278.96 69.35L278.83 68.81L277.74 64.69H276.79L278.37 70H279.46L280.6 66.03L280.72 65.43L280.84 66.03L281.99 70ZM286.296 66.42C286.406 65.74 286.816 65.32 287.576 65.32C288.486 65.32 288.886 65.79 288.886 66.65V66.77C287.866 66.78 287.136 66.84 286.416 67.08C285.636 67.34 285.236 67.87 285.236 68.6C285.236 69.61 285.976 70.12 287.076 70.12C287.716 70.12 288.436 69.83 288.886 69.16C288.896 69.48 288.926 69.79 289.026 70H289.956C289.816 69.71 289.766 69.33 289.766 68.72V66.63C289.766 65.39 289.076 64.56 287.656 64.56C286.356 64.56 285.586 65.25 285.416 66.42H286.296ZM286.136 68.58C286.136 67.93 286.626 67.45 288.886 67.43V67.68C288.886 68.59 288.146 69.36 287.166 69.36C286.546 69.36 286.136 69.07 286.136 68.58ZM291.209 70H292.089V62.8H291.209V70Z" fill="#49474D"/>
<path d="M307.658 71V68.886H308.974V67.906H307.658V61.998H306.524L302.016 67.766V68.886H306.398V71H307.658ZM303.178 67.906L306.398 63.664V67.906H303.178ZM313.499 71.168C315.683 71.168 316.999 69.516 316.999 66.506C316.999 63.566 315.711 61.83 313.499 61.83C311.301 61.83 309.985 63.496 309.985 66.506C309.985 69.432 311.273 71.168 313.499 71.168ZM313.499 70.104C312.057 70.104 311.245 68.774 311.245 66.506C311.245 64.168 312.043 62.894 313.499 62.894C314.927 62.894 315.739 64.21 315.739 66.506C315.739 68.816 314.941 70.104 313.499 70.104ZM321.565 71.168C323.749 71.168 325.065 69.516 325.065 66.506C325.065 63.566 323.777 61.83 321.565 61.83C319.367 61.83 318.051 63.496 318.051 66.506C318.051 69.432 319.339 71.168 321.565 71.168ZM321.565 70.104C320.123 70.104 319.311 68.774 319.311 66.506C319.311 64.168 320.109 62.894 321.565 62.894C322.993 62.894 323.805 64.21 323.805 66.506C323.805 68.816 323.007 70.104 321.565 70.104Z" fill="#C1C0C2"/>
<path d="M22 104L375 104" stroke="#F0F0F0" stroke-dasharray="4 4"/>
<path d="M22 143L375 143" stroke="#F0F0F0" stroke-dasharray="4 4"/>
<path d="M22 182L375 182" stroke="#F0F0F0" stroke-dasharray="4 4"/>
<path d="M22 221L375 221" stroke="#F0F0F0" stroke-dasharray="4 4"/>
<path d="M22 260L375 260" stroke="#F0F0F0" stroke-dasharray="4 4"/>
<path d="M22 299L375 299" stroke="#F0F0F0" stroke-dasharray="4 4"/>
<circle cx="280.5" cy="221.5" r="47.5" fill="#ED5556"/>
<ellipse cx="117" cy="194.5" rx="39" ry="38.5" fill="#F9C362"/>
<circle cx="213" cy="143" r="25" fill="#65D6BF"/>
<g filter="url(#filter0_dd_795_42960)">
<rect x="199" y="221" width="92" height="62" rx="8" fill="white"/>
<path d="M235.096 245H236.176L238.336 238.2H237.396L235.796 243.52L235.666 244.03L235.536 243.52L233.996 238.2H233.006L231.456 243.52L231.326 244.03L231.186 243.52L229.576 238.2H228.596L230.756 245H231.846L233.316 239.98L233.476 239.43L233.626 239.98L235.096 245ZM239.414 238.98H240.294V237.8H239.414V238.98ZM239.414 245H240.294V239.69H239.414V245ZM241.809 243.47C241.809 244.59 242.279 245.12 243.269 245.12C243.519 245.12 243.739 245.09 243.839 245.04V244.41H243.659C242.879 244.41 242.689 244.11 242.689 243.47V240.39H243.859V239.69H242.689V238.47H241.809V239.69H241.069V240.39H241.809V243.47ZM244.697 245H245.577V241.86C245.577 241.1 246.097 240.31 246.977 240.31C247.777 240.31 248.137 240.83 248.137 241.63V245H249.017V241.45C249.017 240.22 248.347 239.56 247.217 239.56C246.517 239.56 245.937 239.85 245.577 240.41V237.8H244.697V245ZM252.41 245.12C253.04 245.12 253.55 244.83 253.9 244.33V245H254.78V237.8H253.9V240.31C253.55 239.82 253.04 239.56 252.41 239.56C251.02 239.56 250.15 240.55 250.15 242.35C250.15 244.08 251 245.12 252.41 245.12ZM252.47 244.36C251.57 244.36 251.05 243.63 251.05 242.35C251.05 241.04 251.55 240.32 252.47 240.32C253.38 240.32 253.9 241.06 253.9 242.35C253.9 243.65 253.4 244.36 252.47 244.36ZM256.181 245H257.061V242.03C257.061 241.07 257.521 240.41 258.581 240.41C258.791 240.41 258.981 240.43 259.131 240.48V239.69C259.031 239.61 258.841 239.56 258.631 239.56C257.991 239.56 257.421 239.86 257.061 240.51V239.69H256.181V245ZM260.624 241.42C260.734 240.74 261.144 240.32 261.904 240.32C262.814 240.32 263.214 240.79 263.214 241.65V241.77C262.194 241.78 261.464 241.84 260.744 242.08C259.964 242.34 259.564 242.87 259.564 243.6C259.564 244.61 260.304 245.12 261.404 245.12C262.044 245.12 262.764 244.83 263.214 244.16C263.224 244.48 263.254 244.79 263.354 245H264.284C264.144 244.71 264.094 244.33 264.094 243.72V241.63C264.094 240.39 263.404 239.56 261.984 239.56C260.684 239.56 259.914 240.25 259.744 241.42H260.624ZM260.464 243.58C260.464 242.93 260.954 242.45 263.214 242.43V242.68C263.214 243.59 262.474 244.36 261.494 244.36C260.874 244.36 260.464 244.07 260.464 243.58ZM269.99 245H271.1L272.69 239.69H271.78L270.69 243.81L270.58 244.33L270.46 243.81L269.25 239.69H268.3L267.09 243.81L266.96 244.35L266.83 243.81L265.74 239.69H264.79L266.37 245H267.46L268.6 241.03L268.72 240.43L268.84 241.03L269.99 245ZM274.296 241.42C274.406 240.74 274.816 240.32 275.576 240.32C276.486 240.32 276.886 240.79 276.886 241.65V241.77C275.866 241.78 275.136 241.84 274.416 242.08C273.636 242.34 273.236 242.87 273.236 243.6C273.236 244.61 273.976 245.12 275.076 245.12C275.716 245.12 276.436 244.83 276.886 244.16C276.896 244.48 276.926 244.79 277.026 245H277.956C277.816 244.71 277.766 244.33 277.766 243.72V241.63C277.766 240.39 277.076 239.56 275.656 239.56C274.356 239.56 273.586 240.25 273.416 241.42H274.296ZM274.136 243.58C274.136 242.93 274.626 242.45 276.886 242.43V242.68C276.886 243.59 276.146 244.36 275.166 244.36C274.546 244.36 274.136 244.07 274.136 243.58ZM279.209 245H280.089V237.8H279.209V245Z" fill="#49474D"/>
<path d="M234.487 265V262.886H235.803V261.906H234.487V255.998H233.353L228.845 261.766V262.886H233.227V265H234.487ZM230.007 261.906L233.227 257.664V261.906H230.007ZM240.328 265.168C242.512 265.168 243.828 263.516 243.828 260.506C243.828 257.566 242.54 255.83 240.328 255.83C238.13 255.83 236.814 257.496 236.814 260.506C236.814 263.432 238.102 265.168 240.328 265.168ZM240.328 264.104C238.886 264.104 238.074 262.774 238.074 260.506C238.074 258.168 238.872 256.894 240.328 256.894C241.756 256.894 242.568 258.21 242.568 260.506C242.568 262.816 241.77 264.104 240.328 264.104ZM248.394 265.168C250.578 265.168 251.894 263.516 251.894 260.506C251.894 257.566 250.606 255.83 248.394 255.83C246.196 255.83 244.88 257.496 244.88 260.506C244.88 263.432 246.168 265.168 248.394 265.168ZM248.394 264.104C246.952 264.104 246.14 262.774 246.14 260.506C246.14 258.168 246.938 256.894 248.394 256.894C249.822 256.894 250.634 258.21 250.634 260.506C250.634 262.816 249.836 264.104 248.394 264.104ZM253.409 265H254.641V261.206L257.987 265H259.555L255.971 260.884L259.359 257.566H257.847L254.641 260.758V254.92H253.409V265Z" fill="#C1C0C2"/>
<circle cx="216.5" cy="241.5" r="3.5" fill="#ED5556"/>
<circle opacity="0.1" cx="216.5" cy="241.5" r="7.5" fill="#ED5556"/>
</g>
<rect x="0.5" y="0.5" width="395" height="298" rx="7.5" stroke="#DAD9DA"/>
<path d="M24.3823 34H27.2803V24.118H31.0783V21.76H20.5843V24.118H24.3823V34ZM31.7583 34H34.5123V28.996C34.5123 27.466 35.2503 26.53 36.9063 26.53C37.3383 26.53 37.6803 26.566 38.0043 26.638V24.316C37.8063 24.118 37.4463 24.01 37.0503 24.01C36.0603 24.01 35.1243 24.514 34.5123 25.666V24.316H31.7583V34ZM41.7356 27.52C41.8616 26.764 42.3656 26.242 43.3016 26.242C44.3636 26.242 44.8856 26.8 44.8856 27.862V28.078C43.3916 28.096 42.1856 28.222 40.9256 28.636C39.3956 29.176 38.6396 30.184 38.6396 31.498C38.6396 33.352 40.0076 34.288 41.8436 34.288C42.9956 34.288 44.1476 33.838 44.9036 32.794C44.9216 33.262 44.9756 33.676 45.0656 34H47.9096C47.7476 33.496 47.6396 32.848 47.6396 31.588V27.88C47.6396 25.63 46.1996 24.01 43.4276 24.01C40.9436 24.01 39.2696 25.342 38.9816 27.52H41.7356ZM41.3936 31.318C41.3936 30.418 42.0956 29.734 44.8856 29.68V30.058C44.8856 31.39 43.9136 32.38 42.6896 32.38C41.8796 32.38 41.3936 31.966 41.3936 31.318ZM49.6001 34H52.3541V28.438C52.3541 27.196 53.0561 26.242 54.1541 26.242C55.1621 26.242 55.6481 26.872 55.6481 28.096V34H58.4021V27.538C58.4021 25.144 57.0161 24.01 55.1621 24.01C53.9741 24.01 52.9841 24.514 52.3541 25.594V24.316H49.6001V34ZM62.664 26.998C62.664 26.476 63.132 26.116 63.852 26.116C64.824 26.116 65.4 26.53 65.562 27.52H68.298C68.028 25.072 66.264 24.01 63.942 24.01C61.35 24.01 60.036 25.522 60.036 27.142C60.036 31.03 65.904 29.356 65.904 31.228C65.904 31.822 65.418 32.2 64.446 32.2C63.42 32.2 62.682 31.714 62.556 30.814H59.802C60.162 33.208 61.926 34.288 64.374 34.288C66.894 34.288 68.658 32.974 68.658 31.066C68.658 27.232 62.664 28.906 62.664 26.998ZM72.7434 27.52C72.8694 26.764 73.3734 26.242 74.3094 26.242C75.3714 26.242 75.8934 26.8 75.8934 27.862V28.078C74.3994 28.096 73.1934 28.222 71.9334 28.636C70.4034 29.176 69.6474 30.184 69.6474 31.498C69.6474 33.352 71.0154 34.288 72.8514 34.288C74.0034 34.288 75.1554 33.838 75.9114 32.794C75.9294 33.262 75.9834 33.676 76.0734 34H78.9174C78.7554 33.496 78.6474 32.848 78.6474 31.588V27.88C78.6474 25.63 77.2074 24.01 74.4354 24.01C71.9514 24.01 70.2774 25.342 69.9894 27.52H72.7434ZM72.4014 31.318C72.4014 30.418 73.1034 29.734 75.8934 29.68V30.058C75.8934 31.39 74.9214 32.38 73.6974 32.38C72.8874 32.38 72.4014 31.966 72.4014 31.318ZM89.2479 27.808C88.9059 25.27 87.1239 24.01 84.8739 24.01C82.0299 24.01 80.1939 25.864 80.1939 29.158C80.1939 32.326 81.9939 34.288 84.8919 34.288C87.1419 34.288 88.8879 33.118 89.3019 30.688H86.5479C86.3499 31.588 85.7739 32.056 84.9459 32.056C83.6859 32.056 83.0199 31.03 83.0199 29.158C83.0199 27.268 83.6499 26.242 84.8739 26.242C85.6659 26.242 86.3139 26.674 86.4939 27.808H89.2479ZM91.0577 30.85C91.0577 33.1 92.0477 34.288 94.1177 34.288C94.8557 34.288 95.4677 34.18 95.7737 34.036V31.966H95.2517C94.0637 31.966 93.8117 31.444 93.8117 30.508V26.404H95.7917V24.316H93.8117V22.066H91.0577V24.316H89.8697V26.404H91.0577V30.85ZM97.0258 23.344H99.7798V21.04H97.0258V23.344ZM97.0258 34H99.7798V24.316H97.0258V34ZM105.969 34.288C108.849 34.288 110.739 32.434 110.739 29.158C110.739 25.99 108.903 24.01 105.969 24.01C103.089 24.01 101.217 25.864 101.217 29.158C101.217 32.344 103.035 34.288 105.969 34.288ZM105.969 32.056C104.727 32.056 104.043 31.03 104.043 29.158C104.043 27.268 104.709 26.242 105.969 26.242C107.229 26.242 107.913 27.286 107.913 29.158C107.913 31.048 107.247 32.056 105.969 32.056ZM112.196 34H114.95V28.438C114.95 27.196 115.652 26.242 116.75 26.242C117.758 26.242 118.244 26.872 118.244 28.096V34H120.998V27.538C120.998 25.144 119.612 24.01 117.758 24.01C116.57 24.01 115.58 24.514 114.95 25.594V24.316H112.196V34ZM137.346 25.684C136.824 22.894 134.592 21.472 131.964 21.472C128.274 21.472 126.024 23.938 126.024 27.898C126.024 31.858 128.274 34.288 131.928 34.288C134.538 34.288 136.716 32.866 137.346 30.166H134.286C133.944 31.318 133.044 31.93 131.892 31.93C130.02 31.93 128.976 30.436 128.976 27.898C128.976 25.378 130.038 23.83 131.892 23.83C133.116 23.83 133.98 24.478 134.322 25.684H137.346ZM143.147 34.288C146.027 34.288 147.917 32.434 147.917 29.158C147.917 25.99 146.081 24.01 143.147 24.01C140.267 24.01 138.395 25.864 138.395 29.158C138.395 32.344 140.213 34.288 143.147 34.288ZM143.147 32.056C141.905 32.056 141.221 31.03 141.221 29.158C141.221 27.268 141.887 26.242 143.147 26.242C144.407 26.242 145.091 27.286 145.091 29.158C145.091 31.048 144.425 32.056 143.147 32.056ZM155.314 29.878C155.314 31.12 154.63 32.056 153.568 32.056C152.596 32.056 152.128 31.444 152.128 30.202V24.316H149.374V30.76C149.374 33.172 150.724 34.288 152.56 34.288C153.729 34.288 154.684 33.784 155.314 32.704V34H158.068V24.316H155.314V29.878ZM159.938 34H162.692V28.438C162.692 27.196 163.394 26.242 164.492 26.242C165.5 26.242 165.986 26.872 165.986 28.096V34H168.74V27.538C168.74 25.144 167.354 24.01 165.5 24.01C164.312 24.01 163.322 24.514 162.692 25.594V24.316H159.938V34ZM170.968 30.85C170.968 33.1 171.958 34.288 174.028 34.288C174.766 34.288 175.378 34.18 175.684 34.036V31.966H175.162C173.974 31.966 173.722 31.444 173.722 30.508V26.404H175.702V24.316H173.722V22.066H170.968V24.316H169.78V26.404H170.968V30.85Z" fill="#2B2930"/>
<defs>
<filter id="filter0_dd_795_42960" x="198" y="220" width="94" height="69" filterUnits="userSpaceOnUse" color-interpolation-filters="sRGB">
<feFlood flood-opacity="0" result="BackgroundImageFix"/>
<feColorMatrix in="SourceAlpha" type="matrix" values="0 0 0 0 0 0 0 0 0 0 0 0 0 0 0 0 0 0 127 0" result="hardAlpha"/>
<feOffset/>
<feGaussianBlur stdDeviation="0.5"/>
<feColorMatrix type="matrix" values="0 0 0 0 0.756863 0 0 0 0 0.760784 0 0 0 0 0.776471 0 0 0 0.4 0"/>
<feBlend mode="normal" in2="BackgroundImageFix" result="effect1_dropShadow_795_42960"/>
<feColorMatrix in="SourceAlpha" type="matrix" values="0 0 0 0 0 0 0 0 0 0 0 0 0 0 0 0 0 0 127 0" result="hardAlpha"/>
<feMorphology radius="6" operator="erode" in="SourceAlpha" result="effect2_dropShadow_795_42960"/>
<feOffset dy="6"/>
<feGaussianBlur stdDeviation="3"/>
<feColorMatrix type="matrix" values="0 0 0 0 0.756863 0 0 0 0 0.760784 0 0 0 0 0.776471 0 0 0 0.16 0"/>
<feBlend mode="normal" in2="effect1_dropShadow_795_42960" result="effect2_dropShadow_795_42960"/>
<feBlend mode="normal" in="SourceGraphic" in2="effect2_dropShadow_795_42960" result="shape"/>
</filter>
</defs>
</svg>
