<svg width="396" height="300" viewBox="0 0 396 300" fill="none" xmlns="http://www.w3.org/2000/svg">
<circle cx="26.5" cy="66" r="3.5" fill="#0DBF66"/>
<circle opacity="0.1" cx="26.5" cy="66" r="7.5" fill="#0DBF66"/>
<path d="M39.6099 64.86C39.6099 64.26 40.1099 63.87 40.9699 63.87C41.8399 63.87 42.4199 64.26 42.6299 65.16H43.5999C43.3499 63.71 42.2999 63.08 40.9899 63.08C39.4899 63.08 38.6699 63.94 38.6699 64.92C38.6699 67.67 42.8399 66.12 42.8399 68.2C42.8399 68.88 42.2999 69.33 41.2799 69.33C40.2999 69.33 39.6899 68.89 39.4699 68.08H38.5099C38.8099 69.45 39.8099 70.12 41.2699 70.12C42.7199 70.12 43.7799 69.39 43.7799 68.08C43.7799 65.29 39.6099 66.78 39.6099 64.86ZM48.2353 67.83C48.2353 68.59 47.7253 69.37 46.8653 69.37C46.0853 69.37 45.7353 68.86 45.7353 68.06V64.69H44.8553V68.24C44.8553 69.47 45.5153 70.12 46.6253 70.12C47.3153 70.12 47.8753 69.84 48.2353 69.28V70H49.1153V64.69H48.2353V67.83ZM54.9093 66.52C54.7393 65.22 53.8193 64.56 52.6493 64.56C51.1693 64.56 50.2493 65.55 50.2493 67.35C50.2493 69.07 51.1493 70.12 52.6593 70.12C53.8193 70.12 54.7093 69.55 54.9493 68.23H54.0693C53.8993 68.99 53.3893 69.37 52.6793 69.37C51.6993 69.37 51.1493 68.64 51.1493 67.35C51.1493 66.04 51.6693 65.32 52.6493 65.32C53.3493 65.32 53.8893 65.71 54.0293 66.52H54.9093ZM60.4269 66.52C60.2569 65.22 59.3369 64.56 58.1669 64.56C56.6869 64.56 55.7669 65.55 55.7669 67.35C55.7669 69.07 56.6669 70.12 58.1769 70.12C59.3369 70.12 60.2269 69.55 60.4669 68.23H59.5869C59.4169 68.99 58.9069 69.37 58.1969 69.37C57.2169 69.37 56.6669 68.64 56.6669 67.35C56.6669 66.04 57.1869 65.32 58.1669 65.32C58.8669 65.32 59.4069 65.71 59.5469 66.52H60.4269ZM66.1445 68.27H65.2245C65.0345 69 64.5045 69.36 63.7545 69.36C62.7945 69.36 62.2345 68.69 62.1845 67.5H66.1045V67.28C66.1045 65.59 65.2045 64.56 63.7045 64.56C62.2145 64.56 61.2845 65.55 61.2845 67.35C61.2845 69.08 62.2145 70.12 63.7545 70.12C64.9645 70.12 65.8545 69.51 66.1445 68.27ZM63.7045 65.32C64.5345 65.32 65.0645 65.86 65.1845 66.84H62.2145C62.3445 65.85 62.8545 65.32 63.7045 65.32ZM67.9271 66.05C67.9271 65.61 68.3071 65.28 68.9671 65.28C69.7171 65.28 70.1771 65.59 70.3071 66.42H71.1871C71.0171 65.1 70.1671 64.56 69.0171 64.56C67.7171 64.56 67.0871 65.3 67.0871 66.11C67.0871 68.31 70.4971 67.11 70.4971 68.56C70.4971 69.06 70.0771 69.42 69.2771 69.42C68.4571 69.42 67.9071 69.01 67.7871 68.27H66.9071C67.1071 69.52 67.9871 70.12 69.2471 70.12C70.4971 70.12 71.3771 69.49 71.3771 68.5C71.3771 66.31 67.9271 67.53 67.9271 66.05ZM73.0736 66.05C73.0736 65.61 73.4536 65.28 74.1136 65.28C74.8636 65.28 75.3236 65.59 75.4536 66.42H76.3336C76.1636 65.1 75.3136 64.56 74.1636 64.56C72.8636 64.56 72.2336 65.3 72.2336 66.11C72.2336 68.31 75.6436 67.11 75.6436 68.56C75.6436 69.06 75.2236 69.42 74.4236 69.42C73.6036 69.42 73.0536 69.01 72.9336 68.27H72.0536C72.2536 69.52 73.1336 70.12 74.3936 70.12C75.6436 70.12 76.5236 69.49 76.5236 68.5C76.5236 66.31 73.0736 67.53 73.0736 66.05Z" fill="#49474D"/>
<path d="M86.2684 71H92.6104V70.02H87.5424C88.0604 67.402 92.5124 67.43 92.5124 64.518C92.5124 62.992 91.5044 61.83 89.5444 61.83C87.6264 61.83 86.4924 62.866 86.2544 64.56H87.5284C87.6964 63.524 88.2984 62.894 89.5304 62.894C90.6504 62.894 91.2524 63.51 91.2524 64.532C91.2524 66.954 86.2684 66.618 86.2684 70.664V71ZM97.4988 71.168C99.6828 71.168 100.999 69.516 100.999 66.506C100.999 63.566 99.7108 61.83 97.4988 61.83C95.3008 61.83 93.9848 63.496 93.9848 66.506C93.9848 69.432 95.2728 71.168 97.4988 71.168ZM97.4988 70.104C96.0568 70.104 95.2448 68.774 95.2448 66.506C95.2448 64.168 96.0428 62.894 97.4988 62.894C98.9268 62.894 99.7388 64.21 99.7388 66.506C99.7388 68.816 98.9408 70.104 97.4988 70.104ZM105.565 71.168C107.749 71.168 109.065 69.516 109.065 66.506C109.065 63.566 107.777 61.83 105.565 61.83C103.367 61.83 102.051 63.496 102.051 66.506C102.051 69.432 103.339 71.168 105.565 71.168ZM105.565 70.104C104.123 70.104 103.311 68.774 103.311 66.506C103.311 64.168 104.109 62.894 105.565 62.894C106.993 62.894 107.805 64.21 107.805 66.506C107.805 68.816 107.007 70.104 105.565 70.104Z" fill="#C1C0C2"/>
<circle cx="129.5" cy="66" r="3.5" fill="#E1891C"/>
<circle opacity="0.1" cx="129.5" cy="66" r="7.5" fill="#E1891C"/>
<path d="M141.784 70H142.704V67.52H144.124C145.644 67.52 146.624 66.72 146.624 65.35C146.624 64.02 145.654 63.2 144.114 63.2H141.784V70ZM144.104 63.95C145.074 63.95 145.674 64.5 145.674 65.36C145.674 66.23 145.084 66.77 144.074 66.77H142.704V63.95H144.104ZM152.31 68.27H151.39C151.2 69 150.67 69.36 149.92 69.36C148.96 69.36 148.4 68.69 148.35 67.5H152.27V67.28C152.27 65.59 151.37 64.56 149.87 64.56C148.38 64.56 147.45 65.55 147.45 67.35C147.45 69.08 148.38 70.12 149.92 70.12C151.13 70.12 152.02 69.51 152.31 68.27ZM149.87 65.32C150.7 65.32 151.23 65.86 151.35 66.84H148.38C148.51 65.85 149.02 65.32 149.87 65.32ZM153.442 70H154.322V66.86C154.322 66.1 154.842 65.31 155.722 65.31C156.522 65.31 156.882 65.83 156.882 66.63V70H157.762V66.45C157.762 65.22 157.092 64.56 155.962 64.56C155.262 64.56 154.682 64.85 154.322 65.41V64.69H153.442V70ZM161.155 70.12C161.785 70.12 162.295 69.83 162.645 69.33V70H163.525V62.8H162.645V65.31C162.295 64.82 161.785 64.56 161.155 64.56C159.765 64.56 158.895 65.55 158.895 67.35C158.895 69.08 159.745 70.12 161.155 70.12ZM161.215 69.36C160.315 69.36 159.795 68.63 159.795 67.35C159.795 66.04 160.295 65.32 161.215 65.32C162.125 65.32 162.645 66.06 162.645 67.35C162.645 68.65 162.145 69.36 161.215 69.36ZM164.927 63.98H165.807V62.8H164.927V63.98ZM164.927 70H165.807V64.69H164.927V70ZM167.202 70H168.082V66.86C168.082 66.1 168.602 65.31 169.482 65.31C170.282 65.31 170.642 65.83 170.642 66.63V70H171.522V66.45C171.522 65.22 170.852 64.56 169.722 64.56C169.022 64.56 168.442 64.85 168.082 65.41V64.69H167.202V70ZM174.815 70.04C175.495 70.04 176.035 69.78 176.405 69.28V70.19C176.405 71.18 175.885 71.6 175.105 71.6C174.335 71.6 173.785 71.22 173.675 70.52H172.795C172.985 71.73 173.865 72.33 175.115 72.33C176.335 72.33 177.285 71.64 177.285 70.16V64.69H176.405V65.27C176.055 64.81 175.525 64.56 174.815 64.56C173.485 64.56 172.655 65.53 172.655 67.31C172.655 69.01 173.465 70.04 174.815 70.04ZM174.975 69.28C174.065 69.28 173.555 68.56 173.555 67.31C173.555 66.02 174.055 65.32 174.975 65.32C175.885 65.32 176.405 66.05 176.405 67.3C176.405 68.58 175.905 69.28 174.975 69.28Z" fill="#49474D"/>
<path d="M187.268 71H193.61V70.02H188.542C189.06 67.402 193.512 67.43 193.512 64.518C193.512 62.992 192.504 61.83 190.544 61.83C188.626 61.83 187.492 62.866 187.254 64.56H188.528C188.696 63.524 189.298 62.894 190.53 62.894C191.65 62.894 192.252 63.51 192.252 64.532C192.252 66.954 187.268 66.618 187.268 70.664V71ZM198.499 71.168C200.683 71.168 201.999 69.516 201.999 66.506C201.999 63.566 200.711 61.83 198.499 61.83C196.301 61.83 194.985 63.496 194.985 66.506C194.985 69.432 196.273 71.168 198.499 71.168ZM198.499 70.104C197.057 70.104 196.245 68.774 196.245 66.506C196.245 64.168 197.043 62.894 198.499 62.894C199.927 62.894 200.739 64.21 200.739 66.506C200.739 68.816 199.941 70.104 198.499 70.104ZM206.565 71.168C208.749 71.168 210.065 69.516 210.065 66.506C210.065 63.566 208.777 61.83 206.565 61.83C204.367 61.83 203.051 63.496 203.051 66.506C203.051 69.432 204.339 71.168 206.565 71.168ZM206.565 70.104C205.123 70.104 204.311 68.774 204.311 66.506C204.311 64.168 205.109 62.894 206.565 62.894C207.993 62.894 208.805 64.21 208.805 66.506C208.805 68.816 208.007 70.104 206.565 70.104Z" fill="#C1C0C2"/>
<circle cx="230.5" cy="66" r="3.5" fill="#ED5556"/>
<circle opacity="0.1" cx="230.5" cy="66" r="7.5" fill="#ED5556"/>
<path d="M243.181 70H244.101V67.03H247.421V66.28H244.101V63.95H247.791V63.2H243.181V70ZM249.351 66.42C249.461 65.74 249.871 65.32 250.631 65.32C251.541 65.32 251.941 65.79 251.941 66.65V66.77C250.921 66.78 250.191 66.84 249.471 67.08C248.691 67.34 248.291 67.87 248.291 68.6C248.291 69.61 249.031 70.12 250.131 70.12C250.771 70.12 251.491 69.83 251.941 69.16C251.951 69.48 251.981 69.79 252.081 70H253.011C252.871 69.71 252.821 69.33 252.821 68.72V66.63C252.821 65.39 252.131 64.56 250.711 64.56C249.411 64.56 248.641 65.25 248.471 66.42H249.351ZM249.191 68.58C249.191 67.93 249.681 67.45 251.941 67.43V67.68C251.941 68.59 251.201 69.36 250.221 69.36C249.601 69.36 249.191 69.07 249.191 68.58ZM254.263 63.98H255.143V62.8H254.263V63.98ZM254.263 70H255.143V64.69H254.263V70ZM256.539 70H257.419V62.8H256.539V70ZM263.404 68.27H262.484C262.294 69 261.764 69.36 261.014 69.36C260.054 69.36 259.494 68.69 259.444 67.5H263.364V67.28C263.364 65.59 262.464 64.56 260.964 64.56C259.474 64.56 258.544 65.55 258.544 67.35C258.544 69.08 259.474 70.12 261.014 70.12C262.224 70.12 263.114 69.51 263.404 68.27ZM260.964 65.32C261.794 65.32 262.324 65.86 262.444 66.84H259.474C259.604 65.85 260.114 65.32 260.964 65.32ZM266.527 70.12C267.157 70.12 267.667 69.83 268.017 69.33V70H268.897V62.8H268.017V65.31C267.667 64.82 267.157 64.56 266.527 64.56C265.137 64.56 264.267 65.55 264.267 67.35C264.267 69.08 265.117 70.12 266.527 70.12ZM266.587 69.36C265.687 69.36 265.167 68.63 265.167 67.35C265.167 66.04 265.667 65.32 266.587 65.32C267.497 65.32 268.017 66.06 268.017 67.35C268.017 68.65 267.517 69.36 266.587 69.36Z" fill="#49474D"/>
<path d="M279.268 71H285.61V70.02H280.542C281.06 67.402 285.512 67.43 285.512 64.518C285.512 62.992 284.504 61.83 282.544 61.83C280.626 61.83 279.492 62.866 279.254 64.56H280.528C280.696 63.524 281.298 62.894 282.53 62.894C283.65 62.894 284.252 63.51 284.252 64.532C284.252 66.954 279.268 66.618 279.268 70.664V71ZM290.499 71.168C292.683 71.168 293.999 69.516 293.999 66.506C293.999 63.566 292.711 61.83 290.499 61.83C288.301 61.83 286.985 63.496 286.985 66.506C286.985 69.432 288.273 71.168 290.499 71.168ZM290.499 70.104C289.057 70.104 288.245 68.774 288.245 66.506C288.245 64.168 289.043 62.894 290.499 62.894C291.927 62.894 292.739 64.21 292.739 66.506C292.739 68.816 291.941 70.104 290.499 70.104ZM298.565 71.168C300.749 71.168 302.065 69.516 302.065 66.506C302.065 63.566 300.777 61.83 298.565 61.83C296.367 61.83 295.051 63.496 295.051 66.506C295.051 69.432 296.339 71.168 298.565 71.168ZM298.565 70.104C297.123 70.104 296.311 68.774 296.311 66.506C296.311 64.168 297.109 62.894 298.565 62.894C299.993 62.894 300.805 64.21 300.805 66.506C300.805 68.816 300.007 70.104 298.565 70.104Z" fill="#C1C0C2"/>
<path d="M22 104L375 104" stroke="#F0F0F0"/>
<path d="M22 143L375 143" stroke="#F0F0F0"/>
<path d="M22 182L375 182" stroke="#F0F0F0"/>
<path d="M22 221L375 221" stroke="#F0F0F0"/>
<path d="M22 260L375 260" stroke="#F0F0F0"/>
<path d="M22 299L375 299" stroke="#F0F0F0" stroke-dasharray="4 4"/>
<circle cx="280.5" cy="221.5" r="47.5" fill="#ED5556"/>
<ellipse cx="117" cy="194.5" rx="39" ry="38.5" fill="#F9C362"/>
<circle cx="213" cy="143" r="25" fill="#65D6BF"/>
<g filter="url(#filter0_dd_509_34166)">
<rect x="199" y="221" width="67" height="62" rx="8" fill="white"/>
<path d="M229.181 245H230.101V242.03H233.421V241.28H230.101V238.95H233.791V238.2H229.181V245ZM235.351 241.42C235.461 240.74 235.871 240.32 236.631 240.32C237.541 240.32 237.941 240.79 237.941 241.65V241.77C236.921 241.78 236.191 241.84 235.471 242.08C234.691 242.34 234.291 242.87 234.291 243.6C234.291 244.61 235.031 245.12 236.131 245.12C236.771 245.12 237.491 244.83 237.941 244.16C237.951 244.48 237.981 244.79 238.081 245H239.011C238.871 244.71 238.821 244.33 238.821 243.72V241.63C238.821 240.39 238.131 239.56 236.711 239.56C235.411 239.56 234.641 240.25 234.471 241.42H235.351ZM235.191 243.58C235.191 242.93 235.681 242.45 237.941 242.43V242.68C237.941 243.59 237.201 244.36 236.221 244.36C235.601 244.36 235.191 244.07 235.191 243.58ZM240.263 238.98H241.143V237.8H240.263V238.98ZM240.263 245H241.143V239.69H240.263V245ZM242.539 245H243.419V237.8H242.539V245ZM249.404 243.27H248.484C248.294 244 247.764 244.36 247.014 244.36C246.054 244.36 245.494 243.69 245.444 242.5H249.364V242.28C249.364 240.59 248.464 239.56 246.964 239.56C245.474 239.56 244.544 240.55 244.544 242.35C244.544 244.08 245.474 245.12 247.014 245.12C248.224 245.12 249.114 244.51 249.404 243.27ZM246.964 240.32C247.794 240.32 248.324 240.86 248.444 241.84H245.474C245.604 240.85 246.114 240.32 246.964 240.32ZM252.527 245.12C253.157 245.12 253.667 244.83 254.017 244.33V245H254.897V237.8H254.017V240.31C253.667 239.82 253.157 239.56 252.527 239.56C251.137 239.56 250.267 240.55 250.267 242.35C250.267 244.08 251.117 245.12 252.527 245.12ZM252.587 244.36C251.687 244.36 251.167 243.63 251.167 242.35C251.167 241.04 251.667 240.32 252.587 240.32C253.497 240.32 254.017 241.06 254.017 242.35C254.017 243.65 253.517 244.36 252.587 244.36Z" fill="#49474D"/>
<path d="M229.268 265H235.61V264.02H230.542C231.06 261.402 235.512 261.43 235.512 258.518C235.512 256.992 234.504 255.83 232.544 255.83C230.626 255.83 229.492 256.866 229.254 258.56H230.528C230.696 257.524 231.298 256.894 232.53 256.894C233.65 256.894 234.252 257.51 234.252 258.532C234.252 260.954 229.268 260.618 229.268 264.664V265ZM240.499 265.168C242.683 265.168 243.999 263.516 243.999 260.506C243.999 257.566 242.711 255.83 240.499 255.83C238.301 255.83 236.985 257.496 236.985 260.506C236.985 263.432 238.273 265.168 240.499 265.168ZM240.499 264.104C239.057 264.104 238.245 262.774 238.245 260.506C238.245 258.168 239.043 256.894 240.499 256.894C241.927 256.894 242.739 258.21 242.739 260.506C242.739 262.816 241.941 264.104 240.499 264.104ZM248.565 265.168C250.749 265.168 252.065 263.516 252.065 260.506C252.065 257.566 250.777 255.83 248.565 255.83C246.367 255.83 245.051 257.496 245.051 260.506C245.051 263.432 246.339 265.168 248.565 265.168ZM248.565 264.104C247.123 264.104 246.311 262.774 246.311 260.506C246.311 258.168 247.109 256.894 248.565 256.894C249.993 256.894 250.805 258.21 250.805 260.506C250.805 262.816 250.007 264.104 248.565 264.104Z" fill="#C1C0C2"/>
<circle cx="216.5" cy="241.5" r="3.5" fill="#ED5556"/>
<circle opacity="0.1" cx="216.5" cy="241.5" r="7.5" fill="#ED5556"/>
</g>
<rect x="0.5" y="0.5" width="395" height="298" rx="7.5" stroke="#DAD9DA"/>
<path d="M25.1812 34H28.0792V24.118H31.8772V21.76H21.3832V24.118H25.1812V34ZM32.5571 34H35.3111V28.996C35.3111 27.466 36.0491 26.53 37.7051 26.53C38.1371 26.53 38.4791 26.566 38.8031 26.638V24.316C38.6051 24.118 38.2451 24.01 37.8491 24.01C36.8591 24.01 35.9231 24.514 35.3111 25.666V24.316H32.5571V34ZM42.5344 27.52C42.6604 26.764 43.1644 26.242 44.1004 26.242C45.1624 26.242 45.6844 26.8 45.6844 27.862V28.078C44.1904 28.096 42.9844 28.222 41.7244 28.636C40.1944 29.176 39.4384 30.184 39.4384 31.498C39.4384 33.352 40.8064 34.288 42.6424 34.288C43.7944 34.288 44.9464 33.838 45.7024 32.794C45.7204 33.262 45.7744 33.676 45.8644 34H48.7084C48.5464 33.496 48.4384 32.848 48.4384 31.588V27.88C48.4384 25.63 46.9984 24.01 44.2264 24.01C41.7424 24.01 40.0684 25.342 39.7804 27.52H42.5344ZM42.1924 31.318C42.1924 30.418 42.8944 29.734 45.6844 29.68V30.058C45.6844 31.39 44.7124 32.38 43.4884 32.38C42.6784 32.38 42.1924 31.966 42.1924 31.318ZM50.3989 34H53.1529V28.438C53.1529 27.196 53.8549 26.242 54.9529 26.242C55.9609 26.242 56.4469 26.872 56.4469 28.096V34H59.2009V27.538C59.2009 25.144 57.8149 24.01 55.9609 24.01C54.7729 24.01 53.7829 24.514 53.1529 25.594V24.316H50.3989V34ZM63.4628 26.998C63.4628 26.476 63.9308 26.116 64.6508 26.116C65.6228 26.116 66.1988 26.53 66.3608 27.52H69.0968C68.8268 25.072 67.0628 24.01 64.7408 24.01C62.1488 24.01 60.8348 25.522 60.8348 27.142C60.8348 31.03 66.7028 29.356 66.7028 31.228C66.7028 31.822 66.2168 32.2 65.2448 32.2C64.2188 32.2 63.4808 31.714 63.3548 30.814H60.6008C60.9608 33.208 62.7248 34.288 65.1728 34.288C67.6928 34.288 69.4568 32.974 69.4568 31.066C69.4568 27.232 63.4628 28.906 63.4628 26.998ZM73.5423 27.52C73.6683 26.764 74.1723 26.242 75.1083 26.242C76.1703 26.242 76.6923 26.8 76.6923 27.862V28.078C75.1982 28.096 73.9923 28.222 72.7323 28.636C71.2023 29.176 70.4463 30.184 70.4463 31.498C70.4463 33.352 71.8143 34.288 73.6503 34.288C74.8023 34.288 75.9543 33.838 76.7103 32.794C76.7283 33.262 76.7823 33.676 76.8723 34H79.7163C79.5543 33.496 79.4463 32.848 79.4463 31.588V27.88C79.4463 25.63 78.0063 24.01 75.2343 24.01C72.7503 24.01 71.0763 25.342 70.7883 27.52H73.5423ZM73.2003 31.318C73.2003 30.418 73.9023 29.734 76.6923 29.68V30.058C76.6923 31.39 75.7203 32.38 74.4963 32.38C73.6863 32.38 73.2003 31.966 73.2003 31.318ZM90.0467 27.808C89.7047 25.27 87.9227 24.01 85.6727 24.01C82.8287 24.01 80.9927 25.864 80.9927 29.158C80.9927 32.326 82.7927 34.288 85.6907 34.288C87.9407 34.288 89.6867 33.118 90.1007 30.688H87.3467C87.1487 31.588 86.5727 32.056 85.7447 32.056C84.4847 32.056 83.8187 31.03 83.8187 29.158C83.8187 27.268 84.4487 26.242 85.6727 26.242C86.4647 26.242 87.1127 26.674 87.2927 27.808H90.0467ZM91.8565 30.85C91.8565 33.1 92.8465 34.288 94.9165 34.288C95.6545 34.288 96.2665 34.18 96.5725 34.036V31.966H96.0505C94.8625 31.966 94.6105 31.444 94.6105 30.508V26.404H96.5905V24.316H94.6105V22.066H91.8565V24.316H90.6685V26.404H91.8565V30.85ZM97.8247 23.344H100.579V21.04H97.8247V23.344ZM97.8247 34H100.579V24.316H97.8247V34ZM106.768 34.288C109.648 34.288 111.538 32.434 111.538 29.158C111.538 25.99 109.702 24.01 106.768 24.01C103.888 24.01 102.016 25.864 102.016 29.158C102.016 32.344 103.834 34.288 106.768 34.288ZM106.768 32.056C105.526 32.056 104.842 31.03 104.842 29.158C104.842 27.268 105.508 26.242 106.768 26.242C108.028 26.242 108.712 27.286 108.712 29.158C108.712 31.048 108.046 32.056 106.768 32.056ZM112.995 34H115.749V28.438C115.749 27.196 116.451 26.242 117.549 26.242C118.557 26.242 119.043 26.872 119.043 28.096V34H121.797V27.538C121.797 25.144 120.411 24.01 118.557 24.01C117.369 24.01 116.379 24.514 115.749 25.594V24.316H112.995V34ZM129.757 24.91C129.757 24.19 130.387 23.722 131.395 23.722C132.583 23.722 133.285 24.298 133.537 25.504H136.615C136.237 22.678 134.041 21.472 131.503 21.472C128.497 21.472 126.787 23.128 126.787 25.18C126.787 30.022 134.005 27.934 134.005 30.67C134.005 31.516 133.321 32.038 132.025 32.038C130.729 32.038 129.883 31.372 129.649 30.166H126.607C127.039 32.956 129.109 34.288 132.007 34.288C134.869 34.288 136.957 32.83 136.957 30.31C136.957 25.306 129.757 27.52 129.757 24.91ZM138.737 30.85C138.737 33.1 139.727 34.288 141.797 34.288C142.535 34.288 143.147 34.18 143.453 34.036V31.966H142.931C141.743 31.966 141.491 31.444 141.491 30.508V26.404H143.471V24.316H141.491V22.066H138.737V24.316H137.549V26.404H138.737V30.85ZM147.406 27.52C147.532 26.764 148.036 26.242 148.972 26.242C150.034 26.242 150.556 26.8 150.556 27.862V28.078C149.062 28.096 147.856 28.222 146.596 28.636C145.066 29.176 144.31 30.184 144.31 31.498C144.31 33.352 145.678 34.288 147.514 34.288C148.666 34.288 149.818 33.838 150.574 32.794C150.592 33.262 150.646 33.676 150.736 34H153.58C153.418 33.496 153.31 32.848 153.31 31.588V27.88C153.31 25.63 151.87 24.01 149.098 24.01C146.614 24.01 144.94 25.342 144.652 27.52H147.406ZM147.064 31.318C147.064 30.418 147.766 29.734 150.556 29.68V30.058C150.556 31.39 149.584 32.38 148.36 32.38C147.55 32.38 147.064 31.966 147.064 31.318ZM155.63 30.85C155.63 33.1 156.62 34.288 158.69 34.288C159.428 34.288 160.04 34.18 160.346 34.036V31.966H159.824C158.636 31.966 158.384 31.444 158.384 30.508V26.404H160.364V24.316H158.384V22.066H155.63V24.316H154.442V26.404H155.63V30.85ZM167.538 29.878C167.538 31.12 166.854 32.056 165.792 32.056C164.82 32.056 164.352 31.444 164.352 30.202V24.316H161.598V30.76C161.598 33.172 162.948 34.288 164.784 34.288C165.954 34.288 166.908 33.784 167.538 32.704V34H170.292V24.316H167.538V29.878ZM174.557 26.998C174.557 26.476 175.025 26.116 175.745 26.116C176.717 26.116 177.293 26.53 177.455 27.52H180.191C179.921 25.072 178.157 24.01 175.835 24.01C173.243 24.01 171.929 25.522 171.929 27.142C171.929 31.03 177.797 29.356 177.797 31.228C177.797 31.822 177.311 32.2 176.339 32.2C175.313 32.2 174.575 31.714 174.449 30.814H171.695C172.055 33.208 173.819 34.288 176.267 34.288C178.787 34.288 180.551 32.974 180.551 31.066C180.551 27.232 174.557 28.906 174.557 26.998Z" fill="#2B2930"/>
<defs>
<filter id="filter0_dd_509_34166" x="198" y="220" width="69" height="69" filterUnits="userSpaceOnUse" color-interpolation-filters="sRGB">
<feFlood flood-opacity="0" result="BackgroundImageFix"/>
<feColorMatrix in="SourceAlpha" type="matrix" values="0 0 0 0 0 0 0 0 0 0 0 0 0 0 0 0 0 0 127 0" result="hardAlpha"/>
<feOffset/>
<feGaussianBlur stdDeviation="0.5"/>
<feColorMatrix type="matrix" values="0 0 0 0 0.756863 0 0 0 0 0.760784 0 0 0 0 0.776471 0 0 0 0.4 0"/>
<feBlend mode="normal" in2="BackgroundImageFix" result="effect1_dropShadow_509_34166"/>
<feColorMatrix in="SourceAlpha" type="matrix" values="0 0 0 0 0 0 0 0 0 0 0 0 0 0 0 0 0 0 127 0" result="hardAlpha"/>
<feMorphology radius="6" operator="erode" in="SourceAlpha" result="effect2_dropShadow_509_34166"/>
<feOffset dy="6"/>
<feGaussianBlur stdDeviation="3"/>
<feColorMatrix type="matrix" values="0 0 0 0 0.756863 0 0 0 0 0.760784 0 0 0 0 0.776471 0 0 0 0.16 0"/>
<feBlend mode="normal" in2="effect1_dropShadow_509_34166" result="effect2_dropShadow_509_34166"/>
<feBlend mode="normal" in="SourceGraphic" in2="effect2_dropShadow_509_34166" result="shape"/>
</filter>
</defs>
</svg>
