<svg width="36" height="36" viewBox="0 0 36 36" fill="none" xmlns="http://www.w3.org/2000/svg">
<path opacity="0.4" d="M15.7495 3.60184C16.7603 2.73445 18.4159 2.73445 19.4414 3.60184L21.7562 5.60124C22.1957 5.98348 23.0162 6.29221 23.6022 6.29221H26.0928C27.6457 6.29221 28.9203 7.57124 28.9203 9.1296V11.6288C28.9203 12.2022 29.228 13.0402 29.6089 13.4812L31.6014 15.8041C32.4658 16.8185 32.4658 18.4797 31.6014 19.5089L29.6089 21.8317C29.228 22.2727 28.9203 23.096 28.9203 23.6841V26.1833C28.9203 27.7417 27.6457 29.0207 26.0928 29.0207H23.6022C23.0308 29.0207 22.1957 29.3294 21.7562 29.7117L19.4414 31.7111C18.4305 32.5785 16.775 32.5785 15.7495 31.7111L13.4347 29.7117C12.9951 29.3294 12.1747 29.0207 11.5887 29.0207H9.05413C7.50116 29.0207 6.22656 27.7417 6.22656 26.1833V23.6694C6.22656 23.096 5.9189 22.2727 5.55263 21.8317L3.5748 19.4942C2.72507 18.4797 2.72507 16.8332 3.5748 15.8188L5.55263 13.4812C5.9189 13.0402 6.22656 12.2169 6.22656 11.6436V9.11489C6.22656 7.55654 7.50116 6.27751 9.05413 6.27751H11.5887C12.1601 6.27751 12.9951 5.96878 13.4347 5.58654L15.7495 3.60184Z" fill="#0DBF66"/>
<path d="M15.8081 22.3021C15.515 22.3021 15.2367 22.1845 15.0316 21.9787L11.4861 18.4209C11.0613 17.9946 11.0613 17.2889 11.4861 16.8626C11.911 16.4362 12.6142 16.4362 13.0391 16.8626L15.8081 19.6412L22.1078 13.3195C22.5327 12.8932 23.2359 12.8932 23.6608 13.3195C24.0856 13.7459 24.0856 14.4515 23.6608 14.8779L16.5845 21.9787C16.3794 22.1845 16.1011 22.3021 15.8081 22.3021Z" fill="#0DBF66"/>
</svg>
