<svg width="88" height="88" viewBox="0 0 88 88" fill="none" xmlns="http://www.w3.org/2000/svg">
<path opacity="0.4" d="M44 8.9375C37.0653 8.9375 30.2863 10.9939 24.5203 14.8466C18.7543 18.6993 14.2603 24.1753 11.6065 30.5822C8.95269 36.989 8.25834 44.0389 9.61123 50.8404C10.9641 57.6418 14.3035 63.8894 19.2071 68.7929C24.1107 73.6965 30.3582 77.0359 37.1597 78.3888C43.9611 79.7417 51.011 79.0473 57.4179 76.3935C63.8247 73.7397 69.3007 69.2457 73.1534 63.4797C77.0061 57.7137 79.0625 50.9347 79.0625 44C79.0443 34.7064 75.3444 25.7987 68.7729 19.2271C62.2013 12.6556 53.2936 8.95567 44 8.9375ZM44 74.9375C37.8812 74.9375 31.8997 73.123 26.8121 69.7236C21.7244 66.3241 17.7591 61.4924 15.4175 55.8393C13.0759 50.1862 12.4632 43.9657 13.657 37.9644C14.8507 31.9631 17.7972 26.4506 22.1239 22.1239C26.4506 17.7972 31.9631 14.8507 37.9644 13.657C43.9657 12.4632 50.1862 13.0759 55.8393 15.4175C61.4924 17.7591 66.3242 21.7244 69.7236 26.812C73.1231 31.8997 74.9375 37.8811 74.9375 44C74.9284 52.2023 71.666 60.0661 65.8661 65.8661C60.0662 71.666 52.2024 74.9284 44 74.9375Z" fill="#E1891C"/>
<path d="M41.9375 27.5V46.75C41.9375 47.297 42.1548 47.8216 42.5416 48.2084C42.9284 48.5952 43.453 48.8125 44 48.8125C44.547 48.8125 45.0716 48.5952 45.4584 48.2084C45.8452 47.8216 46.0625 47.297 46.0625 46.75V27.5C46.0625 26.953 45.8452 26.4284 45.4584 26.0416C45.0716 25.6548 44.547 25.4375 44 25.4375C43.453 25.4375 42.9284 25.6548 42.5416 26.0416C42.1548 26.4284 41.9375 26.953 41.9375 27.5Z" fill="#E1891C"/>
<path d="M46.8582 61.0348C47.2359 60.4695 47.4375 59.8049 47.4375 59.125C47.4375 58.2133 47.0753 57.339 46.4307 56.6943C45.786 56.0497 44.9117 55.6875 44 55.6875C43.3201 55.6875 42.6555 55.8891 42.0902 56.2668C41.5249 56.6445 41.0843 57.1814 40.8242 57.8095C40.564 58.4376 40.4959 59.1288 40.6286 59.7956C40.7612 60.4624 41.0886 61.0749 41.5693 61.5557C42.0501 62.0364 42.6626 62.3638 43.3294 62.4964C43.9962 62.6291 44.6874 62.561 45.3155 62.3008C45.9436 62.0407 46.4805 61.6001 46.8582 61.0348Z" fill="#E1891C"/>
</svg>
