<svg width="53" height="53" viewBox="0 0 53 53" fill="none" xmlns="http://www.w3.org/2000/svg">
<path fill-rule="evenodd" clip-rule="evenodd" d="M26.5 50C39.4787 50 50 39.4787 50 26.5C50 13.5213 39.4787 3 26.5 3C13.5213 3 3 13.5213 3 26.5C3 39.4787 13.5213 50 26.5 50Z" fill="#ED5556" stroke="white" stroke-width="6"/>
<path d="M26.3782 30.6852C26.1232 31.202 26.2239 31.8261 26.6336 32.2292C26.8886 32.4909 27.2309 32.6253 27.5799 32.6253C27.7815 32.6253 27.9897 32.5781 28.1776 32.4843L30.8631 31.1415C30.9975 31.0747 31.1115 30.9941 31.2122 30.8865L32.5415 29.5569V33.6324C32.5415 34.5588 31.7895 35.3108 30.863 35.3108H18.107C17.1806 35.3108 16.4286 34.5588 16.4286 33.6324V21.212H20.7925C21.7189 21.212 22.4709 20.46 22.4709 19.5336V15.1697H30.863C31.7895 15.1697 32.5415 15.9217 32.5415 16.8481V23.0715L27.9692 27.6506C27.8685 27.7516 27.7879 27.8657 27.7208 28.0001L26.3782 30.6852ZM21.605 30.1345C21.343 29.8729 20.9137 29.8729 20.6517 30.1345L19.7855 31.0073L19.5909 30.806C19.3289 30.5444 18.8995 30.5444 18.6376 30.806C18.3756 31.0677 18.3756 31.4978 18.6376 31.7593L19.309 32.4307C19.4432 32.5585 19.6111 32.6254 19.7855 32.6254C19.96 32.6254 20.1278 32.5585 20.2622 32.4307L21.605 31.0879C21.8668 30.8263 21.8668 30.3962 21.605 30.1345ZM21.605 26.7777C21.343 26.516 20.9137 26.516 20.6517 26.7777L19.7855 27.6505L19.5909 27.4492C19.3289 27.1875 18.8995 27.1875 18.6376 27.4492C18.3756 27.7108 18.3756 28.1409 18.6376 28.4025L19.309 29.0738C19.4432 29.2017 19.6111 29.2685 19.7855 29.2685C19.96 29.2685 20.1278 29.2017 20.2622 29.0738L21.605 27.7311C21.8668 27.4694 21.8668 27.0394 21.605 26.7777ZM21.605 23.4208C21.343 23.1592 20.9137 23.1592 20.6517 23.4208L19.7855 24.2936L19.5909 24.0923C19.3289 23.8307 18.8995 23.8307 18.6376 24.0923C18.3756 24.354 18.3756 24.7841 18.6376 25.0456L19.309 25.717C19.4432 25.8448 19.6111 25.9116 19.7855 25.9116C19.96 25.9116 20.1278 25.8448 20.2622 25.717L21.605 24.3742C21.8668 24.1126 21.8668 23.6825 21.605 23.4208ZM23.1424 24.5689C23.1424 24.938 23.4446 25.2403 23.8137 25.2403H29.8561C30.2252 25.2403 30.5274 24.938 30.5274 24.5689C30.5274 24.1998 30.2252 23.8975 29.8561 23.8975H23.8137C23.4446 23.8975 23.1424 24.1998 23.1424 24.5689ZM25.8279 31.2826C25.8279 30.9135 25.5256 30.6112 25.1565 30.6112H23.8137C23.4446 30.6112 23.1424 30.9135 23.1424 31.2826C23.1424 31.6517 23.4446 31.954 23.8137 31.954H25.1565C25.5256 31.954 25.8279 31.6517 25.8279 31.2826ZM26.4992 27.9258C26.4992 27.5567 26.197 27.2544 25.8279 27.2544H23.8137C23.4446 27.2544 23.1424 27.5567 23.1424 27.9258C23.1424 28.2949 23.4446 28.5971 23.8137 28.5971H25.8279C26.197 28.5971 26.4992 28.2949 26.4992 27.9258Z" fill="white"/>
<path opacity="0.4" d="M16.8181 19.8693H20.7926C20.9739 19.8693 21.1283 19.7146 21.1283 19.5336V15.5591L16.8181 19.8693Z" fill="white"/>
<g opacity="0.4">
<path d="M27.5797 31.2825L28.9225 28.5971L33.1452 24.3743L34.4879 25.7171L30.2652 29.9398L27.5797 31.2825Z" fill="white"/>
<path d="M34.9179 22.5947C35.314 22.2059 35.9384 22.1856 36.3075 22.5547C36.6771 22.9238 36.6567 23.5487 36.2606 23.9375L35.4349 24.7637L34.0922 23.4209L34.9179 22.5947Z" fill="white"/>
</g>
</svg>
