<svg width="20" height="20" viewBox="0 0 20 20" fill="none" xmlns="http://www.w3.org/2000/svg">
<path d="M10 2.49866C5.41836 2.49866 1.66668 5.83282 1.66668 9.99865C1.66668 11.3511 2.07002 12.6611 2.81252 13.8003C2.93085 13.9828 3.0342 14.3953 2.96836 14.7903C2.90169 15.1986 2.68835 15.5978 2.26585 15.832C2.13418 15.9053 1.67085 16.1086 1.66668 16.6653C1.66252 17.222 2.14252 17.4961 2.50002 17.4986C3.34585 17.5053 8.54419 17.4986 10 17.4986C14.5817 17.4986 18.3334 14.1645 18.3334 9.99865C18.3334 5.83282 14.5817 2.49866 10 2.49866ZM10 4.16532C13.7025 4.16532 16.6667 6.80032 16.6667 9.99865C16.6667 13.197 13.7025 15.832 10 15.832C8.89336 15.832 6.35336 15.832 4.37502 15.832C4.75752 15.0378 4.72919 13.777 4.19253 12.8895C3.65419 11.9978 3.33335 11.0228 3.33335 9.99865C3.33335 6.80032 6.29752 4.16532 10 4.16532Z" fill="black"/>
</svg>
