<svg width="20" height="20" viewBox="0 0 20 20" fill="none" xmlns="http://www.w3.org/2000/svg">
<path d="M9.99999 3.33148C7.53095 3.33148 5.45075 4.54314 3.74186 6.5348C3.15693 7.21564 2.64543 7.94314 2.22906 8.66981C1.9779 9.10981 1.82436 9.4498 1.73424 9.6598C1.64413 9.86897 1.64413 10.1273 1.73424 10.3365C1.82436 10.5465 1.9779 10.8865 2.22906 11.3265C2.64543 12.0531 3.15693 12.7806 3.74186 13.4615C5.45075 15.4531 7.53095 16.6648 9.99999 16.6648C12.469 16.6648 14.5492 15.4531 16.2581 13.4615C16.8422 12.7806 17.3546 12.0531 17.7701 11.3265C18.0221 10.8865 18.1756 10.5465 18.2657 10.3365C18.3559 10.1273 18.3559 9.86897 18.2657 9.6598C18.1756 9.4498 18.0221 9.10981 17.7701 8.66981C17.3546 7.94314 16.8422 7.21564 16.2581 6.5348C14.5492 4.54314 12.469 3.33148 9.99999 3.33148ZM9.99999 4.99815C11.9116 4.99815 13.5863 5.97398 15.0065 7.62815C15.5172 8.22314 15.9436 8.86314 16.3099 9.50314C16.4392 9.72897 16.4951 9.84564 16.571 9.99814C16.4951 10.1506 16.4392 10.2673 16.3099 10.4931C15.9436 11.1331 15.5172 11.7731 15.0065 12.3681C13.5863 14.0223 11.9116 14.9981 9.99999 14.9981C8.08834 14.9981 6.41366 14.0223 4.99348 12.3681C4.48282 11.7731 4.05643 11.1331 3.68929 10.4931C3.56079 10.2673 3.50488 10.1506 3.42895 9.99814C3.50488 9.84564 3.56079 9.72897 3.68929 9.50314C4.05643 8.86314 4.48282 8.22314 4.99348 7.62815C6.41366 5.97398 8.08834 4.99815 9.99999 4.99815Z" fill="#1B293A"/>
<path d="M9.99999 6.66669C8.15916 6.66669 6.66666 8.15918 6.66666 10C6.66666 11.8408 8.15916 13.3333 9.99999 13.3333C11.8408 13.3333 13.3333 11.8408 13.3333 10C13.3333 9.54001 12.96 9.16668 12.5 9.16668C12.04 9.16668 11.6667 9.54001 11.6667 10C11.6667 10.9208 10.92 11.6667 9.99999 11.6667C9.07916 11.6667 8.33332 10.9208 8.33332 10C8.33332 9.07918 9.07916 8.33335 9.99999 8.33335C10.2042 8.33335 10.4133 8.36752 10.5992 8.43752C11.0292 8.60002 11.5042 8.37336 11.6667 7.94252C11.8292 7.51252 11.6025 7.03752 11.1717 6.87502C10.7983 6.73419 10.4058 6.66669 9.99999 6.66669Z" fill="black"/>
</svg>
