<svg width="500" height="306" viewBox="0 0 500 306" fill="none" xmlns="http://www.w3.org/2000/svg">
<g clip-path="url(#clip0_5094_105031)">
<path d="M154.12 8.62L122.91 83.56H135.62V58.33H175.05V83.56H190V114.39H175.05V139.81H135.62V114.39H79.74V86.39L113.38 8.62H154.12Z" fill="#6530BC"/>
<path d="M301.19 74.22C301.19 117.22 282.31 140.93 248.3 140.93C213.92 140.93 195.23 117.2 195.23 74.22C195.23 31.24 213.92 7.5 248.3 7.5C282.31 7.5 301.19 31.23 301.19 74.22ZM236.19 74.22C236.19 101.69 238.99 111.78 248.33 111.78C257.49 111.78 260.33 101.69 260.33 74.22C260.33 46.56 257.53 36.65 248.33 36.65C239 36.65 236.16 46.56 236.16 74.22H236.19Z" fill="#6530BC"/>
<path d="M384.72 8.62L353.52 83.56H366.22V58.33H405.65V83.56H420.65V114.39H405.65V139.81H366.22V114.39H310.35V86.39L344 8.62H384.72Z" fill="#6530BC"/>
<path d="M500.08 219.31C500.08 219.31 388.28 236.66 371.63 189.48C355.56 143.96 355.12 108.33 344.83 99.33" stroke="#485F66" stroke-miterlimit="10"/>
<path d="M0.0800781 219.31C0.0800781 219.31 112.08 236.66 128.71 189.48C144.78 143.96 145.23 108.33 155.52 99.33" stroke="#485F66" stroke-miterlimit="10"/>
<path d="M277.82 235.82L273.2 266.74H262.97L258.34 235.82H277.82Z" fill="#395156"/>
<path d="M273.22 235.82L268.59 266.74H262.97L258.34 235.82H273.22Z" fill="#485F66"/>
<path d="M271.86 285.13L289.26 280.76L273.85 266.05H263.01V271.12L271.86 285.13Z" fill="#395156"/>
<path d="M276.2 222.57L263.31 224.65L262.51 224.78L256.77 225.7L256.6 225L246.78 186.58L254.32 185.57L255.11 185.47L265.47 184.1L269.92 183.51L276.2 222.57Z" fill="#395156"/>
<path d="M271.66 222.57L258.76 224.65L257.97 224.78L256.6 225L246.78 186.58L254.32 185.57L255.11 185.47L265.47 184.1L271.66 222.57Z" fill="#485F66"/>
<path d="M256.574 229.482L277.514 226.109L276.702 221.064L255.762 224.437L256.574 229.482Z" fill="#395156"/>
<path d="M278.51 230.98L275.32 231.32L257.42 233.26L256.87 228.18L274.77 226.24L277.96 225.9L278.51 230.98Z" fill="#395156"/>
<path d="M274.76 226.255L256.865 228.192L257.415 233.273L275.31 231.335L274.76 226.255Z" fill="#485F66"/>
<path d="M257.497 237.841L278.637 236.111L278.22 231.018L257.081 232.748L257.497 237.841Z" fill="#395156"/>
<path d="M289.26 280.76V284.54L271.86 285.13L289.26 280.76Z" fill="#485F66"/>
<path d="M268.26 271.14L267.46 271.22L263.99 231.82L262.51 224.78L254.32 185.57L255.11 185.47L263.31 224.65L264.78 231.7L268.26 271.14Z" fill="#395156"/>
<path d="M239.49 235.82L234.86 266.74H224.62L220 235.82H239.49Z" fill="#395156"/>
<path d="M235.74 235.82L231.12 266.74H224.62L220 235.82H235.74Z" fill="#485F66"/>
<path d="M225.96 285.13L208.57 280.76L224.51 265.91L234.81 266.05V271.12L225.96 285.13Z" fill="#395156"/>
<path d="M251.35 186.58L241.35 225.7L237.56 225.09L236.32 224.89L235.53 224.76L221.91 222.57L228.12 184.02L228.2 183.51L243.72 185.57L244.53 185.67L251.35 186.58Z" fill="#395156"/>
<path d="M247.41 186.58L237.56 225.09L236.32 224.89L235.53 224.76L221.91 222.57L228.12 184.02L239.78 185.57L240.58 185.67L247.41 186.58Z" fill="#485F66"/>
<path d="M242.06 224.43L241.25 229.47L220.3 226.09L221.11 221.05L235.81 223.42L236.6 223.54L242.06 224.43Z" fill="#395156"/>
<path d="M240.95 228.18L240.41 233.26L236.84 232.88L219.32 230.98L219.86 225.9L237.39 227.8L240.95 228.18Z" fill="#395156"/>
<path d="M237.39 227.8L236.84 232.88L219.32 230.98L219.86 225.9L237.39 227.8Z" fill="#485F66"/>
<path d="M240.787 232.757L219.648 231.026L219.231 236.119L240.37 237.85L240.787 232.757Z" fill="#395156"/>
<path d="M208.57 280.76V284.5L225.96 285.13L208.57 280.76Z" fill="#485F66"/>
<path d="M233.72 235.82H234.52L231.79 266.74H230.99L233.72 235.82Z" fill="#395156"/>
<path d="M244.53 185.67L236.6 223.54L235.81 223.42L243.72 185.57L244.53 185.67Z" fill="#395156"/>
<path d="M249.03 2.62H247.78V22.05H249.03V2.62Z" fill="#6D8189"/>
<path d="M254.44 27.59H243.17V26.59C243.169 25.8498 243.314 25.1166 243.596 24.4324C243.878 23.7482 244.293 23.1264 244.816 22.6025C245.339 22.0787 245.96 21.6631 246.643 21.3795C247.327 21.096 248.06 20.95 248.8 20.95C250.296 20.95 251.731 21.5442 252.788 22.6019C253.846 23.6596 254.44 25.0942 254.44 26.59V27.59Z" fill="#485F66"/>
<path d="M302.629 118.13L308.258 126.25L336.776 106.481L331.147 98.3613L302.629 118.13Z" fill="#485F66"/>
<path d="M269.45 121.03L301.55 128.83L304.41 118.36L267.6 102.79L269.45 121.03Z" fill="#485F66"/>
<path d="M297.55 123.29C297.55 124.439 297.891 125.562 298.529 126.518C299.168 127.473 300.075 128.218 301.137 128.658C302.198 129.097 303.367 129.213 304.494 128.988C305.621 128.764 306.656 128.211 307.468 127.398C308.281 126.586 308.834 125.55 309.058 124.423C309.283 123.296 309.168 122.128 308.728 121.067C308.288 120.005 307.543 119.098 306.588 118.459C305.632 117.821 304.509 117.48 303.36 117.48C301.819 117.48 300.341 118.092 299.252 119.182C298.162 120.271 297.55 121.749 297.55 123.29Z" fill="#6D8189"/>
<path d="M299.92 123.29C299.92 123.97 300.122 124.635 300.5 125.201C300.878 125.767 301.415 126.208 302.044 126.468C302.672 126.728 303.364 126.797 304.031 126.664C304.699 126.531 305.312 126.204 305.793 125.722C306.274 125.241 306.601 124.628 306.734 123.961C306.867 123.294 306.799 122.602 306.538 121.974C306.278 121.345 305.837 120.808 305.271 120.43C304.706 120.052 304.041 119.85 303.36 119.85C302.448 119.85 301.573 120.212 300.928 120.858C300.283 121.503 299.92 122.378 299.92 123.29Z" fill="#485F66"/>
<path d="M336.32 85.92L332.81 89.64C331.863 90.642 331.122 91.8208 330.63 93.1091C330.138 94.3974 329.905 95.77 329.943 97.1484C329.982 98.5269 330.291 99.8843 330.854 101.143C331.418 102.402 332.223 103.537 333.225 104.485C334.227 105.432 335.406 106.173 336.694 106.665C337.982 107.157 339.355 107.391 340.734 107.352C342.112 107.313 343.469 107.004 344.728 106.441C345.987 105.878 347.123 105.072 348.07 104.07L351.58 100.35L347.58 96.57L344.2 100.14C343.274 101.03 342.041 101.529 340.757 101.535C339.472 101.54 338.235 101.051 337.302 100.169C336.368 99.2868 335.81 98.0793 335.743 96.7968C335.675 95.5142 336.104 94.255 336.94 93.28L340.32 89.7L336.32 85.92Z" fill="#6D8189"/>
<path d="M165.864 98.3526L160.235 106.472L188.753 126.241L194.382 118.122L165.864 98.3526Z" fill="#485F66"/>
<path d="M227.55 121.03L195.46 128.83L192.59 118.36L229.4 103.23L227.55 121.03Z" fill="#485F66"/>
<path d="M268.46 32.72V80.57C268.45 83.073 267.449 85.4699 265.676 87.237C263.903 89.004 261.503 89.9974 259 90H238.86C236.35 89.9974 233.944 88.9985 232.17 87.2228C230.397 85.4471 229.4 83.0399 229.4 80.53V35C229.398 32.6767 230.253 30.4342 231.801 28.7017C233.349 26.9692 235.481 25.8684 237.79 25.61L254.63 23.71L257.94 23.33C259.263 23.1809 260.602 23.3125 261.87 23.7162C263.138 24.1199 264.307 24.7867 265.3 25.6729C266.292 26.5592 267.087 27.6449 267.632 28.8592C268.176 30.0736 268.459 31.3892 268.46 32.72Z" fill="#63797F"/>
<path d="M261.25 32.72V80.57C261.24 83.0747 260.237 85.4732 258.462 87.2405C256.688 89.0078 254.285 90 251.78 90H238.86C236.35 89.9974 233.944 88.9985 232.17 87.2228C230.397 85.4471 229.4 83.0399 229.4 80.53V35C229.398 32.6767 230.253 30.4342 231.801 28.7017C233.349 26.9692 235.481 25.8684 237.79 25.61L254.63 23.71C256.549 24.3122 258.225 25.5106 259.416 27.131C260.606 28.7514 261.249 30.7093 261.25 32.72Z" fill="#6D8189"/>
<path d="M255.91 89.97H240.94C240.426 89.97 240.01 90.3863 240.01 90.9V93.98C240.01 94.4936 240.426 94.91 240.94 94.91H255.91C256.424 94.91 256.84 94.4936 256.84 93.98V90.9C256.84 90.3863 256.424 89.97 255.91 89.97Z" fill="#485F66"/>
<path d="M254.84 94.58H242.02C241.54 94.58 241.15 94.9695 241.15 95.45V98.65C241.15 99.1305 241.54 99.52 242.02 99.52H254.84C255.321 99.52 255.71 99.1305 255.71 98.65V95.45C255.71 94.9695 255.321 94.58 254.84 94.58Z" fill="#395156"/>
<path d="M255.61 99.08H241.23C240.722 99.08 240.31 99.4919 240.31 100V103.1C240.31 103.608 240.722 104.02 241.23 104.02H255.61C256.118 104.02 256.53 103.608 256.53 103.1V100C256.53 99.4919 256.118 99.08 255.61 99.08Z" fill="#485F66"/>
<path d="M276.08 114.74L274.17 155.27V156.07L273 179.77L272.69 186.48L272.19 196.94H226.06L225.56 186.48L225.25 179.77L223.93 152V151.19L222.21 114.74C221.89 108.06 226.66 102.46 232.65 102.46H265.65C271.64 102.46 276.41 108.06 276.08 114.74Z" fill="#63797F"/>
<path d="M266.07 114.74L264.15 155.27V156.07L263 179.77L262.69 186.48L262.19 196.94H226.06L225.56 186.48L225.25 179.77L223.93 152V151.19L222.21 114.74C221.89 108.06 226.66 102.46 232.65 102.46H255.65C261.62 102.46 266.39 108.06 266.07 114.74Z" fill="#6D8189"/>
<path d="M199.45 123.29C199.45 124.439 199.109 125.562 198.471 126.518C197.833 127.473 196.925 128.218 195.863 128.658C194.802 129.097 193.634 129.213 192.507 128.988C191.38 128.764 190.344 128.211 189.532 127.398C188.719 126.586 188.166 125.55 187.942 124.423C187.718 123.296 187.833 122.128 188.272 121.067C188.712 120.005 189.457 119.098 190.412 118.459C191.368 117.821 192.491 117.48 193.64 117.48C195.181 117.48 196.659 118.092 197.748 119.182C198.838 120.271 199.45 121.749 199.45 123.29Z" fill="#6D8189"/>
<path d="M193.64 126.24C195.269 126.24 196.59 124.919 196.59 123.29C196.59 121.661 195.269 120.34 193.64 120.34C192.011 120.34 190.69 121.661 190.69 123.29C190.69 124.919 192.011 126.24 193.64 126.24Z" fill="#485F66"/>
<path d="M160.68 85.92L164.19 89.64C166.104 91.6636 167.135 94.3645 167.057 97.1484C166.979 99.9324 165.799 102.571 163.775 104.485C161.752 106.399 159.051 107.43 156.267 107.352C153.483 107.274 150.844 106.094 148.93 104.07L145.42 100.35L149.42 96.57L152.8 100.14C153.72 101.059 154.962 101.583 156.263 101.602C157.563 101.62 158.819 101.132 159.765 100.239C160.711 99.3465 161.272 98.1206 161.329 96.8213C161.386 95.5221 160.934 94.2518 160.07 93.28L156.68 89.7L160.68 85.92Z" fill="#6D8189"/>
<path d="M250.21 1.85C250.21 2.2159 250.102 2.57357 249.898 2.8778C249.695 3.18204 249.406 3.41916 249.068 3.55918C248.73 3.6992 248.358 3.73584 247.999 3.66445C247.64 3.59307 247.311 3.41687 247.052 3.15815C246.793 2.89942 246.617 2.56978 246.546 2.21092C246.474 1.85205 246.511 1.48008 246.651 1.14204C246.791 0.803992 247.028 0.515062 247.332 0.311781C247.636 0.108501 247.994 0 248.36 0C248.851 0 249.321 0.19491 249.668 0.541852C250.015 0.888795 250.21 1.35935 250.21 1.85Z" fill="#6530BC"/>
<path d="M261.55 73C252.87 67.59 244.19 78.41 235.55 73V70.3C244.23 75.71 252.91 64.89 261.55 70.3V73Z" fill="#485F66"/>
<path d="M246.262 59.2947C249.859 55.6979 249.859 49.8665 246.262 46.2698C242.666 42.673 236.834 42.673 233.238 46.2698C229.641 49.8665 229.641 55.698 233.238 59.2947C236.834 62.8914 242.666 62.8914 246.262 59.2947Z" fill="#63797F"/>
<path d="M266.546 54.9126C267.72 49.9633 264.659 44.9997 259.71 43.8261C254.761 42.6525 249.797 45.7133 248.623 50.6626C247.45 55.6119 250.51 60.5755 255.46 61.7491C260.409 62.9227 265.373 59.8619 266.546 54.9126Z" fill="#63797F"/>
<path d="M257.96 43.57H239.66V61.99H257.96V43.57Z" fill="#63797F"/>
<path d="M242.02 47.97H237.81V57.68H242.02V47.97Z" fill="#F7BC14"/>
<path d="M241.57 48.72H238.26V56.93H241.57V48.72Z" fill="#6530BC"/>
<path d="M260.35 47.97H256.14V57.68H260.35V47.97Z" fill="#F7BC14"/>
<path d="M233.76 46.46L232.5 44.77L242.86 36.37L244.96 40.01L233.76 46.46Z" fill="#485F66"/>
<path d="M264.4 46.46L265.66 44.77L255.3 36.37L253.2 40.01L264.4 46.46Z" fill="#485F66"/>
<path d="M266.39 117.88H231.27V139.91H266.39V117.88Z" fill="#63797F"/>
<path d="M262.98 120.02H234.67V137.78H262.98V120.02Z" fill="#485F66"/>
<path d="M260.41 123.59H237.24V124.71H260.41V123.59Z" fill="#6530BC"/>
<path d="M256.79 126.67H240.87V127.79H256.79V126.67Z" fill="#6530BC"/>
<path d="M258.54 129.42H239.12V130.54H258.54V129.42Z" fill="#6530BC"/>
<path d="M274.17 155.27L274.13 156.07H254.9V146.32H237.88V152H223.93L223.89 151.19H237.07V145.52H255.7V155.27H274.17Z" fill="#485F66"/>
<path d="M237.48 152.87C238.292 152.87 238.95 152.212 238.95 151.4C238.95 150.588 238.292 149.93 237.48 149.93C236.668 149.93 236.01 150.588 236.01 151.4C236.01 152.212 236.668 152.87 237.48 152.87Z" fill="#485F66"/>
<path d="M238.48 145.79C238.48 145.988 238.421 146.181 238.311 146.346C238.202 146.51 238.045 146.638 237.863 146.714C237.68 146.79 237.479 146.809 237.285 146.771C237.091 146.732 236.913 146.637 236.773 146.497C236.633 146.357 236.538 146.179 236.499 145.985C236.461 145.791 236.48 145.59 236.556 145.407C236.632 145.225 236.76 145.068 236.924 144.959C237.089 144.849 237.282 144.79 237.48 144.79C237.745 144.79 238 144.895 238.187 145.083C238.375 145.27 238.48 145.525 238.48 145.79Z" fill="#485F66"/>
<path d="M256.31 145.79C256.31 145.988 256.251 146.181 256.142 146.346C256.032 146.51 255.875 146.638 255.693 146.714C255.51 146.79 255.309 146.809 255.115 146.771C254.921 146.732 254.743 146.637 254.603 146.497C254.463 146.357 254.368 146.179 254.329 145.985C254.291 145.791 254.31 145.59 254.386 145.407C254.462 145.225 254.59 145.068 254.754 144.959C254.919 144.849 255.112 144.79 255.31 144.79C255.575 144.79 255.83 144.895 256.017 145.083C256.205 145.27 256.31 145.525 256.31 145.79Z" fill="#485F66"/>
<path d="M256.31 155.4C256.31 155.598 256.251 155.791 256.142 155.956C256.032 156.12 255.875 156.248 255.693 156.324C255.51 156.4 255.309 156.419 255.115 156.381C254.921 156.342 254.743 156.247 254.603 156.107C254.463 155.967 254.368 155.789 254.329 155.595C254.291 155.401 254.31 155.2 254.386 155.017C254.462 154.835 254.59 154.678 254.754 154.569C254.919 154.459 255.112 154.4 255.31 154.4C255.575 154.4 255.83 154.505 256.017 154.693C256.205 154.88 256.31 155.135 256.31 155.4Z" fill="#485F66"/>
<path d="M259.86 48.72H256.56V56.93H259.86V48.72Z" fill="#6530BC"/>
<path d="M273.46 186.38H224.59V201.1H273.46V186.38Z" fill="#395156"/>
<path d="M256.86 186.38H224.59V201.1H256.86V186.38Z" fill="#485F66"/>
<path d="M273.01 179.77L272.69 186.48H225.56L225.25 179.77H273.01Z" fill="#63797F"/>
<path d="M155.52 99.33C155.885 99.0054 156.277 98.711 156.69 98.45C168.13 91.17 167.87 119 167.87 119" stroke="#485F66" stroke-miterlimit="10"/>
<path d="M166.66 123.2H165.49V127.53H166.66V123.2Z" fill="#485F66"/>
<path d="M170.66 123.2H169.49V127.53H170.66V123.2Z" fill="#485F66"/>
<path d="M172.38 121.48V124.6H163.79V121.48C163.795 120.633 164.051 119.807 164.525 119.105C165 118.403 165.671 117.857 166.455 117.537C167.239 117.216 168.1 117.134 168.93 117.302C169.761 117.47 170.522 117.88 171.12 118.48L171.42 118.81C172.033 119.566 172.371 120.507 172.38 121.48Z" fill="#485F66"/>
<path d="M172.38 121.48V124.6H165V122.52C164.824 121.993 164.766 121.433 164.831 120.88C164.896 120.328 165.082 119.797 165.376 119.325C165.67 118.853 166.064 118.451 166.531 118.149C166.998 117.847 167.525 117.651 168.076 117.577C168.627 117.502 169.188 117.549 169.719 117.716C170.249 117.883 170.736 118.164 171.145 118.541C171.554 118.918 171.875 119.38 172.085 119.895C172.295 120.41 172.389 120.965 172.36 121.52L172.38 121.48Z" fill="#6D8189"/>
<path d="M344.83 99.33C344.461 99.0098 344.07 98.7158 343.66 98.45C332.21 91.17 332.47 119 332.47 119" stroke="#485F66" stroke-miterlimit="10"/>
<path d="M328 121.48V124.6H336.58V121.48C336.573 120.635 336.316 119.811 335.842 119.111C335.369 118.412 334.699 117.868 333.917 117.547C333.135 117.227 332.276 117.144 331.448 117.31C330.619 117.476 329.858 117.883 329.26 118.48C329.147 118.587 329.047 118.697 328.96 118.81C328.344 119.564 328.005 120.506 328 121.48Z" fill="#485F66"/>
<path d="M328 121.48V124.6H335.36V122.52C335.36 121.77 335.163 121.034 334.79 120.383C334.417 119.733 333.881 119.191 333.234 118.812C332.587 118.433 331.852 118.23 331.103 118.223C330.353 118.215 329.614 118.404 328.96 118.77C328.335 119.534 327.996 120.493 328 121.48Z" fill="#6D8189"/>
<path d="M164.08 142.43L163.04 142.5L162.84 140.21L161.79 143.61L162.83 143.54L163.03 145.83L164.08 142.43Z" fill="#6530BC"/>
<path d="M182.59 131.97L181.56 133.17L178.87 130.96L181.44 135.69L182.47 134.49L185.16 136.7L182.59 131.97Z" fill="#6530BC"/>
<path d="M178.18 143.34L176.45 144.3L174.27 140.53L175.2 147.18L176.93 146.22L179.1 149.99L178.18 143.34Z" fill="#6530BC"/>
<path d="M322.71 130.15L321.83 129.6L323.01 127.63L320.17 129.76L321.06 130.32L319.87 132.29L322.71 130.15Z" fill="#6530BC"/>
<path d="M343.85 132.51L342.31 132.89L341.43 129.51L340.73 134.85L342.27 134.48L343.16 137.85L343.85 132.51Z" fill="#6530BC"/>
<path d="M333.61 139.14L331.65 138.91L332.09 134.58L328.95 140.51L330.91 140.75L330.47 145.07L333.61 139.14Z" fill="#6530BC"/>
</g>
<defs>
<clipPath id="clip0_5094_105031">
<rect width="500" height="306" fill="white"/>
</clipPath>
</defs>
</svg>
