<svg height="24" viewBox="0 0 24 24" width="24" xmlns="http://www.w3.org/2000/svg"><path d="m16.8594854 20.7417567c-1.4724677.8202266-3.1349272 1.2582433-4.8594854 1.2582433-5.5228475 0-10-4.4771525-10-10s4.4771525-10 10-10 10 4.4771525 10 10c0 1.7245582-.4380167 3.3870177-1.2582433 4.8594854l.3529337 4.235205zm-.4678816-2.0459226 2.5137058.2094755-.2094755-2.5137058.166279-.2766156c.7409177-1.2325629 1.1378869-2.6434525 1.1378869-4.1149882 0-4.418278-3.581722-8-8-8s-8 3.581722-8 8 3.581722 8 8 8c1.4715357 0 2.8824253-.3969692 4.1149882-1.1378869zm-4.3912755-1.6974877c-.5524661 0-1.0003283-.4477153-1.0003283-1 0-.5522848.4478622-1 1.0003283-1 .552466 0 1.0003282.4477152 1.0003282 1 0 .5522847-.4478622 1-1.0003282 1zm.9996717-2.9983464h-2v-1c0-.7373068.3827392-1.2995216.9774877-1.7713502.1789234-.1419443.2326776-.1775653.5564757-.3828379.2885727-.1829413.4660366-.4984953.4660366-.8458119 0-.55228475-.4477153-1-1-1s-1 .44771525-1 1h-2c0-1.65685425 1.3431458-3 3-3s3 1.34314575 3 3c0 1.0395627-.5339492 1.988994-1.3951863 2.5349773-.2530858.1604444-.2841555.1810331-.384324.2604992-.1641986.1302628-.2204897.2129502-.2204897.2045235z"/></svg>