<svg width="20" height="20" viewBox="0 0 20 20" fill="none" xmlns="http://www.w3.org/2000/svg">
<path d="M11.6667 4.99998C11.6667 5.92045 10.9205 6.66665 10 6.66665C9.07954 6.66665 8.33334 5.92045 8.33334 4.99998C8.33334 4.07951 9.07954 3.33331 10 3.33331C10.9205 3.33331 11.6667 4.07951 11.6667 4.99998Z" fill="#262735"/>
<path d="M11.6667 9.99998C11.6667 10.9205 10.9205 11.6666 10 11.6666C9.07954 11.6666 8.33334 10.9205 8.33334 9.99998C8.33334 9.0795 9.07954 8.33331 10 8.33331C10.9205 8.33331 11.6667 9.0795 11.6667 9.99998Z" fill="#262735"/>
<path d="M10 16.6666C10.9205 16.6666 11.6667 15.9205 11.6667 15C11.6667 14.0795 10.9205 13.3333 10 13.3333C9.07954 13.3333 8.33334 14.0795 8.33334 15C8.33334 15.9205 9.07954 16.6666 10 16.6666Z" fill="#262735"/>
</svg>
