<svg width="16" height="16" viewBox="0 0 16 16" fill="none" xmlns="http://www.w3.org/2000/svg">
<path opacity="0.4" d="M7.49171 2.01352L7.49186 2.0134C7.76288 1.78165 8.24088 1.77815 8.52296 2.01425L9.57278 2.91789C9.57306 2.91813 9.57334 2.91837 9.57361 2.91861C9.73147 3.05518 9.93182 3.15969 10.1202 3.23009C10.309 3.30062 10.5299 3.35338 10.7402 3.35338H11.8736C12.3041 3.35338 12.6602 3.70952 12.6602 4.14005V5.27338C12.6602 5.48108 12.7133 5.70195 12.7832 5.89004C12.853 6.07792 12.9574 6.281 13.0951 6.44014C13.0953 6.44038 13.0955 6.44061 13.0957 6.44084L14.0002 7.49165C14.0004 7.49184 14.0006 7.49203 14.0007 7.49222C14.232 7.76335 14.2353 8.24089 13.9994 8.52276L13.0957 9.57258C13.0955 9.57281 13.0953 9.57305 13.0951 9.57328C12.9585 9.73116 12.854 9.93157 12.7835 10.12C12.713 10.3088 12.6602 10.5297 12.6602 10.74V11.8734C12.6602 12.3039 12.3041 12.66 11.8736 12.66H10.7402C10.5326 12.66 10.3117 12.7131 10.1236 12.783C9.93571 12.8528 9.73263 12.9572 9.57348 13.0949C9.57325 13.0951 9.57302 13.0953 9.57278 13.0955L8.52197 14C8.52178 14.0002 8.52159 14.0004 8.52141 14.0005C8.25028 14.2318 7.77274 14.2351 7.49086 13.9992L6.44105 13.0955C6.44081 13.0953 6.44058 13.0951 6.44035 13.0949C6.28247 12.9583 6.08206 12.8538 5.89358 12.7833C5.70479 12.7128 5.48394 12.66 5.27358 12.66H4.12025C3.68972 12.66 3.33358 12.3039 3.33358 11.8734V10.7334C3.33358 10.5254 3.28033 10.3062 3.21165 10.1206C3.14273 9.93443 3.04125 9.73622 2.91102 9.57995L2.91104 9.57994L2.90806 9.57643L2.00966 8.51832C2.00943 8.51804 2.00919 8.51777 2.00896 8.51749C1.77956 8.24363 1.77956 7.76978 2.00897 7.49592C2.0092 7.49565 2.00943 7.49538 2.00966 7.49511L2.90806 6.43699L2.90808 6.43701L2.91102 6.43347C3.04125 6.2772 3.14273 6.07899 3.21165 5.89279C3.28033 5.70727 3.33358 5.48807 3.33358 5.28005V4.13338C3.33358 3.70285 3.68972 3.34671 4.12025 3.34671H5.27358C5.48128 3.34671 5.70215 3.29363 5.89024 3.22373C6.0778 3.15404 6.28052 3.0499 6.43954 2.91253L7.49171 2.01352Z" fill="#38CB89" stroke="#0DBF66"/>
<mask id="path-2-inside-1_1101_13116" fill="white">
<path d="M7.1937 10.1134C7.06036 10.1134 6.9337 10.06 6.84036 9.96669L5.22703 8.35335C5.0337 8.16002 5.0337 7.84002 5.22703 7.64669C5.42036 7.45335 5.74036 7.45335 5.9337 7.64669L7.1937 8.90669L10.0604 6.04002C10.2537 5.84669 10.5737 5.84669 10.767 6.04002C10.9604 6.23335 10.9604 6.55335 10.767 6.74669L7.54703 9.96669C7.4537 10.06 7.32703 10.1134 7.1937 10.1134Z"/>
</mask>
<path d="M7.1937 10.1134C7.06036 10.1134 6.9337 10.06 6.84036 9.96669L5.22703 8.35335C5.0337 8.16002 5.0337 7.84002 5.22703 7.64669C5.42036 7.45335 5.74036 7.45335 5.9337 7.64669L7.1937 8.90669L10.0604 6.04002C10.2537 5.84669 10.5737 5.84669 10.767 6.04002C10.9604 6.23335 10.9604 6.55335 10.767 6.74669L7.54703 9.96669C7.4537 10.06 7.32703 10.1134 7.1937 10.1134Z" fill="#38CB89"/>
<path d="M6.84036 9.96669L6.13326 10.6738H6.13326L6.84036 9.96669ZM5.22703 8.35335L5.93414 7.64625L5.93414 7.64625L5.22703 8.35335ZM5.9337 7.64669L5.22659 8.35379L5.22659 8.35379L5.9337 7.64669ZM7.1937 8.90669L6.48659 9.61379L7.1937 10.3209L7.9008 9.61379L7.1937 8.90669ZM10.0604 6.04002L10.7675 6.74713L10.7675 6.74713L10.0604 6.04002ZM10.767 6.74669L10.0599 6.03958V6.03958L10.767 6.74669ZM7.54703 9.96669L8.25414 10.6738L7.54703 9.96669ZM7.1937 9.11335C7.32859 9.11335 7.45541 9.16752 7.54747 9.25958L6.13326 10.6738C6.41199 10.9525 6.79214 11.1134 7.1937 11.1134V9.11335ZM7.54747 9.25958L5.93414 7.64625L4.51992 9.06046L6.13326 10.6738L7.54747 9.25958ZM5.93414 7.64625C6.13133 7.84344 6.13133 8.1566 5.93414 8.35379L4.51992 6.93958C3.93607 7.52344 3.93607 8.4766 4.51992 9.06046L5.93414 7.64625ZM5.93414 8.35379C5.73695 8.55098 5.42378 8.55098 5.22659 8.35379L6.6408 6.93958C6.05695 6.35572 5.10378 6.35572 4.51992 6.93958L5.93414 8.35379ZM5.22659 8.35379L6.48659 9.61379L7.9008 8.19958L6.6408 6.93958L5.22659 8.35379ZM7.9008 9.61379L10.7675 6.74713L9.35326 5.33291L6.48659 8.19958L7.9008 9.61379ZM10.7675 6.74713C10.5703 6.94432 10.2571 6.94432 10.0599 6.74713L11.4741 5.33291C10.8903 4.74906 9.93712 4.74906 9.35326 5.33291L10.7675 6.74713ZM10.0599 6.74713C9.86273 6.54994 9.86273 6.23677 10.0599 6.03958L11.4741 7.45379C12.058 6.86994 12.058 5.91677 11.4741 5.33291L10.0599 6.74713ZM10.0599 6.03958L6.83992 9.25958L8.25414 10.6738L11.4741 7.45379L10.0599 6.03958ZM6.83992 9.25958C6.93199 9.16752 7.0588 9.11335 7.1937 9.11335V11.1134C7.59526 11.1134 7.97541 10.9525 8.25414 10.6738L6.83992 9.25958Z" fill="#0DBF66" mask="url(#path-2-inside-1_1101_13116)"/>
</svg>
