<svg width="50" height="50" viewBox="0 0 50 50" fill="none" xmlns="http://www.w3.org/2000/svg">
<path fill-rule="evenodd" clip-rule="evenodd" d="M2.28854 30.4662C-0.762843 27.4148 -0.76285 22.4675 2.28854 19.4161L19.4161 2.28854C22.4675 -0.762843 27.4148 -0.76285 30.4662 2.28854L47.5937 19.4161C50.6451 22.4675 50.6451 27.4148 47.5937 30.4662L30.4662 47.5937C27.4148 50.6451 22.4675 50.6451 19.4161 47.5937L2.28854 30.4662ZM22.1118 14.1805C21.3608 14.5192 20.656 15.347 19.9099 17.0727C19.8989 17.0983 19.8866 17.1234 19.8731 17.1478L19.8692 17.159C19.8652 17.1703 19.8611 17.1826 19.855 17.2011C19.8466 17.2263 19.837 17.2511 19.8264 17.2755L19.75 17.4501L19.7083 17.5543L19.7031 17.5674L19.703 17.5673L18.3354 20.8339C18.5837 20.8055 18.836 20.7908 19.0914 20.7908H21.8533L24.6825 14.2252C23.5027 13.88 22.7115 13.91 22.1118 14.1805ZM26.3305 14.8432L23.7676 20.7908L30.5422 20.7908C30.6346 20.7908 30.7268 20.7927 30.8187 20.7964C31.0864 20.8067 31.3562 20.832 31.625 20.8748C31.9759 19.8027 32.01 19.04 31.8267 18.4696C31.8207 18.4512 31.8154 18.4326 31.8107 18.4138C31.7992 18.3679 31.7804 18.3106 31.7548 18.2529C31.736 18.2107 31.7206 18.1671 31.7087 18.1224C31.6927 18.0625 31.6587 17.9832 31.5842 17.8673C31.5719 17.8482 31.5604 17.8287 31.5497 17.8087C31.5046 17.725 31.4495 17.6457 31.3553 17.5327L31.3483 17.5244L31.3484 17.5243C30.8789 16.9465 30.0359 16.3939 28.6349 15.813L28.6307 15.8112L26.3305 14.8432ZM30.7484 22.553C31.0822 22.5664 31.4075 22.6119 31.7141 22.6854C31.7542 22.6955 31.794 22.7061 31.8335 22.7173C31.8686 22.7331 31.9049 22.7467 31.9422 22.7579C33.908 23.3477 35.3507 25.1808 35.3708 27.3435L35.3709 27.3777V29.6631C35.3709 29.8714 35.3606 30.0833 35.3487 30.3207C35.2453 32.2192 34.6748 33.5083 33.7584 34.3341C32.8341 35.167 31.4213 35.6522 29.3818 35.6522C28.8964 35.6522 28.5028 36.0458 28.5028 36.5313C28.5028 37.0167 28.8964 37.4103 29.3818 37.4103C31.6789 37.4103 33.5771 36.8641 34.9353 35.6401C36.3012 34.4093 36.9847 32.6165 37.1043 30.414L37.1045 30.4103L37.1049 30.4009L37.1049 30.4007C37.1164 30.1725 37.129 29.9196 37.129 29.6631V27.4025L37.1291 27.3894V23.9553C37.1291 21.1043 35.5734 18.5821 33.2568 17.2624C33.2028 17.1485 33.1427 17.0428 33.0809 16.9447C32.9672 16.7393 32.8418 16.5707 32.7093 16.4114C31.9601 15.4917 30.7893 14.8033 29.3105 14.1899L29.3083 14.189L26.7224 13.1008L26.7079 13.0948C26.689 13.0873 26.6554 13.0728 26.6126 13.0543L26.6123 13.0542L26.6123 13.0542C26.4944 13.0033 26.307 12.9223 26.1643 12.8731C24.3567 12.1837 22.7731 11.9536 21.389 12.5779C20.0255 13.1929 19.0987 14.5304 18.313 16.3364C18.2879 16.3842 18.2666 16.4313 18.249 16.4742C14.9299 17.3488 12.4929 20.3684 12.4929 23.9553V27.3894C12.4929 27.4383 12.4969 27.4863 12.5046 27.5331V29.6749C12.5046 29.9934 12.5302 30.3041 12.5669 30.5927C12.7032 32.5859 13.3147 34.2334 14.4981 35.4168C15.6814 36.6001 17.3289 37.2117 19.3221 37.3479C19.6107 37.3847 19.9214 37.4103 20.24 37.4103H24.8109C25.2964 37.4103 25.6899 37.0167 25.6899 36.5313C25.6899 36.0458 25.2964 35.6522 24.8109 35.6522H20.24C20.0062 35.6522 19.7642 35.6327 19.5215 35.601C19.503 35.5986 19.4844 35.5968 19.4658 35.5955C17.7444 35.4819 16.5419 34.9743 15.7412 34.1736C14.9405 33.373 14.433 32.1705 14.3193 30.4491C14.3181 30.4304 14.3162 30.4118 14.3138 30.3933C14.2822 30.1506 14.2626 29.9086 14.2626 29.6749V27.3894C14.2626 25.4001 15.4687 23.683 17.1958 22.9363C17.798 22.6861 18.432 22.5489 19.1031 22.5489L30.5304 22.5489C30.6035 22.5489 30.6762 22.5503 30.7484 22.553ZM16.1616 21.4737L17.3077 18.7362C15.8075 19.577 14.709 21.0465 14.3648 22.7868C14.8831 22.2542 15.4901 21.8084 16.1616 21.4737ZM35.2521 22.7662C34.6989 22.1989 34.0445 21.7314 33.3184 21.3937C33.4974 20.8358 33.6199 20.3 33.6737 19.7851C34.459 20.5887 35.0198 21.6197 35.2521 22.7662ZM25.1607 25.688C26.6169 25.688 27.846 26.4833 28.1661 28.0118H26.7099C26.493 27.2476 25.9043 26.8448 25.1194 26.8448C23.942 26.8448 23.2603 27.8053 23.2603 29.3648C23.2603 30.9347 23.9316 31.8642 25.1194 31.8642C25.863 31.8642 26.4517 31.4821 26.6892 30.7488H28.1558C27.784 32.2153 26.5756 33.0209 25.14 33.0209C23.0847 33.0209 21.835 31.637 21.835 29.3648C21.835 27.103 23.1054 25.688 25.1607 25.688Z" fill="#7738DD"/>
</svg>
