<svg width="265" height="265" viewBox="0 0 265 265" fill="none" xmlns="http://www.w3.org/2000/svg">
<path fill-rule="evenodd" clip-rule="evenodd" d="M12.1482 161.722C-4.04937 145.525 -4.0494 119.263 12.1481 103.066L103.066 12.1482C119.263 -4.04937 145.525 -4.0494 161.722 12.1481L252.64 103.066C268.837 119.263 268.837 145.525 252.64 161.722L161.722 252.64C145.525 268.837 119.263 268.837 103.066 252.64L12.1482 161.722ZM117.37 75.2735C113.383 77.0718 109.642 81.466 105.682 90.6262C105.623 90.7622 105.558 90.8953 105.487 91.0251L105.48 91.0442L105.466 91.0843C105.445 91.1443 105.423 91.2096 105.39 91.3077C105.346 91.4415 105.295 91.5732 105.238 91.7024L104.833 92.6297L104.612 93.1827L104.603 93.203L104.583 93.2517L97.3239 110.591C98.6419 110.441 99.9812 110.363 101.337 110.363H115.998L131.016 75.5107C124.753 73.6787 120.553 73.8378 117.37 75.2735ZM139.764 78.7917L126.16 110.363L162.121 110.363C162.612 110.363 163.102 110.373 163.59 110.392C165.011 110.447 166.442 110.581 167.868 110.809C169.731 105.118 169.912 101.069 168.939 98.0415C168.908 97.9437 168.879 97.8449 168.854 97.7453C168.793 97.5012 168.693 97.1973 168.557 96.8911C168.458 96.6669 168.376 96.4353 168.313 96.1983C168.228 95.8801 168.048 95.4593 167.652 94.844C167.587 94.7427 167.526 94.639 167.469 94.533C167.229 94.0888 166.937 93.6678 166.437 93.0682L166.426 93.0549L166.4 93.0235C163.908 89.956 159.433 87.0228 151.996 83.9393L151.974 83.9298L139.764 78.7917ZM163.215 119.717C164.987 119.788 166.714 120.03 168.341 120.42C168.554 120.473 168.766 120.53 168.975 120.589C169.161 120.673 169.354 120.745 169.553 120.805C179.988 123.935 187.646 133.667 187.752 145.147C187.753 145.207 187.753 145.267 187.753 145.328V157.459C187.753 158.565 187.698 159.69 187.635 160.951C187.086 171.028 184.057 177.871 179.193 182.254C174.287 186.675 166.787 189.251 155.961 189.251C153.384 189.251 151.295 191.34 151.295 193.917C151.295 196.494 153.384 198.583 155.961 198.583C168.155 198.583 178.231 195.684 185.441 189.187C192.691 182.653 196.319 173.137 196.954 161.445L196.955 161.425L196.957 161.375C197.018 160.163 197.085 158.821 197.085 157.459V145.459C197.085 145.444 197.085 145.43 197.086 145.415C197.086 145.407 197.086 145.398 197.086 145.39V127.161C197.086 112.027 188.827 98.6385 176.531 91.6333C176.244 91.0285 175.925 90.4673 175.597 89.9467C174.993 88.8568 174.328 87.9615 173.624 87.1158C169.648 82.2336 163.432 78.5795 155.582 75.3233L155.571 75.3187L141.844 69.5423C141.818 69.5315 141.793 69.521 141.767 69.5107C141.667 69.4706 141.488 69.3934 141.26 69.2948L141.259 69.2946L141.258 69.2942C140.633 69.0241 139.638 68.5948 138.881 68.3335C129.286 64.6743 120.88 63.4529 113.533 66.7666C106.295 70.0311 101.376 77.1308 97.2051 86.7177C97.0719 86.9713 96.959 87.2217 96.8653 87.4494C79.2468 92.0915 66.3102 108.12 66.3102 127.161V145.39C66.3102 145.65 66.3315 145.904 66.3723 146.153V157.522C66.3723 159.212 66.5084 160.862 66.7034 162.394C67.4267 172.974 70.6729 181.719 76.9545 188.001C83.2361 194.283 91.9812 197.529 102.562 198.252C104.094 198.447 105.743 198.583 107.434 198.583H131.698C134.275 198.583 136.364 196.494 136.364 193.917C136.364 191.34 134.275 189.251 131.698 189.251H107.434C106.193 189.251 104.908 189.147 103.62 188.979C103.522 188.966 103.423 188.957 103.324 188.95C94.1867 188.347 87.8035 185.652 83.5534 181.402C79.3032 177.152 76.6088 170.769 76.0054 161.631C75.9989 161.532 75.9892 161.434 75.9764 161.335C75.8083 160.047 75.7045 158.762 75.7045 157.522V145.39C75.7045 134.83 82.1068 125.715 91.2748 121.752C94.4714 120.423 97.8364 119.695 101.399 119.695L162.058 119.695C162.446 119.695 162.832 119.702 163.215 119.717ZM85.785 113.988L91.8687 99.4562C83.9051 103.92 78.0744 111.72 76.2472 120.958C78.9981 118.131 82.2205 115.765 85.785 113.988ZM187.122 120.848C184.185 117.837 180.712 115.356 176.857 113.563C177.808 110.601 178.458 107.758 178.744 105.024C182.912 109.29 185.889 114.763 187.122 120.848ZM133.56 133.659C141.29 133.659 147.814 137.881 149.513 145.995H141.783C140.632 141.938 137.507 139.799 133.34 139.799C127.091 139.799 123.472 144.898 123.472 153.176C123.472 161.51 127.036 166.444 133.34 166.444C137.288 166.444 140.413 164.415 141.674 160.523H149.459C147.485 168.308 141.071 172.584 133.45 172.584C122.54 172.584 115.906 165.238 115.906 153.176C115.906 141.17 122.65 133.659 133.56 133.659Z" fill="#F1EBFC"/>
</svg>
